RobotoAvar2-opsz144-wdth25-wght100.ufo
<glyph name="exclam" format="2">
  <advance width="158.0"/>
  <unicode hex="0021"/>
  <outline>
    <contour>
      <point x="54.0" y="15.0" type="qcurve" smooth="yes"/>
      <point x="54.0" y="25.0"/>
      <point x="66.0" y="39.0"/>
      <point x="79.0" y="39.0" type="qcurve" smooth="yes"/>
      <point x="92.0" y="39.0"/>
      <point x="104.0" y="25.0"/>
      <point x="104.0" y="15.0" type="qcurve" smooth="yes"/>
      <point x="104.0" y="5.0"/>
      <point x="92.0" y="-9.0"/>
      <point x="79.0" y="-9.0" type="qcurve" smooth="yes"/>
      <point x="66.0" y="-9.0"/>
      <point x="54.0" y="5.0"/>
    </contour>
    <contour>
      <point x="76.0" y="410.0" type="line"/>
      <point x="76.0" y="1456.0" type="line"/>
      <point x="83.0" y="1456.0" type="line"/>
      <point x="83.0" y="410.0" type="line"/>
    </contour>
  </outline>
</glyph>
<glyph name="quotedbl" format="2">
  <advance width="481.3926940639269"/>
  <unicode hex="0022"/>
  <outline>
    <contour>
      <point x="119.5" y="966.0" type="line"/>
      <point x="119.5" y="1320.0" type="line"/>
      <point x="119.5" y="1456.0" type="line"/>
      <point x="126.5" y="1456.0" type="line"/>
      <point x="126.5" y="1320.0" type="line"/>
      <point x="126.5" y="966.0" type="line"/>
    </contour>
    <contour>
      <point x="354.8926940639269" y="966.0" type="line"/>
      <point x="354.8926940639269" y="1320.0" type="line"/>
      <point x="354.8926940639269" y="1456.0" type="line"/>
      <point x="361.8926940639269" y="1456.0" type="line"/>
      <point x="361.8926940639269" y="1320.0" type="line"/>
      <point x="361.8926940639269" y="966.0" type="line"/>
    </contour>
  </outline>
</glyph>
<glyph name="dollar" format="2">
  <advance width="187.4406392694064"/>
  <unicode hex="0024"/>
  <outline>
    <contour>
      <point x="12.75" y="381.0" type="qcurve" smooth="yes"/>
      <point x="12.75" y="392.0" type="line"/>
      <point x="19.75" y="392.0" type="line"/>
      <point x="19.75" y="381.0" type="line" smooth="yes"/>
      <point x="19.75" y="200.0"/>
      <point x="52.59018264840182" y="1.0"/>
      <point x="81.01484018264841" y="1.0" type="qcurve" smooth="yes"/>
      <point x="109.28424657534248" y="1.0"/>
      <point x="141.03767123287673" y="201.0"/>
      <point x="141.03767123287673" y="365.0" type="qcurve" smooth="yes"/>
      <point x="141.03767123287673" y="565.7716894977169"/>
      <point x="84.63127853881281" y="702.3424657534247"/>
      <point x="110.66780821917808" y="739.0" type="qcurve" smooth="yes"/>
      <point x="86.46689497716895" y="828.6529680365297"/>
      <point x="38.75" y="947.4657534246576"/>
      <point x="38.75" y="1099.0" type="qcurve" smooth="yes"/>
      <point x="38.75" y="1267.0"/>
      <point x="46.366438356164394" y="1458.0"/>
      <point x="101.58105022831049" y="1458.0" type="qcurve" smooth="yes"/>
      <point x="158.79566210045664" y="1458.0"/>
      <point x="165.65410958904107" y="1249.0"/>
      <point x="165.65410958904107" y="1076.0" type="qcurve" smooth="yes"/>
      <point x="165.65410958904107" y="1065.0" type="line"/>
      <point x="158.65410958904107" y="1065.0" type="line"/>
      <point x="158.65410958904107" y="1076.0" type="line" smooth="yes"/>
      <point x="158.65410958904107" y="1246.0"/>
      <point x="127.07420091324201" y="1451.0"/>
      <point x="101.42579908675799" y="1451.0" type="qcurve" smooth="yes"/>
      <point x="76.93264840182648" y="1451.0"/>
      <point x="45.75" y="1262.0"/>
      <point x="45.75" y="1099.0" type="qcurve" smooth="yes"/>
      <point x="45.75" y="919.054794520548"/>
      <point x="106.82762557077625" y="795.6392694063927"/>
      <point x="99.15182648401827" y="746.0" type="qcurve" smooth="yes"/>
      <point x="107.75" y="671.3287671232877"/>
      <point x="148.03767123287673" y="541.0502283105022"/>
      <point x="148.03767123287673" y="365.0" type="qcurve" smooth="yes"/>
      <point x="148.03767123287673" y="197.0"/>
      <point x="139.16095890410958" y="-6.0"/>
      <point x="80.85958904109589" y="-6.0" type="qcurve" smooth="yes"/>
      <point x="23.40296803652967" y="-6.0"/>
      <point x="12.75" y="197.0"/>
    </contour>
    <contour>
      <point x="96.99657534246575" y="-170.0" type="line"/>
      <point x="96.99657534246575" y="736.0365296803653" type="line"/>
      <point x="103.99657534246575" y="736.0365296803653" type="line"/>
      <point x="103.99657534246575" y="-1.0" type="line"/>
      <point x="103.99657534246575" y="-1.0" type="line"/>
      <point x="103.99657534246575" y="-170.0" type="line"/>
    </contour>
    <contour>
      <point x="96.99657534246575" y="736.0365296803653" type="line"/>
      <point x="96.99657534246575" y="1454.0" type="line"/>
      <point x="96.99657534246575" y="1454.0" type="line"/>
      <point x="96.99657534246575" y="1586.0" type="line"/>
      <point x="103.99657534246575" y="1586.0" type="line"/>
      <point x="103.99657534246575" y="736.0365296803653" type="line"/>
    </contour>
  </outline>
</glyph>
<glyph name="ampersand" format="2">
  <advance width="424.32420091324195"/>
  <unicode hex="0026"/>
  <outline>
    <contour>
      <point x="24.5" y="380.0" type="qcurve" smooth="yes"/>
      <point x="24.5" y="491.94977168949777"/>
      <point x="21.57762557077625" y="714.4657534246576"/>
      <point x="34.17123287671234" y="765.5525114155251" type="qcurve" smooth="yes"/>
      <point x="63.696347031963455" y="831.4840182648402" type="line" smooth="yes"/>
      <point x="150.458904109589" y="910.7945205479452"/>
      <point x="201.56392694063925" y="1094.9333333333334"/>
      <point x="201.56392694063925" y="1166.9333333333334" type="qcurve" smooth="yes"/>
      <point x="201.56392694063925" y="1320.9333333333334"/>
      <point x="175.23059360730593" y="1451.0"/>
      <point x="142.2945205479452" y="1451.0" type="qcurve" smooth="yes"/>
      <point x="101.35844748858446" y="1451.0"/>
      <point x="82.62785388127855" y="1315.9333333333334"/>
      <point x="82.62785388127855" y="1166.9333333333334" type="qcurve" smooth="yes"/>
      <point x="82.62785388127855" y="1084.9333333333334"/>
      <point x="113.85616438356163" y="953.1735159817351"/>
      <point x="166.0159817351598" y="829.8630136986301" type="qcurve" smooth="yes"/>
      <point x="504.82420091324195" y="0.0" type="line"/>
      <point x="526.2351598173516" y="0.0" type="line"/>
      <point x="149.87899543378995" y="836.0" type="line" smooth="yes"/>
      <point x="101.9429223744292" y="959.310502283105"/>
      <point x="75.62785388127855" y="1091.4666666666667"/>
      <point x="75.62785388127855" y="1173.4666666666667" type="qcurve" smooth="yes"/>
      <point x="75.62785388127855" y="1325.4666666666667"/>
      <point x="89.2214611872146" y="1458.0"/>
      <point x="137.22602739726028" y="1458.0" type="qcurve" smooth="yes"/>
      <point x="177.38584474885843" y="1458.0"/>
      <point x="208.56392694063925" y="1330.4666666666667"/>
      <point x="208.56392694063925" y="1173.4666666666667" type="qcurve" smooth="yes"/>
      <point x="208.56392694063925" y="1097.4666666666667"/>
      <point x="164.7511415525114" y="923.689497716895"/>
      <point x="94.97031963470317" y="847.37899543379" type="qcurve" smooth="yes"/>
      <point x="70.51369863013699" y="781.4474885844749" type="line" smooth="yes"/>
      <point x="48.230593607305934" y="724.6712328767123"/>
      <point x="31.5" y="502.0"/>
      <point x="31.5" y="380.0" type="qcurve" smooth="yes"/>
      <point x="31.5" y="239.66666666666666"/>
      <point x="104.71461187214612" y="5.666666666666668"/>
      <point x="176.72374429223743" y="5.666666666666668" type="qcurve" smooth="yes"/>
      <point x="279.6826484018265" y="5.666666666666668"/>
      <point x="462.9566210045662" y="382.0"/>
      <point x="462.9566210045662" y="674.0" type="qcurve"/>
      <point x="469.95662100456616" y="674.0" type="line"/>
      <point x="469.95662100456616" y="380.0"/>
      <point x="277.61415525114154" y="-1.3333333333333321"/>
      <point x="168.27625570776254" y="-1.3333333333333321" type="qcurve" smooth="yes"/>
      <point x="88.19863013698631" y="-1.3333333333333321"/>
      <point x="24.5" y="217.0"/>
    </contour>
  </outline>
</glyph>
<glyph name="quotesingle" format="2">
  <advance width="265.0"/>
  <unicode hex="0027"/>
  <outline>
    <contour>
      <point x="129.5" y="966.0" type="line"/>
      <point x="129.5" y="1320.0" type="line"/>
      <point x="129.5" y="1456.0" type="line"/>
      <point x="136.5" y="1456.0" type="line"/>
      <point x="136.5" y="1320.0" type="line"/>
      <point x="136.5" y="966.0" type="line"/>
    </contour>
  </outline>
</glyph>
<glyph name="parenleft" format="2">
  <advance width="147.66210045662098"/>
  <unicode hex="0028"/>
  <outline>
    <contour>
      <point x="131.16210045662098" y="-436.0" type="line"/>
      <point x="69.27625570776254" y="-340.0"/>
      <point x="38.5" y="120.0"/>
      <point x="38.5" y="515.0" type="qcurve" smooth="yes"/>
      <point x="38.5" y="525.0" type="line" smooth="yes"/>
      <point x="38.5" y="937.0"/>
      <point x="69.27625570776254" y="1380.0"/>
      <point x="131.16210045662098" y="1476.0" type="qcurve"/>
      <point x="131.16210045662098" y="1469.0" type="line"/>
      <point x="85.94748858447488" y="1375.0"/>
      <point x="45.5" y="936.0"/>
      <point x="45.5" y="532.0" type="qcurve" smooth="yes"/>
      <point x="45.5" y="508.0" type="line" smooth="yes"/>
      <point x="45.5" y="121.0"/>
      <point x="86.94748858447488" y="-336.0"/>
      <point x="131.16210045662098" y="-429.0" type="qcurve"/>
    </contour>
  </outline>
</glyph>
<glyph name="parenright" format="2">
  <advance width="147.66210045662098"/>
  <unicode hex="0029"/>
  <outline>
    <contour>
      <point x="16.5" y="-436.0" type="qcurve"/>
      <point x="16.5" y="-429.0" type="line"/>
      <point x="61.71461187214612" y="-335.0"/>
      <point x="102.16210045662098" y="92.17351598173516"/>
      <point x="102.16210045662098" y="508.0" type="qcurve" smooth="yes"/>
      <point x="102.16210045662098" y="532.0" type="line" smooth="yes"/>
      <point x="102.16210045662098" y="907.1735159817351"/>
      <point x="60.71461187214612" y="1376.0"/>
      <point x="16.5" y="1469.0" type="qcurve"/>
      <point x="16.5" y="1476.0" type="line"/>
      <point x="78.38584474885845" y="1380.0"/>
      <point x="109.16210045662098" y="905.6392694063927"/>
      <point x="109.16210045662098" y="525.0" type="qcurve" smooth="yes"/>
      <point x="109.16210045662098" y="515.0" type="line" smooth="yes"/>
      <point x="109.16210045662098" y="88.6392694063927"/>
      <point x="78.38584474885845" y="-340.0"/>
    </contour>
  </outline>
</glyph>
<glyph name="asterisk" format="2">
  <advance width="754.5753424657535"/>
  <unicode hex="002A"/>
  <outline>
    <contour>
      <point x="51.0" y="1245.3698630136987" type="line"/>
      <point x="69.89497716894977" y="1251.3698630136987" type="line"/>
      <point x="374.28767123287673" y="1105.8173515981734" type="line"/>
      <point x="373.28767123287673" y="1476.0" type="line"/>
      <point x="381.28767123287673" y="1476.0" type="line"/>
      <point x="380.28767123287673" y="1105.8173515981734" type="line"/>
      <point x="684.6803652968036" y="1251.3698630136987" type="line"/>
      <point x="703.5753424657535" y="1245.3698630136987" type="line"/>
      <point x="382.28767123287673" y="1098.8173515981734" type="line"/>
      <point x="609.6027397260274" y="836.634703196347" type="line"/>
      <point x="595.1552511415525" y="824.1872146118722" type="line"/>
      <point x="377.28767123287673" y="1093.8173515981734" type="line"/>
      <point x="159.4200913242009" y="824.1872146118722" type="line"/>
      <point x="144.97260273972603" y="836.634703196347" type="line"/>
      <point x="372.28767123287673" y="1098.8173515981734" type="line"/>
    </contour>
  </outline>
</glyph>
<glyph name="plus" format="2">
  <advance width="542.9520547945206"/>
  <unicode hex="002B"/>
  <outline>
    <contour>
      <point x="21.75" y="670.0" type="line"/>
      <point x="21.75" y="677.0" type="line"/>
      <point x="521.2020547945206" y="677.0" type="line"/>
      <point x="521.2020547945206" y="670.0" type="line"/>
    </contour>
    <contour>
      <point x="267.4760273972603" y="409.324200913242" type="line"/>
      <point x="267.4760273972603" y="938.6757990867579" type="line"/>
      <point x="274.4760273972603" y="938.6757990867579" type="line"/>
      <point x="274.4760273972603" y="409.324200913242" type="line"/>
    </contour>
  </outline>
</glyph>
<glyph name="comma" format="2">
  <advance width="295.0"/>
  <unicode hex="002C"/>
  <outline>
    <contour>
      <point x="8.0" y="-252.0" type="line"/>
      <point x="61.0" y="-193.0"/>
      <point x="144.0" y="-39.0"/>
      <point x="145.0" y="70.0" type="qcurve" smooth="yes"/>
      <point x="145.0" y="220.0" type="line"/>
      <point x="152.0" y="220.0" type="line"/>
      <point x="152.0" y="70.0" type="line" smooth="yes"/>
      <point x="152.0" y="-40.0"/>
      <point x="68.0" y="-195.0"/>
      <point x="13.0" y="-256.0" type="qcurve"/>
    </contour>
  </outline>
</glyph>
<glyph name="period" format="2">
  <advance width="355.0"/>
  <unicode hex="002E"/>
  <outline>
    <contour>
      <point x="152.5" y="15.0" type="qcurve" smooth="yes"/>
      <point x="152.5" y="25.0"/>
      <point x="164.5" y="40.0"/>
      <point x="177.5" y="40.0" type="qcurve" smooth="yes"/>
      <point x="190.5" y="40.0"/>
      <point x="202.5" y="25.0"/>
      <point x="202.5" y="15.0" type="qcurve" smooth="yes"/>
      <point x="202.5" y="6.0"/>
      <point x="190.5" y="-9.0"/>
      <point x="177.5" y="-9.0" type="qcurve" smooth="yes"/>
      <point x="164.5" y="-9.0"/>
      <point x="152.5" y="6.0"/>
    </contour>
  </outline>
</glyph>
<glyph name="slash" format="2">
  <advance width="300"/>
  <unicode hex="002F"/>
  <outline>
    <contour>
      <point x="27" y="-125" type="line"/>
      <point x="250" y="1456" type="line"/>
      <point x="258" y="1456" type="line"/>
      <point x="35" y="-125" type="line"/>
    </contour>
  </outline>
</glyph>
<glyph name="zero" format="2">
  <advance width="368.42009132420094"/>
  <unicode hex="0030"/>
  <outline>
    <contour>
      <point x="35.0" y="460.0" type="qcurve" smooth="yes"/>
      <point x="35.0" y="996.0" type="line" smooth="yes"/>
      <point x="35.0" y="1232.0"/>
      <point x="90.68493150684932" y="1486.0"/>
      <point x="183.21004566210047" y="1486.0" type="qcurve" smooth="yes"/>
      <point x="276.7351598173516" y="1486.0"/>
      <point x="333.4200913242009" y="1232.0"/>
      <point x="333.4200913242009" y="996.0" type="qcurve" smooth="yes"/>
      <point x="333.4200913242009" y="460.0" type="line" smooth="yes"/>
      <point x="333.4200913242009" y="224.0"/>
      <point x="276.7351598173516" y="-30.0"/>
      <point x="183.21004566210047" y="-30.0" type="qcurve" smooth="yes"/>
      <point x="90.68493150684932" y="-30.0"/>
      <point x="35.0" y="224.0"/>
    </contour>
    <contour>
      <point x="42.0" y="450.0" type="line" smooth="yes"/>
      <point x="42.0" y="225.0"/>
      <point x="120.02739726027397" y="-23.0"/>
      <point x="183.21004566210047" y="-23.0" type="qcurve" smooth="yes"/>
      <point x="247.3926940639269" y="-23.0"/>
      <point x="326.4200913242009" y="225.0"/>
      <point x="326.4200913242009" y="450.0" type="qcurve" smooth="yes"/>
      <point x="326.4200913242009" y="1006.0" type="line" smooth="yes"/>
      <point x="326.4200913242009" y="1233.0"/>
      <point x="251.6164383561644" y="1479.0"/>
      <point x="183.21004566210047" y="1479.0" type="qcurve" smooth="yes"/>
      <point x="115.80365296803654" y="1479.0"/>
      <point x="42.0" y="1233.0"/>
      <point x="42.0" y="1006.0" type="qcurve" smooth="yes"/>
    </contour>
  </outline>
</glyph>
<glyph name="one" format="2">
  <advance width="-86.57990867579912"/>
  <unicode hex="0031"/>
  <outline>
    <contour>
      <point x="194.6415525114155" y="0.0" type="line"/>
      <point x="194.6415525114155" y="1481.310502283105" type="line"/>
      <point x="-60.45890410958904" y="1398.579908675799" type="line"/>
      <point x="-60.45890410958904" y="1395.132420091324" type="line"/>
      <point x="194.6415525114155" y="1488.0" type="line"/>
      <point x="201.6415525114155" y="1488.0" type="line"/>
      <point x="201.6415525114155" y="0.0" type="line"/>
    </contour>
  </outline>
</glyph>
<glyph name="two" format="2">
  <advance width="213.42009132420088"/>
  <unicode hex="0032"/>
  <outline>
    <contour>
      <point x="-3.3105022831050235" y="0.0" type="line"/>
      <point x="-3.3105022831050235" y="7.0" type="line"/>
      <point x="72.56164383561645" y="521.0" type="line" smooth="yes"/>
      <point x="89.58447488584477" y="624.62100456621"/>
      <point x="148.8675799086758" y="876.0"/>
      <point x="148.8675799086758" y="1060.0" type="qcurve" smooth="yes"/>
      <point x="148.8675799086758" y="1305.579908675799"/>
      <point x="116.6849315068493" y="1479.0"/>
      <point x="84.76255707762556" y="1479.0" type="qcurve" smooth="yes"/>
      <point x="59.5296803652968" y="1479.0"/>
      <point x="41.68949771689498" y="1336.027397260274"/>
      <point x="41.68949771689498" y="1080.6849315068494" type="qcurve" smooth="yes"/>
      <point x="41.68949771689498" y="1020.0" type="line"/>
      <point x="34.68949771689498" y="1020.0" type="line"/>
      <point x="34.68949771689498" y="1083.6849315068494" type="line" smooth="yes"/>
      <point x="34.68949771689498" y="1310.6849315068494"/>
      <point x="48.47945205479451" y="1486.0"/>
      <point x="92.45205479452054" y="1486.0" type="qcurve" smooth="yes"/>
      <point x="145.64840182648402" y="1486.0"/>
      <point x="156.8675799086758" y="1285.0821917808219"/>
      <point x="156.8675799086758" y="1060.0" type="qcurve" smooth="yes"/>
      <point x="156.8675799086758" y="852.3470319634703"/>
      <point x="112.41095890410958" y="628.1552511415525"/>
      <point x="97.45662100456622" y="519.0" type="qcurve" smooth="yes"/>
      <point x="-42.461187214611876" y="7.0" type="line"/>
      <point x="169.8675799086758" y="7.0" type="line"/>
      <point x="169.8675799086758" y="0.0" type="line"/>
    </contour>
  </outline>
</glyph>
<glyph name="three" format="2">
  <advance width="195"/>
  <unicode hex="0033"/>
  <outline>
    <contour>
      <point x="16" y="268" type="qcurve" smooth="yes"/>
      <point x="16" y="408" type="line"/>
      <point x="23" y="408" type="line"/>
      <point x="23" y="268" type="line" smooth="yes"/>
      <point x="23" y="91"/>
      <point x="59" y="-5"/>
      <point x="93" y="-5" type="qcurve" smooth="yes"/>
      <point x="139" y="-5"/>
      <point x="171" y="158"/>
      <point x="171" y="400" type="qcurve" smooth="yes"/>
      <point x="171" y="591"/>
      <point x="125" y="759"/>
      <point x="50" y="759" type="qcurve" smooth="yes"/>
      <point x="34" y="759" type="line"/>
      <point x="34" y="766" type="line"/>
      <point x="49" y="766" type="line" smooth="yes"/>
      <point x="110" y="766"/>
      <point x="153" y="945"/>
      <point x="154" y="1141" type="qcurve" smooth="yes"/>
      <point x="155" y="1351"/>
      <point x="131" y="1469"/>
      <point x="92" y="1469" type="qcurve"/>
      <point x="58" y="1469"/>
      <point x="33" y="1363"/>
      <point x="33" y="1190" type="qcurve" smooth="yes"/>
      <point x="33" y="1080" type="line"/>
      <point x="26" y="1080" type="line"/>
      <point x="26" y="1190" type="line" smooth="yes"/>
      <point x="26" y="1371"/>
      <point x="55" y="1476"/>
      <point x="93" y="1476" type="qcurve"/>
      <point x="135" y="1476"/>
      <point x="161" y="1362"/>
      <point x="161" y="1141" type="qcurve" smooth="yes"/>
      <point x="161" y="940"/>
      <point x="117" y="772"/>
      <point x="63" y="763" type="qcurve"/>
      <point x="63" y="763" type="line"/>
      <point x="134" y="756"/>
      <point x="178" y="590"/>
      <point x="178" y="400" type="qcurve" smooth="yes"/>
      <point x="178" y="153"/>
      <point x="145" y="-12"/>
      <point x="93" y="-12" type="qcurve"/>
      <point x="50" y="-12"/>
      <point x="16" y="84"/>
    </contour>
  </outline>
</glyph>
<glyph name="four" format="2">
  <advance width="286.9200913242009"/>
  <unicode hex="0034"/>
  <outline>
    <contour>
      <point x="228.1187214611872" y="0.0" type="line"/>
      <point x="228.1187214611872" y="424.0" type="line"/>
      <point x="228.1187214611872" y="427.0" type="line"/>
      <point x="228.1187214611872" y="983.1004566210046" type="line"/>
      <point x="211.1187214611872" y="983.1004566210046" type="line"/>
      <point x="-0.18721461187215027" y="429.0" type="line"/>
      <point x="230.1187214611872" y="429.0" type="line"/>
      <point x="232.1187214611872" y="429.0" type="line"/>
      <point x="317.85388127853884" y="429.0" type="line"/>
      <point x="317.85388127853884" y="422.0" type="line"/>
      <point x="48.13698630136986" y="422.0" type="line"/>
      <point x="48.13698630136986" y="469.0" type="line"/>
      <point x="285.1187214611872" y="1456.0" type="line"/>
      <point x="235.1187214611872" y="1456.0" type="line"/>
      <point x="235.1187214611872" y="0.0" type="line"/>
    </contour>
  </outline>
</glyph>
<glyph name="five" format="2">
  <advance width="210.42009132420088"/>
  <unicode hex="0035"/>
  <outline>
    <contour>
      <point x="28.08447488584474" y="305.8675799086758" type="qcurve" smooth="yes"/>
      <point x="28.08447488584474" y="375.0" type="line"/>
      <point x="35.08447488584474" y="375.0" type="line"/>
      <point x="35.08447488584474" y="305.8675799086758" type="line" smooth="yes"/>
      <point x="35.08447488584474" y="135.8675799086758"/>
      <point x="61.52739726027397" y="-23.0"/>
      <point x="97.15753424657535" y="-23.0" type="qcurve" smooth="yes"/>
      <point x="132.78767123287673" y="-23.0"/>
      <point x="155.78310502283102" y="223.4200913242009"/>
      <point x="155.78310502283102" y="465.0" type="qcurve" smooth="yes"/>
      <point x="155.78310502283102" y="690.1324200913242"/>
      <point x="145.40867579908678" y="885.0"/>
      <point x="88.71004566210044" y="885.0" type="qcurve" smooth="yes"/>
      <point x="87.13470319634703" y="885.0"/>
      <point x="83.9703196347032" y="804.0"/>
      <point x="51.58675799086758" y="728.0" type="qcurve"/>
      <point x="48.58675799086758" y="730.0" type="line"/>
      <point x="86.26255707762556" y="1456.0" type="line"/>
      <point x="126.10730593607303" y="1456.0" type="line"/>
      <point x="126.10730593607303" y="1449.0" type="line"/>
      <point x="96.64155251141551" y="1449.0" type="line"/>
      <point x="44.605022831050235" y="739.0" type="line"/>
      <point x="76.59132420091325" y="808.0"/>
      <point x="71.65068493150685" y="892.0"/>
      <point x="103.10273972602741" y="892.0" type="qcurve" smooth="yes"/>
      <point x="149.7328767123288" y="892.0"/>
      <point x="162.78310502283102" y="677.8949771689498"/>
      <point x="162.78310502283102" y="465.0" type="qcurve" smooth="yes"/>
      <point x="162.78310502283102" y="250.10502283105023"/>
      <point x="152.6826484018265" y="-30.0"/>
      <point x="97.15753424657535" y="-30.0" type="qcurve" smooth="yes"/>
      <point x="78.97488584474885" y="-30.0"/>
      <point x="28.08447488584474" y="133.8675799086758"/>
    </contour>
  </outline>
</glyph>
<glyph name="six" format="2">
  <advance width="413.42009132420094"/>
  <unicode hex="0036"/>
  <outline>
    <contour>
      <point x="37.94748858447488" y="614.0" type="qcurve" smooth="yes"/>
      <point x="37.94748858447488" y="644.0" type="line" smooth="yes"/>
      <point x="37.94748858447488" y="981.0"/>
      <point x="253.41324200913243" y="1457.0"/>
      <point x="368.23972602739724" y="1457.0" type="qcurve" smooth="yes"/>
      <point x="380.94748858447485" y="1457.0" type="line"/>
      <point x="380.94748858447485" y="1450.0" type="line"/>
      <point x="370.23972602739724" y="1450.0" type="line" smooth="yes"/>
      <point x="228.6917808219178" y="1450.0"/>
      <point x="44.94748858447488" y="979.0"/>
      <point x="44.94748858447488" y="634.0" type="qcurve" smooth="yes"/>
      <point x="44.94748858447488" y="624.0" type="line" smooth="yes"/>
      <point x="44.94748858447488" y="280.0"/>
      <point x="127.7876712328767" y="-23.0"/>
      <point x="215.57305936073055" y="-23.0" type="qcurve" smooth="yes"/>
      <point x="299.51369863013696" y="-23.0"/>
      <point x="373.3173515981735" y="227.0"/>
      <point x="373.3173515981735" y="444.0" type="qcurve" smooth="yes"/>
      <point x="373.3173515981735" y="662.0"/>
      <point x="297.51369863013696" y="929.0"/>
      <point x="213.57305936073055" y="929.0" type="qcurve" smooth="yes"/>
      <point x="128.18493150684932" y="929.0"/>
      <point x="49.94748858447488" y="654.0"/>
      <point x="50.94748858447488" y="458.0" type="qcurve"/>
      <point x="44.94748858447488" y="458.0" type="line"/>
      <point x="43.94748858447488" y="656.0"/>
      <point x="109.44520547945206" y="936.0"/>
      <point x="199.21232876712327" y="936.0" type="qcurve" smooth="yes"/>
      <point x="297.97945205479454" y="936.0"/>
      <point x="380.3173515981735" y="667.0"/>
      <point x="380.3173515981735" y="444.0" type="qcurve" smooth="yes"/>
      <point x="380.3173515981735" y="222.0"/>
      <point x="313.49543378995435" y="-30.0"/>
      <point x="219.79680365296804" y="-30.0" type="qcurve" smooth="yes"/>
      <point x="120.25342465753425" y="-30.0"/>
      <point x="37.94748858447488" y="279.0"/>
    </contour>
  </outline>
</glyph>
<glyph name="seven" format="2">
  <advance width="396.92009132420094"/>
  <unicode hex="0037"/>
  <outline>
    <contour>
      <point x="16.60273972602741" y="0.0" type="line"/>
      <point x="427.41552511415523" y="1449.0" type="line"/>
      <point x="30.657534246575338" y="1449.0" type="line"/>
      <point x="30.657534246575338" y="1456.0" type="line"/>
      <point x="432.41552511415523" y="1456.0" type="line"/>
      <point x="432.41552511415523" y="1443.0" type="line"/>
      <point x="24.60273972602741" y="0.0" type="line"/>
    </contour>
  </outline>
</glyph>
<glyph name="eight" format="2">
  <advance width="377.42009132420094"/>
  <unicode hex="0038"/>
  <outline>
    <contour>
      <point x="21.052511415525117" y="386.0" type="qcurve" smooth="yes"/>
      <point x="21.052511415525117" y="536.0"/>
      <point x="149.69634703196346" y="741.4657534246576"/>
      <point x="274.85616438356163" y="745.4657534246576" type="qcurve"/>
      <point x="274.85616438356163" y="745.4657534246576" type="line"/>
      <point x="162.2671232876712" y="754.4657534246576"/>
      <point x="35.79680365296804" y="940.0"/>
      <point x="35.79680365296804" y="1087.0" type="qcurve" smooth="yes"/>
      <point x="35.79680365296804" y="1279.0"/>
      <point x="113.89269406392694" y="1486.0"/>
      <point x="189.02054794520546" y="1486.0" type="qcurve" smooth="yes"/>
      <point x="269.6826484018265" y="1486.0"/>
      <point x="347.62328767123284" y="1278.310502283105"/>
      <point x="347.62328767123284" y="1087.0" type="qcurve" smooth="yes"/>
      <point x="347.62328767123284" y="940.0"/>
      <point x="220.3082191780822" y="754.4657534246576"/>
      <point x="106.56392694063925" y="745.4657534246576" type="qcurve"/>
      <point x="106.56392694063925" y="745.4657534246576" type="line"/>
      <point x="231.72374429223743" y="741.4657534246576"/>
      <point x="359.21232876712327" y="536.0"/>
      <point x="359.21232876712327" y="386.0" type="qcurve" smooth="yes"/>
      <point x="359.21232876712327" y="218.0"/>
      <point x="292.01141552511416" y="-30.0"/>
      <point x="189.865296803653" y="-30.0" type="qcurve" smooth="yes"/>
      <point x="88.56392694063928" y="-30.0"/>
      <point x="21.052511415525117" y="218.0"/>
    </contour>
    <contour>
      <point x="28.052511415525117" y="386.0" type="qcurve" smooth="yes"/>
      <point x="28.052511415525117" y="218.0"/>
      <point x="99.32191780821918" y="-23.0"/>
      <point x="189.865296803653" y="-23.0" type="qcurve" smooth="yes"/>
      <point x="281.4086757990868" y="-23.0"/>
      <point x="352.21232876712327" y="219.0"/>
      <point x="352.21232876712327" y="386.0" type="qcurve" smooth="yes"/>
      <point x="352.21232876712327" y="535.0"/>
      <point x="272.4086757990868" y="743.0"/>
      <point x="189.865296803653" y="743.0" type="qcurve" smooth="yes"/>
      <point x="106.32191780821918" y="743.0"/>
      <point x="28.052511415525117" y="535.0"/>
    </contour>
    <contour>
      <point x="42.79680365296804" y="1087.0" type="qcurve" smooth="yes"/>
      <point x="42.79680365296804" y="935.0"/>
      <point x="132.96118721461187" y="754.0"/>
      <point x="189.865296803653" y="754.0" type="qcurve" smooth="yes"/>
      <point x="248.76940639269407" y="754.0"/>
      <point x="340.62328767123284" y="935.0"/>
      <point x="340.62328767123284" y="1087.0" type="qcurve" smooth="yes"/>
      <point x="340.62328767123284" y="1277.0"/>
      <point x="261.76940639269407" y="1479.0"/>
      <point x="189.865296803653" y="1479.0" type="qcurve" smooth="yes"/>
      <point x="120.96118721461187" y="1479.0"/>
      <point x="42.79680365296804" y="1277.0"/>
    </contour>
  </outline>
</glyph>
<glyph name="nine" format="2">
  <advance width="195"/>
  <unicode hex="0039"/>
  <outline>
    <contour>
      <point x="27" y="1013" type="qcurve" smooth="yes"/>
      <point x="27" y="1368"/>
      <point x="52" y="1467"/>
      <point x="94" y="1467" type="qcurve" smooth="yes"/>
      <point x="136" y="1467"/>
      <point x="161" y="1390"/>
      <point x="161" y="1043" type="qcurve" smooth="yes"/>
      <point x="161" y="555" type="line" smooth="yes"/>
      <point x="161" y="85"/>
      <point x="127" y="0"/>
      <point x="83" y="0" type="qcurve" smooth="yes"/>
      <point x="73" y="0" type="line"/>
      <point x="73" y="7" type="line"/>
      <point x="82" y="7" type="line" smooth="yes"/>
      <point x="124" y="7"/>
      <point x="154" y="94"/>
      <point x="154" y="823" type="qcurve" smooth="yes"/>
      <point x="154" y="833" type="line" smooth="yes"/>
      <point x="154" y="1383"/>
      <point x="131" y="1460"/>
      <point x="94" y="1460" type="qcurve" smooth="yes"/>
      <point x="57" y="1460"/>
      <point x="34" y="1364"/>
      <point x="34" y="1013" type="qcurve" smooth="yes"/>
      <point x="34" y="640"/>
      <point x="54" y="528"/>
      <point x="87" y="528" type="qcurve" smooth="yes"/>
      <point x="120" y="528"/>
      <point x="155" y="643"/>
      <point x="154" y="999" type="qcurve"/>
      <point x="160" y="999" type="line"/>
      <point x="161" y="628"/>
      <point x="122" y="521"/>
      <point x="86" y="521" type="qcurve" smooth="yes"/>
      <point x="50" y="521"/>
      <point x="27" y="638"/>
    </contour>
  </outline>
</glyph>
<glyph name="colon" format="2">
  <advance width="351.0"/>
  <unicode hex="003A"/>
  <outline>
    <contour>
      <point x="150.5" y="2.0" type="qcurve" smooth="yes"/>
      <point x="150.5" y="12.0"/>
      <point x="163.5" y="27.0"/>
      <point x="175.5" y="27.0" type="qcurve" smooth="yes"/>
      <point x="187.5" y="27.0"/>
      <point x="200.5" y="12.0"/>
      <point x="200.5" y="2.0" type="qcurve" smooth="yes"/>
      <point x="200.5" y="-8.0"/>
      <point x="187.5" y="-22.0"/>
      <point x="175.5" y="-22.0" type="qcurve" smooth="yes"/>
      <point x="163.5" y="-22.0"/>
      <point x="150.5" y="-8.0"/>
    </contour>
    <contour>
      <point x="150.5" y="1044.0" type="qcurve" smooth="yes"/>
      <point x="150.5" y="1054.0"/>
      <point x="163.5" y="1068.0"/>
      <point x="175.5" y="1068.0" type="qcurve" smooth="yes"/>
      <point x="187.5" y="1068.0"/>
      <point x="200.5" y="1054.0"/>
      <point x="200.5" y="1044.0" type="qcurve" smooth="yes"/>
      <point x="200.5" y="1034.0"/>
      <point x="187.5" y="1019.0"/>
      <point x="175.5" y="1019.0" type="qcurve" smooth="yes"/>
      <point x="163.5" y="1019.0"/>
      <point x="150.5" y="1034.0"/>
    </contour>
  </outline>
</glyph>
<glyph name="semicolon" format="2">
  <advance width="300.0"/>
  <unicode hex="003B"/>
  <outline>
    <contour>
      <point x="88.14840182648402" y="-251.46575342465752" type="line"/>
      <point x="133.66894977168948" y="-186.31050228310502"/>
      <point x="148.5" y="-30.15525114155251"/>
      <point x="149.5" y="70.0" type="qcurve" smooth="yes"/>
      <point x="149.5" y="220.0" type="line"/>
      <point x="156.5" y="220.0" type="line"/>
      <point x="156.5" y="70.0" type="line" smooth="yes"/>
      <point x="156.5" y="-40.0"/>
      <point x="146.96118721461187" y="-192.0"/>
      <point x="105.13013698630135" y="-259.0" type="qcurve"/>
    </contour>
    <contour>
      <point x="117.5" y="1044.0" type="qcurve" smooth="yes"/>
      <point x="117.5" y="1054.0"/>
      <point x="130.5" y="1068.0"/>
      <point x="142.5" y="1068.0" type="qcurve" smooth="yes"/>
      <point x="154.5" y="1068.0"/>
      <point x="167.5" y="1054.0"/>
      <point x="167.5" y="1044.0" type="qcurve" smooth="yes"/>
      <point x="167.5" y="1034.0"/>
      <point x="154.5" y="1019.0"/>
      <point x="142.5" y="1019.0" type="qcurve" smooth="yes"/>
      <point x="130.5" y="1019.0"/>
      <point x="117.5" y="1034.0"/>
    </contour>
  </outline>
</glyph>
<glyph name="less" format="2">
  <advance width="368"/>
  <unicode hex="003C"/>
  <outline>
    <contour>
      <point x="334" y="415" type="line"/>
      <point x="32" y="672" type="line"/>
      <point x="32" y="684" type="line"/>
      <point x="334" y="934" type="line"/>
      <point x="333" y="926" type="line"/>
      <point x="36" y="678" type="line"/>
      <point x="333" y="422" type="line"/>
    </contour>
  </outline>
</glyph>
<glyph name="equal" format="2">
  <advance width="407.7922374429223"/>
  <unicode hex="003D"/>
  <outline>
    <contour>
      <point x="21.75" y="462.0" type="line"/>
      <point x="21.75" y="469.0" type="line"/>
      <point x="386.0422374429223" y="469.0" type="line"/>
      <point x="386.0422374429223" y="462.0" type="line"/>
    </contour>
    <contour>
      <point x="21.75" y="857.0" type="line"/>
      <point x="21.75" y="864.0" type="line"/>
      <point x="386.0422374429223" y="864.0" type="line"/>
      <point x="386.0422374429223" y="857.0" type="line"/>
    </contour>
  </outline>
</glyph>
<glyph name="greater" format="2">
  <advance width="368"/>
  <unicode hex="003E"/>
  <outline>
    <contour>
      <point x="34" y="415" type="line"/>
      <point x="34" y="422" type="line"/>
      <point x="333" y="678" type="line"/>
      <point x="34" y="927" type="line"/>
      <point x="34" y="934" type="line"/>
      <point x="336" y="684" type="line"/>
      <point x="336" y="672" type="line"/>
    </contour>
  </outline>
</glyph>
<glyph name="question" format="2">
  <advance width="159.6187214611872"/>
  <unicode hex="003F"/>
  <outline>
    <contour>
      <point x="31.239726027397268" y="14.155251141552512" type="qcurve" smooth="yes"/>
      <point x="31.239726027397268" y="24.15525114155251"/>
      <point x="44.23972602739727" y="38.15525114155251"/>
      <point x="56.23972602739727" y="38.15525114155251" type="qcurve" smooth="yes"/>
      <point x="68.23972602739727" y="38.15525114155251"/>
      <point x="81.23972602739727" y="24.15525114155251"/>
      <point x="81.23972602739727" y="14.155251141552512" type="qcurve" smooth="yes"/>
      <point x="81.23972602739727" y="4.155251141552512"/>
      <point x="68.23972602739727" y="-9.844748858447488"/>
      <point x="56.23972602739727" y="-9.844748858447488" type="qcurve" smooth="yes"/>
      <point x="44.23972602739727" y="-9.844748858447488"/>
      <point x="31.239726027397268" y="4.155251141552512"/>
    </contour>
    <contour>
      <point x="14.052511415525117" y="1095.0" type="line"/>
      <point x="14.052511415525117" y="1115.0" type="line" smooth="yes"/>
      <point x="14.052511415525117" y="1276.0"/>
      <point x="16.787671232876704" y="1476.0"/>
      <point x="66.6552511415525" y="1476.0" type="qcurve" smooth="yes"/>
      <point x="122.05707762557077" y="1476.0"/>
      <point x="120.17123287671234" y="1270.0"/>
      <point x="120.17123287671234" y="1100.0" type="qcurve" smooth="yes"/>
      <point x="120.17123287671234" y="968.0"/>
      <point x="153.16210045662098" y="861.3424657534247"/>
      <point x="101.72831050228311" y="770.2054794520548" type="qcurve" smooth="yes"/>
      <point x="73.27625570776254" y="702.0502283105022"/>
      <point x="61.997716894977174" y="591.0502283105022"/>
      <point x="61.997716894977174" y="504.49771689497715" type="qcurve" smooth="yes"/>
      <point x="61.997716894977174" y="409.1552511415525" type="line"/>
      <point x="54.997716894977174" y="409.1552511415525" type="line"/>
      <point x="54.997716894977174" y="504.49771689497715" type="line" smooth="yes"/>
      <point x="54.997716894977174" y="591.0502283105022"/>
      <point x="62.58675799086757" y="689.9132420091324"/>
      <point x="88.1255707762557" y="759.0" type="qcurve" smooth="yes"/>
      <point x="136.4908675799087" y="847.068493150685"/>
      <point x="113.17123287671234" y="969.0"/>
      <point x="113.17123287671234" y="1100.0" type="qcurve" smooth="yes"/>
      <point x="113.17123287671234" y="1266.0"/>
      <point x="91.18036529680364" y="1469.0"/>
      <point x="68.6552511415525" y="1469.0" type="qcurve" smooth="yes"/>
      <point x="43.130136986301366" y="1469.0"/>
      <point x="21.052511415525117" y="1270.0"/>
      <point x="21.052511415525117" y="1115.0" type="qcurve" smooth="yes"/>
      <point x="21.052511415525117" y="1095.0" type="line"/>
    </contour>
  </outline>
</glyph>
<glyph name="at" format="2">
  <advance width="1219.9132420091323"/>
  <unicode hex="0040"/>
  <outline>
    <contour>
      <point x="413.03652968036533" y="378.0" type="qcurve" smooth="yes"/>
      <point x="435.8447488584475" y="634.0"/>
      <point x="615.1643835616438" y="1052.0"/>
      <point x="720.1689497716895" y="1052.0" type="qcurve" smooth="yes"/>
      <point x="752.8447488584475" y="1052.0"/>
      <point x="813.1095890410959" y="991.0"/>
      <point x="827.6986301369864" y="946.0" type="qcurve"/>
      <point x="809.2876712328767" y="946.0" type="line"/>
      <point x="683.2876712328767" y="350.0" type="line" smooth="yes"/>
      <point x="656.2876712328767" y="219.0"/>
      <point x="753.3607305936073" y="7.0"/>
      <point x="872.6392694063927" y="7.0" type="qcurve" smooth="yes"/>
      <point x="1010.7990867579908" y="7.0"/>
      <point x="1084.9132420091323" y="364.0"/>
      <point x="1084.9132420091323" y="650.0" type="qcurve" smooth="yes"/>
      <point x="1084.9132420091323" y="997.0"/>
      <point x="820.0" y="1479.0"/>
      <point x="616.5205479452054" y="1479.0" type="qcurve" smooth="yes"/>
      <point x="398.04109589041093" y="1479.0"/>
      <point x="132.0" y="901.0"/>
      <point x="132.0" y="460.0" type="qcurve" smooth="yes"/>
      <point x="132.0" y="46.0"/>
      <point x="371.2420091324201" y="-439.0"/>
      <point x="601.8401826484019" y="-439.0" type="qcurve" smooth="yes"/>
      <point x="698.7579908675799" y="-439.0"/>
      <point x="854.6575342465753" y="-393.0"/>
      <point x="909.7625570776256" y="-349.0" type="qcurve"/>
      <point x="911.4520547945206" y="-356.0" type="line"/>
      <point x="854.1232876712329" y="-400.0"/>
      <point x="690.310502283105" y="-446.0"/>
      <point x="600.9954337899544" y="-446.0" type="qcurve" smooth="yes"/>
      <point x="377.0" y="-446.0"/>
      <point x="125.0" y="31.552511415525114"/>
      <point x="125.0" y="458.310502283105" type="qcurve" smooth="yes"/>
      <point x="125.0" y="910.2237442922375"/>
      <point x="394.662100456621" y="1486.0"/>
      <point x="615.5205479452054" y="1486.0" type="qcurve" smooth="yes"/>
      <point x="826.3789954337899" y="1486.0"/>
      <point x="1091.9132420091323" y="1000.0"/>
      <point x="1091.9132420091323" y="650.0" type="qcurve" smooth="yes"/>
      <point x="1091.9132420091323" y="360.0"/>
      <point x="1001.8173515981734" y="0.0"/>
      <point x="848.986301369863" y="0.0" type="qcurve" smooth="yes"/>
      <point x="733.1050228310502" y="0.0"/>
      <point x="627.2739726027397" y="176.0"/>
      <point x="652.3926940639269" y="296.0" type="qcurve"/>
      <point x="646.2009132420092" y="176.0"/>
      <point x="526.9543378995434" y="0.0"/>
      <point x="434.986301369863" y="0.0" type="qcurve" smooth="yes"/>
      <point x="384.49771689497715" y="0.0"/>
      <point x="397.83105022831046" y="187.0"/>
    </contour>
    <contour>
      <point x="423.41552511415523" y="381.37899543378995" type="qcurve" smooth="yes"/>
      <point x="403.1415525114155" y="198.22374429223743"/>
      <point x="423.66666666666674" y="10.534246575342479"/>
      <point x="472.8447488584475" y="10.534246575342479" type="qcurve" smooth="yes"/>
      <point x="543.1598173515981" y="10.534246575342479"/>
      <point x="639.5981735159817" y="189.84474885844747"/>
      <point x="668.4429223744291" y="323.8447488584475" type="qcurve" smooth="yes"/>
      <point x="801.8219178082192" y="936.0" type="line"/>
      <point x="781.0091324200913" y="982.0"/>
      <point x="722.7442922374429" y="1045.8447488584475"/>
      <point x="677.1552511415525" y="1045.8447488584475" type="qcurve" smooth="yes"/>
      <point x="645.5068493150685" y="1045.8447488584475"/>
      <point x="460.58447488584477" y="634.8447488584475"/>
    </contour>
  </outline>
</glyph>
<glyph name="A" format="2">
  <advance width="138.20547945205476"/>
  <unicode hex="0041"/>
  <anchor x="58.5684931506849" y="0.0" name="bottom"/>
  <anchor x="201.65525114155253" y="0.0" name="ogonek"/>
  <anchor x="58.5684931506849" y="1456.0" name="top"/>
  <anchor x="-278.837899543379" y="1074.0" name="tonos"/>
  <outline>
    <contour>
      <point x="7.5" y="0.0" type="line"/>
      <point x="56.257990867579906" y="1464.0" type="line"/>
      <point x="64.2579908675799" y="1464.0" type="line"/>
      <point x="130.70547945205476" y="0.0" type="line"/>
      <point x="123.70547945205476" y="0.0" type="line"/>
      <point x="60.84703196347033" y="1350.0" type="line" smooth="yes"/>
      <point x="61.98401826484019" y="1383.689497716895"/>
      <point x="62.344748858447474" y="1436.0"/>
      <point x="64.2579908675799" y="1457.0" type="qcurve"/>
      <point x="56.257990867579906" y="1457.0" type="line"/>
      <point x="58.17123287671234" y="1436.0"/>
      <point x="59.531963470319624" y="1382.689497716895"/>
      <point x="60.66894977168948" y="1348.0" type="qcurve" smooth="yes"/>
      <point x="14.5" y="0.0" type="line"/>
    </contour>
    <contour>
      <point x="37.75114155251141" y="461.0" type="line"/>
      <point x="-12.486301369863014" y="468.0" type="line"/>
      <point x="142.0022831050228" y="468.0" type="line"/>
      <point x="92.76484018264841" y="461.0" type="line"/>
    </contour>
  </outline>
</glyph>
<glyph name="B" format="2">
  <advance width="216.85616438356163"/>
  <unicode hex="0042"/>
  <anchor x="74.93607305936072" y="0.0" name="bottom"/>
  <anchor x="74.93607305936072" y="1456.0" name="top"/>
  <outline>
    <contour>
      <point x="50.0" y="0.0" type="line"/>
      <point x="50.0" y="1456.0" type="line"/>
      <point x="85.43835616438355" y="1456.0" type="line" smooth="yes"/>
      <point x="124.0684931506849" y="1456.0"/>
      <point x="172.54337899543378" y="1270.0"/>
      <point x="172.54337899543378" y="1070.0" type="qcurve" smooth="yes"/>
      <point x="172.54337899543378" y="950.0"/>
      <point x="118.07305936073061" y="788.0"/>
      <point x="41.41552511415523" y="768.0" type="qcurve"/>
      <point x="41.41552511415523" y="764.0" type="line"/>
      <point x="130.47031963470317" y="752.37899543379"/>
      <point x="184.35616438356163" y="545.0"/>
      <point x="184.35616438356163" y="420.0" type="qcurve" smooth="yes"/>
      <point x="184.35616438356163" y="220.0"/>
      <point x="188.0684931506849" y="0.0"/>
      <point x="115.43835616438355" y="0.0" type="qcurve" smooth="yes"/>
    </contour>
    <contour>
      <point x="57.0" y="7.0" type="line"/>
      <point x="115.43835616438355" y="7.0" type="line" smooth="yes"/>
      <point x="167.01826484018267" y="7.0"/>
      <point x="177.35616438356163" y="165.6255707762557"/>
      <point x="177.35616438356163" y="420.0" type="qcurve" smooth="yes"/>
      <point x="177.35616438356163" y="610.3744292237443"/>
      <point x="145.01826484018267" y="762.0"/>
      <point x="115.43835616438355" y="762.0" type="qcurve" smooth="yes"/>
      <point x="54.0" y="762.0" type="line"/>
      <point x="54.0" y="769.0" type="line"/>
      <point x="136.55707762557077" y="769.0" type="line" smooth="yes"/>
      <point x="137.13698630136986" y="769.0"/>
      <point x="165.54337899543378" y="889.0730593607306"/>
      <point x="165.54337899543378" y="1070.0" type="qcurve" smooth="yes"/>
      <point x="165.54337899543378" y="1310.9269406392693"/>
      <point x="126.29223744292239" y="1449.0"/>
      <point x="106.55707762557077" y="1449.0" type="qcurve" smooth="yes"/>
      <point x="57.0" y="1449.0" type="line"/>
    </contour>
  </outline>
</glyph>
<glyph name="C" format="2">
  <advance width="225.2568493150685"/>
  <unicode hex="0043"/>
  <anchor x="109.884703196347" y="0.0" name="bottom"/>
  <anchor x="119.884703196347" y="1456.0" name="top"/>
  <outline>
    <contour>
      <point x="36.25" y="682.0" type="qcurve" smooth="yes"/>
      <point x="36.25" y="774.9333333333333" type="line" smooth="yes"/>
      <point x="36.25" y="1086.2666666666667"/>
      <point x="11.359589041095887" y="1458.9333333333334"/>
      <point x="119.884703196347" y="1458.9333333333334" type="qcurve" smooth="yes"/>
      <point x="204.5148401826484" y="1458.9333333333334"/>
      <point x="195.91210045662103" y="1177.9333333333334"/>
      <point x="195.91210045662103" y="972.9333333333333" type="qcurve" smooth="yes"/>
      <point x="195.91210045662103" y="962.9333333333333" type="line"/>
      <point x="188.91210045662103" y="962.9333333333333" type="line"/>
      <point x="188.91210045662103" y="972.9333333333333" type="line" smooth="yes"/>
      <point x="188.91210045662103" y="1174.9333333333334"/>
      <point x="154.208904109589" y="1451.9333333333334"/>
      <point x="119.884703196347" y="1451.9333333333334" type="qcurve" smooth="yes"/>
      <point x="75.33675799086757" y="1451.9333333333334"/>
      <point x="44.25" y="1084.2666666666667"/>
      <point x="44.25" y="774.9333333333333" type="qcurve" smooth="yes"/>
      <point x="44.25" y="682.0" type="line" smooth="yes"/>
      <point x="44.25" y="371.6666666666667"/>
      <point x="81.33675799086757" y="5.0"/>
      <point x="119.884703196347" y="5.0" type="qcurve" smooth="yes"/>
      <point x="152.65639269406392" y="5.0"/>
      <point x="177.42808219178085" y="264.1552511415525"/>
      <point x="189.60159817351598" y="484.0" type="qcurve" smooth="yes"/>
      <point x="189.7568493150685" y="494.0" type="line"/>
      <point x="196.7568493150685" y="494.0" type="line"/>
      <point x="196.60159817351598" y="484.0" type="line" smooth="yes"/>
      <point x="193.4965753424658" y="278.1552511415525"/>
      <point x="201.5148401826484" y="-2.0"/>
      <point x="119.884703196347" y="-2.0" type="qcurve" smooth="yes"/>
      <point x="14.359589041095887" y="-2.0"/>
      <point x="36.25" y="372.6666666666667"/>
    </contour>
  </outline>
</glyph>
<glyph name="D" format="2">
  <advance width="232"/>
  <unicode hex="0044"/>
  <anchor x="131.60730593607306" y="0.0" name="bottom"/>
  <anchor x="37.105022831050235" y="728.0" name="center"/>
  <anchor x="128.60730593607306" y="1456.0" name="top"/>
  <outline>
    <contour>
      <point x="50" y="0" type="line"/>
      <point x="50" y="1456" type="line"/>
      <point x="103" y="1456" type="line" smooth="yes"/>
      <point x="165" y="1456"/>
      <point x="197" y="1241"/>
      <point x="197" y="774" type="qcurve" smooth="yes"/>
      <point x="197" y="682" type="line" smooth="yes"/>
      <point x="197" y="196"/>
      <point x="166" y="0"/>
      <point x="103" y="0" type="qcurve" smooth="yes"/>
    </contour>
    <contour>
      <point x="57" y="7" type="line"/>
      <point x="102" y="7" type="line" smooth="yes"/>
      <point x="157" y="7"/>
      <point x="190" y="200"/>
      <point x="190" y="670" type="qcurve" smooth="yes"/>
      <point x="190" y="786" type="line" smooth="yes"/>
      <point x="190" y="1238"/>
      <point x="157" y="1449"/>
      <point x="102" y="1449" type="qcurve" smooth="yes"/>
      <point x="57" y="1449" type="line"/>
    </contour>
  </outline>
</glyph>
<glyph name="E" format="2">
  <advance width="175"/>
  <unicode hex="0045"/>
  <anchor x="56.593607305936075" y="0.0" name="bottom"/>
  <anchor x="187.30593607305934" y="0.0" name="ogonek"/>
  <anchor x="56.593607305936075" y="1456.0" name="top"/>
  <anchor x="-215.5753424657534" y="1074.0" name="tonos"/>
  <outline>
    <contour>
      <point x="50.0" y="0.0" type="line"/>
      <point x="50.0" y="1456.0" type="line"/>
      <point x="145.3744292237443" y="1456.0" type="line"/>
      <point x="145.3744292237443" y="1449.0" type="line"/>
      <point x="57.0" y="1449.0" type="line"/>
      <point x="57.0" y="7.0" type="line"/>
      <point x="150.30593607305934" y="7.0" type="line"/>
      <point x="150.30593607305934" y="0.0" type="line"/>
    </contour>
    <contour>
      <point x="54.0" y="750.0" type="line"/>
      <point x="54.0" y="757.0" type="line"/>
      <point x="127" y="757" type="line"/>
      <point x="127" y="750" type="line"/>
    </contour>
  </outline>
</glyph>
<glyph name="F" format="2">
  <advance width="93.28767123287673"/>
  <unicode hex="0046"/>
  <anchor x="-59.57990867579909" y="0.0" name="bottom"/>
  <anchor x="-24.57990867579909" y="1457.0" name="top"/>
  <outline>
    <contour>
      <point x="50.0" y="0.0" type="line"/>
      <point x="50.0" y="1456.0" type="line"/>
      <point x="71.28767123287673" y="1456.0" type="line"/>
      <point x="71.28767123287673" y="1449.0" type="line"/>
      <point x="57.0" y="1449.0" type="line"/>
      <point x="57.0" y="0.0" type="line"/>
    </contour>
    <contour>
      <point x="54.0" y="721.0" type="line"/>
      <point x="54.0" y="728.0" type="line"/>
      <point x="69.26484018264841" y="728.0" type="line"/>
      <point x="69.26484018264841" y="721.0" type="line"/>
    </contour>
  </outline>
</glyph>
<glyph name="G" format="2">
  <advance width="236.90410958904113"/>
  <unicode hex="0047"/>
  <anchor x="127.74771689497715" y="0.0" name="bottom"/>
  <anchor x="119.74771689497715" y="1456.0" name="top"/>
  <outline>
    <contour>
      <point x="36.25" y="710.0" type="qcurve" smooth="yes"/>
      <point x="36.25" y="746.0" type="line" smooth="yes"/>
      <point x="36.25" y="1087.3333333333333"/>
      <point x="15.893835616438366" y="1458.0"/>
      <point x="120.90296803652967" y="1458.0" type="qcurve" smooth="yes"/>
      <point x="201.5148401826484" y="1458.0"/>
      <point x="210.64817351598174" y="1190.8447488584475"/>
      <point x="198.9988584474886" y="1012.0" type="qcurve" smooth="yes"/>
      <point x="197.15410958904113" y="1002.0" type="line"/>
      <point x="191.15410958904113" y="1002.0" type="line"/>
      <point x="191.15410958904113" y="1012.0" type="line" smooth="yes"/>
      <point x="191.15410958904113" y="1186.0"/>
      <point x="154.89840182648402" y="1451.0"/>
      <point x="118.90296803652967" y="1451.0" type="qcurve" smooth="yes"/>
      <point x="73.4920091324201" y="1451.0"/>
      <point x="43.25" y="1074.0"/>
      <point x="43.25" y="746.0" type="qcurve" smooth="yes"/>
      <point x="43.25" y="710.0" type="line" smooth="yes"/>
      <point x="43.25" y="382.0"/>
      <point x="73.95776255707761" y="5.0"/>
      <point x="124.38698630136986" y="5.0" type="qcurve" smooth="yes"/>
      <point x="147.37785388127855" y="5.0"/>
      <point x="178.97602739726028" y="117.1552511415525"/>
      <point x="190.15410958904113" y="191.0" type="qcurve"/>
      <point x="190.15410958904113" y="749.0" type="line"/>
      <point x="117.90296803652967" y="749.0" type="line"/>
      <point x="117.90296803652967" y="755.0666666666667" type="line"/>
      <point x="197.15410958904113" y="755.0666666666667" type="line"/>
      <point x="197.15410958904113" y="188.0" type="line"/>
      <point x="183.21803652968038" y="118.0"/>
      <point x="146.53310502283102" y="-2.0"/>
      <point x="137.90296803652967" y="-2.0" type="qcurve" smooth="yes"/>
      <point x="13.825342465753408" y="-2.0"/>
      <point x="36.25" y="364.6666666666667"/>
    </contour>
  </outline>
</glyph>
<glyph name="H" format="2">
  <advance width="253.29680365296804"/>
  <unicode hex="0048"/>
  <anchor x="126.64840182648402" y="0.0" name="bottom"/>
  <anchor x="125.80365296803654" y="1100.0" name="center"/>
  <anchor x="126.64840182648402" y="1456.0" name="top"/>
  <anchor x="200.29680365296804" y="0.0" name="cy_descender"/>
  <anchor x="-123.57534246575342" y="1074.0" name="tonos"/>
  <outline>
    <contour>
      <point x="50.0" y="0.0" type="line"/>
      <point x="50.0" y="1456.0" type="line"/>
      <point x="57.0" y="1456.0" type="line"/>
      <point x="57.0" y="0.0" type="line"/>
    </contour>
    <contour>
      <point x="42.93150684931507" y="756.0" type="line"/>
      <point x="42.93150684931507" y="763.0" type="line"/>
      <point x="191.91780821917803" y="763.0" type="line"/>
      <point x="191.91780821917803" y="756.0" type="line"/>
    </contour>
    <contour>
      <point x="196.29680365296804" y="0.0" type="line"/>
      <point x="196.29680365296804" y="1456.0" type="line"/>
      <point x="203.29680365296804" y="1456.0" type="line"/>
      <point x="203.29680365296804" y="0.0" type="line"/>
    </contour>
  </outline>
</glyph>
<glyph name="J" format="2">
  <advance width="182.5570776255708"/>
  <unicode hex="004A"/>
  <anchor x="20.119863013698648" y="0.0" name="bottom"/>
  <anchor x="128.08333333333331" y="1456.0" name="top"/>
  <outline>
    <contour>
      <point x="13.75" y="428.0" type="qcurve" smooth="yes"/>
      <point x="13.75" y="438.0" type="line"/>
      <point x="20.75" y="438.0" type="line"/>
      <point x="20.75" y="428.0" type="line" smooth="yes"/>
      <point x="20.75" y="233.0"/>
      <point x="42.70890410958904" y="5.0"/>
      <point x="75.0285388127854" y="5.0" type="qcurve" smooth="yes"/>
      <point x="108.34817351598173" y="5.0"/>
      <point x="130.15182648401827" y="248.0"/>
      <point x="129.3070776255708" y="453.0" type="qcurve" smooth="yes"/>
      <point x="129.3070776255708" y="1456.0" type="line"/>
      <point x="136.3070776255708" y="1456.0" type="line"/>
      <point x="136.3070776255708" y="453.0" type="line" smooth="yes"/>
      <point x="136.3070776255708" y="243.0"/>
      <point x="147.5171232876712" y="-2.0"/>
      <point x="75.0285388127854" y="-2.0" type="qcurve" smooth="yes"/>
      <point x="5.918949771689483" y="-2.0"/>
      <point x="13.75" y="229.0"/>
    </contour>
  </outline>
</glyph>
<glyph name="K" format="2">
  <advance width="235"/>
  <unicode hex="004B"/>
  <anchor x="94" y="0.0" name="bottom"/>
  <anchor x="94" y="1456.0" name="top"/>
  <outline>
    <contour>
      <point x="50" y="0" type="line"/>
      <point x="50" y="1456" type="line"/>
      <point x="57" y="1456" type="line"/>
      <point x="57" y="0" type="line"/>
    </contour>
    <contour>
      <point x="208" y="0" type="line"/>
      <point x="100" y="874" type="line"/>
      <point x="105" y="901" type="line"/>
      <point x="215" y="0" type="line"/>
    </contour>
    <contour>
      <point x="54" y="561" type="line"/>
      <point x="54" y="605" type="line"/>
      <point x="190" y="1456" type="line"/>
      <point x="197" y="1456" type="line"/>
    </contour>
  </outline>
</glyph>
<glyph name="L" format="2">
  <advance width="145.42009132420088"/>
  <unicode hex="004C"/>
  <anchor x="46.43835616438355" y="0.0" name="bottom"/>
  <anchor x="119.80365296803654" y="728.0" name="center"/>
  <anchor x="-147.54337899543378" y="1456.0" name="top"/>
  <anchor x="5.424657534246592" y="1052.0" name="topright"/>
  <outline>
    <contour>
      <point x="50.0" y="0.0" type="line"/>
      <point x="50.0" y="1456.0" type="line"/>
      <point x="57.0" y="1456.0" type="line"/>
      <point x="57.0" y="7.0" type="line"/>
      <point x="124.42009132420088" y="7.0" type="line"/>
      <point x="124.42009132420088" y="0.0" type="line"/>
    </contour>
  </outline>
</glyph>
<glyph name="M" format="2">
  <advance width="262"/>
  <unicode hex="004D"/>
  <anchor x="130.44748858447485" y="0.0" name="bottom"/>
  <anchor x="130.44748858447485" y="1456.0" name="top"/>
  <outline>
    <contour>
      <point x="50" y="0" type="line"/>
      <point x="50" y="1456" type="line"/>
      <point x="65" y="1456" type="line"/>
      <point x="133" y="21" type="line" smooth="yes"/>
      <point x="133" y="18"/>
      <point x="133" y="10"/>
      <point x="133" y="7" type="qcurve"/>
      <point x="134" y="7" type="line"/>
      <point x="134" y="10"/>
      <point x="134" y="18"/>
      <point x="134" y="21" type="qcurve" smooth="yes"/>
      <point x="189" y="1456" type="line"/>
      <point x="204" y="1456" type="line"/>
      <point x="211" y="0" type="line"/>
      <point x="204" y="0" type="line"/>
      <point x="197" y="1428" type="line" smooth="yes"/>
      <point x="197" y="1431"/>
      <point x="196" y="1449"/>
      <point x="196" y="1453" type="qcurve"/>
      <point x="196" y="1453" type="line"/>
      <point x="196" y="1449"/>
      <point x="195" y="1431"/>
      <point x="195" y="1428" type="qcurve" smooth="yes"/>
      <point x="140" y="0" type="line"/>
      <point x="127" y="0" type="line"/>
      <point x="59" y="1428" type="line"/>
      <point x="59" y="1433"/>
      <point x="58" y="1442"/>
      <point x="57" y="1451" type="qcurve"/>
      <point x="57" y="1451" type="line"/>
      <point x="57" y="1442"/>
      <point x="57" y="1433"/>
      <point x="57" y="1428" type="qcurve"/>
      <point x="57" y="0" type="line"/>
    </contour>
  </outline>
</glyph>
<glyph name="N" format="2">
  <advance width="204.98630136986299"/>
  <unicode hex="004E"/>
  <anchor x="117.71689497716892" y="0.0" name="bottom"/>
  <anchor x="117.71689497716892" y="1456.0" name="top"/>
  <anchor x="180.98630136986299" y="0.0" name="engtail"/>
  <outline>
    <contour>
      <point x="50.0" y="0.0" type="line"/>
      <point x="50.0" y="1456.0" type="line"/>
      <point x="66.0" y="1456.0" type="line"/>
      <point x="143.89497716894982" y="122.0" type="line" smooth="yes"/>
      <point x="142.84474885844747" y="84.93150684931507"/>
      <point x="140.1232876712329" y="32.0"/>
      <point x="142.83105022831046" y="7.0" type="qcurve"/>
      <point x="147.98630136986299" y="7.0" type="line"/>
      <point x="147.98630136986299" y="37.0"/>
      <point x="147.98630136986299" y="112.0"/>
      <point x="147.98630136986299" y="142.0" type="qcurve" smooth="yes"/>
      <point x="147.98630136986299" y="1456.0" type="line"/>
      <point x="154.98630136986299" y="1456.0" type="line"/>
      <point x="154.98630136986299" y="0.0" type="line"/>
      <point x="137.98630136986299" y="0.0" type="line"/>
      <point x="60.93607305936072" y="1334.0" type="line" smooth="yes"/>
      <point x="61.986301369863014" y="1371.0684931506848"/>
      <point x="63.01826484018264" y="1424.0"/>
      <point x="62.0" y="1449.0" type="qcurve"/>
      <point x="55.0" y="1449.0" type="line"/>
      <point x="56.0" y="1419.0"/>
      <point x="57.0" y="1344.0"/>
      <point x="57.0" y="1314.0" type="qcurve" smooth="yes"/>
      <point x="57.0" y="0.0" type="line"/>
    </contour>
  </outline>
</glyph>
<glyph name="O" format="2">
  <advance width="242.56392694063925"/>
  <unicode hex="004F"/>
  <anchor x="121.28196347031962" y="0.0" name="bottom"/>
  <anchor x="121.28196347031962" y="728.0" name="center"/>
  <anchor x="173.96232876712327" y="0.0" name="ogonek"/>
  <anchor x="121.28196347031962" y="1456.0" name="top"/>
  <anchor x="179.72031963470317" y="1456.0" name="topright"/>
  <anchor x="-91.04223744292237" y="1074.0" name="tonos"/>
  <anchor x="-36.62214611872146" y="750.0" name="yu_dash"/>
  <outline>
    <contour>
      <point x="36.25" y="701.6" type="qcurve" smooth="yes"/>
      <point x="36.25" y="753.4666666666667" type="line" smooth="yes"/>
      <point x="36.25" y="1085.7333333333333"/>
      <point x="23.20433789954339" y="1458.0"/>
      <point x="121.28196347031962" y="1458.0" type="qcurve" smooth="yes"/>
      <point x="219.3595890410959" y="1458.0"/>
      <point x="206.31392694063925" y="1085.7333333333333"/>
      <point x="206.31392694063925" y="753.4666666666667" type="qcurve" smooth="yes"/>
      <point x="206.31392694063925" y="701.6" type="line" smooth="yes"/>
      <point x="206.31392694063925" y="369.3333333333333"/>
      <point x="219.3595890410959" y="-2.0"/>
      <point x="121.28196347031962" y="-2.0" type="qcurve" smooth="yes"/>
      <point x="23.20433789954339" y="-2.0"/>
      <point x="36.25" y="369.3333333333333"/>
    </contour>
    <contour>
      <point x="43.25" y="706.2666666666667" type="line" smooth="yes"/>
      <point x="43.25" y="379.06666666666666"/>
      <point x="85.18150684931507" y="5.0"/>
      <point x="121.28196347031962" y="5.0" type="qcurve" smooth="yes"/>
      <point x="156.53767123287673" y="5.0"/>
      <point x="199.31392694063925" y="379.06666666666666"/>
      <point x="199.31392694063925" y="706.2666666666667" type="qcurve" smooth="yes"/>
      <point x="199.31392694063925" y="747.8666666666667" type="line" smooth="yes"/>
      <point x="199.31392694063925" y="1078.9333333333334"/>
      <point x="156.53767123287673" y="1451.0"/>
      <point x="121.28196347031962" y="1451.0" type="qcurve" smooth="yes"/>
      <point x="85.18150684931507" y="1451.0"/>
      <point x="43.25" y="1078.9333333333334"/>
      <point x="43.25" y="747.8666666666667" type="qcurve" smooth="yes"/>
    </contour>
  </outline>
</glyph>
<glyph name="P" format="2">
  <advance width="210"/>
  <unicode hex="0050"/>
  <anchor x="100.70776255707761" y="0.0" name="bottom"/>
  <anchor x="100.70776255707761" y="1456.0" name="top"/>
  <outline>
    <contour>
      <point x="50.0" y="0.0" type="line"/>
      <point x="50.0" y="1456.0" type="line"/>
      <point x="114.69406392694063" y="1456.0" type="line" smooth="yes"/>
      <point x="156" y="1456"/>
      <point x="182" y="1316"/>
      <point x="181.87214611872145" y="1015.0" type="qcurve" smooth="yes"/>
      <point x="182" y="713"/>
      <point x="154" y="570"/>
      <point x="114.69406392694063" y="570.0" type="qcurve" smooth="yes"/>
      <point x="53.0" y="570.0" type="line"/>
      <point x="53.0" y="577.0" type="line"/>
      <point x="112.15981735159818" y="577.0" type="line" smooth="yes"/>
      <point x="148.0" y="577.0"/>
      <point x="175" y="717"/>
      <point x="174.87214611872145" y="1015.0" type="qcurve" smooth="yes"/>
      <point x="175" y="1314"/>
      <point x="149.0" y="1449.0"/>
      <point x="112.15981735159818" y="1449.0" type="qcurve" smooth="yes"/>
      <point x="57.0" y="1449.0" type="line"/>
      <point x="57.0" y="0.0" type="line"/>
    </contour>
  </outline>
</glyph>
<glyph name="Q" format="2">
  <advance width="242.56392694063925"/>
  <unicode hex="0051"/>
  <anchor x="121.28196347031962" y="0.0" name="bottom"/>
  <anchor x="121.28196347031962" y="1456.0" name="top"/>
  <outline>
    <contour>
      <point x="36.25" y="710.0" type="qcurve" smooth="yes"/>
      <point x="36.25" y="746.0" type="line" smooth="yes"/>
      <point x="36.25" y="1115.7899543378996"/>
      <point x="45.167808219178085" y="1458.0"/>
      <point x="121.28196347031962" y="1458.0" type="qcurve" smooth="yes"/>
      <point x="197.39611872146116" y="1458.0"/>
      <point x="206.31392694063925" y="1115.7899543378996"/>
      <point x="206.31392694063925" y="746.0" type="qcurve" smooth="yes"/>
      <point x="206.31392694063925" y="710.0" type="line" smooth="yes"/>
      <point x="206.31392694063925" y="331.76255707762556"/>
      <point x="196.5513698630137" y="-2.0"/>
      <point x="121.28196347031962" y="-2.0" type="qcurve" smooth="yes"/>
      <point x="46.01255707762556" y="-2.0"/>
      <point x="36.25" y="331.76255707762556"/>
    </contour>
    <contour>
      <point x="42.40525114155251" y="710.0" type="line" smooth="yes"/>
      <point x="42.40525114155251" y="177.26027397260273"/>
      <point x="81.80251141552512" y="5.0"/>
      <point x="120.43721461187215" y="5.0" type="qcurve" smooth="yes"/>
      <point x="159.07191780821915" y="5.0"/>
      <point x="198.46917808219177" y="177.26027397260273"/>
      <point x="198.46917808219177" y="710.0" type="qcurve" smooth="yes"/>
      <point x="198.46917808219177" y="746.0" type="line" smooth="yes"/>
      <point x="198.46917808219177" y="1280.7397260273972"/>
      <point x="159.91666666666669" y="1451.0"/>
      <point x="120.43721461187215" y="1451.0" type="qcurve" smooth="yes"/>
      <point x="80.95776255707761" y="1451.0"/>
      <point x="42.40525114155251" y="1280.7397260273972"/>
      <point x="42.40525114155251" y="746.0" type="qcurve" smooth="yes"/>
    </contour>
    <contour>
      <point x="199.4965753424658" y="-89.76712328767123" type="line"/>
      <point x="139.7568493150685" y="-7.0" type="line"/>
      <point x="143.7568493150685" y="-2.0" type="line"/>
      <point x="203.4965753424658" y="-84.76712328767123" type="line"/>
    </contour>
  </outline>
</glyph>
<glyph name="R" format="2">
  <advance width="217"/>
  <unicode hex="0052"/>
  <anchor x="144.7292694063927" y="0.0" name="bottom"/>
  <anchor x="144.7292694063927" y="1456.0" name="top"/>
  <outline>
    <contour>
      <point x="60.089999999999996" y="0.0" type="line"/>
      <point x="60.089999999999996" y="1456.0" type="line"/>
      <point x="123.54205479452054" y="1456.0" type="line" smooth="yes"/>
      <point x="148" y="1456"/>
      <point x="189" y="1338"/>
      <point x="189.16762557077627" y="1028.0" type="qcurve" smooth="yes"/>
      <point x="189" y="718"/>
      <point x="149" y="594"/>
      <point x="123.54205479452054" y="594.0" type="qcurve" smooth="yes"/>
      <point x="64.09" y="594.0" type="line"/>
      <point x="64.09" y="601.0" type="line"/>
      <point x="123.54205479452054" y="601.0" type="line" smooth="yes"/>
      <point x="144" y="601"/>
      <point x="182" y="722"/>
      <point x="182.16762557077627" y="1028.0" type="qcurve" smooth="yes"/>
      <point x="182" y="1332"/>
      <point x="143" y="1449"/>
      <point x="123.54205479452054" y="1449.0" type="qcurve" smooth="yes"/>
      <point x="67.09" y="1449.0" type="line"/>
      <point x="67.09" y="0.0" type="line"/>
    </contour>
    <contour>
      <point x="191.7064383561644" y="0.0" type="line"/>
      <point x="120" y="598" type="line"/>
      <point x="126" y="599" type="line"/>
      <point x="199.7064383561644" y="0.0" type="line"/>
    </contour>
  </outline>
</glyph>
<glyph name="S" format="2">
  <advance width="201"/>
  <unicode hex="0053"/>
  <anchor x="105.52511415525112" y="0.0" name="bottom"/>
  <anchor x="95.52511415525112" y="1456.0" name="top"/>
  <outline>
    <contour>
      <point x="30" y="367" type="qcurve" smooth="yes"/>
      <point x="30.0" y="438.0" type="line"/>
      <point x="37.0" y="438.0" type="line"/>
      <point x="37.0" y="366.8675799086758" type="line" smooth="yes"/>
      <point x="37.0" y="143.07762557077626"/>
      <point x="68.85844748858446" y="5.0"/>
      <point x="102.14611872146116" y="5.0" type="qcurve" smooth="yes"/>
      <point x="136.4337899543379" y="5.0"/>
      <point x="166" y="123"/>
      <point x="166" y="315" type="qcurve" smooth="yes"/>
      <point x="166" y="560"/>
      <point x="122" y="729"/>
      <point x="89" y="787" type="qcurve"/>
      <point x="58" y="840"/>
      <point x="26" y="971"/>
      <point x="26" y="1154" type="qcurve" smooth="yes"/>
      <point x="26" y="1325"/>
      <point x="57" y="1458"/>
      <point x="92.9908675799087" y="1458.0" type="qcurve" smooth="yes"/>
      <point x="131" y="1458"/>
      <point x="160" y="1328"/>
      <point x="162" y="1095" type="qcurve" smooth="yes"/>
      <point x="162" y="1024" type="line"/>
      <point x="155" y="1024" type="line"/>
      <point x="155" y="1095" type="line" smooth="yes"/>
      <point x="155" y="1323"/>
      <point x="126.34703196347033" y="1451.0"/>
      <point x="92.9908675799087" y="1451.0" type="qcurve" smooth="yes"/>
      <point x="60.63470319634703" y="1451.0"/>
      <point x="33" y="1319"/>
      <point x="33" y="1154" type="qcurve" smooth="yes"/>
      <point x="33" y="979"/>
      <point x="63" y="845"/>
      <point x="95" y="790" type="qcurve"/>
      <point x="127" y="733"/>
      <point x="173" y="563"/>
      <point x="173" y="315" type="qcurve" smooth="yes"/>
      <point x="173" y="123"/>
      <point x="140" y="-2"/>
      <point x="103.83561643835617" y="-2.0" type="qcurve" smooth="yes"/>
      <point x="64" y="-2"/>
      <point x="30" y="137"/>
    </contour>
  </outline>
</glyph>
<glyph name="T" format="2">
  <advance width="167.2648401826484"/>
  <unicode hex="0054"/>
  <anchor x="87.70091324200911" y="0.0" name="bottom"/>
  <anchor x="87.70091324200911" y="728.0" name="center"/>
  <anchor x="87.70091324200911" y="1456.0" name="top"/>
  <anchor x="82.6324200913242" y="0.0" name="cy_descender"/>
  <outline>
    <contour>
      <point x="79.6324200913242" y="0.0" type="line"/>
      <point x="79.6324200913242" y="1453.0" type="line"/>
      <point x="86.6324200913242" y="1453.0" type="line"/>
      <point x="86.6324200913242" y="0.0" type="line"/>
    </contour>
    <contour>
      <point x="13.5" y="1449.0" type="line"/>
      <point x="13.5" y="1456.0" type="line"/>
      <point x="153.7648401826484" y="1456.0" type="line"/>
      <point x="153.7648401826484" y="1449.0" type="line"/>
    </contour>
  </outline>
</glyph>
<glyph name="U" format="2">
  <advance width="236"/>
  <unicode hex="0055"/>
  <anchor x="117.93036529680364" y="0.0" name="bottom"/>
  <anchor x="164.98972602739724" y="0.0" name="ogonek"/>
  <anchor x="117.93036529680364" y="1456.0" name="top"/>
  <anchor x="183.92123287671234" y="1456.0" name="topright"/>
  <outline>
    <contour>
      <point x="46" y="344" type="qcurve" smooth="yes"/>
      <point x="46" y="1456" type="line"/>
      <point x="53" y="1456" type="line"/>
      <point x="53" y="364" type="line" smooth="yes"/>
      <point x="53" y="96"/>
      <point x="86" y="5"/>
      <point x="118" y="5" type="qcurve" smooth="yes"/>
      <point x="152" y="5"/>
      <point x="183" y="92"/>
      <point x="183" y="364" type="qcurve" smooth="yes"/>
      <point x="183" y="1456" type="line"/>
      <point x="190" y="1456" type="line"/>
      <point x="190" y="344" type="line" smooth="yes"/>
      <point x="190" y="80"/>
      <point x="154" y="-2"/>
      <point x="119" y="-2" type="qcurve" smooth="yes"/>
      <point x="84" y="-2"/>
      <point x="46" y="82"/>
    </contour>
  </outline>
</glyph>
<glyph name="V" format="2">
  <advance width="129.10045662100458"/>
  <unicode hex="0056"/>
  <anchor x="67.92922374429224" y="0.0" name="bottom"/>
  <anchor x="67.92922374429224" y="1456.0" name="top"/>
  <outline>
    <contour>
      <point x="7.5" y="1456.0" type="line"/>
      <point x="11.121004566210045" y="1456.0" type="line"/>
      <point x="55.80593607305934" y="135.41552511415526" type="line" smooth="yes"/>
      <point x="54.66894977168948" y="99.72602739726028"/>
      <point x="67.99771689497715" y="5.123287671232877"/>
      <point x="66.39497716894977" y="-27.410958904109588" type="qcurve"/>
      <point x="66.23972602739724" y="-27.410958904109588" type="line"/>
      <point x="63.63698630136986" y="6.123287671232877"/>
      <point x="75.12100456621005" y="95.72602739726028"/>
      <point x="75.98401826484019" y="135.41552511415526" type="qcurve" smooth="yes"/>
      <point x="117.97945205479448" y="1456.0" type="line"/>
      <point x="121.60045662100458" y="1456.0" type="line"/>
      <point x="66.39497716894977" y="-10.0" type="line"/>
      <point x="64.39497716894977" y="-10.0" type="line"/>
    </contour>
  </outline>
</glyph>
<glyph name="W" format="2">
  <advance width="595.0502283105022"/>
  <unicode hex="0057"/>
  <anchor x="296.5251141552511" y="0.0" name="bottom"/>
  <anchor x="296.5251141552511" y="1456.0" name="top"/>
  <outline>
    <contour>
      <point x="154.41552511415526" y="-10.0" type="line"/>
      <point x="20.0" y="1456.0" type="line"/>
      <point x="27.0" y="1456.0" type="line"/>
      <point x="141.32876712328766" y="106.0" type="line" smooth="yes"/>
      <point x="142.57077625570776" y="70.31050228310502"/>
      <point x="146.50228310502283" y="31.0"/>
      <point x="151.81278538812785" y="-2.0" type="qcurve"/>
      <point x="161.81278538812785" y="-2.0" type="line"/>
      <point x="166.4337899543379" y="32.0"/>
      <point x="171.52054794520546" y="71.15525114155251"/>
      <point x="172.91780821917808" y="106.0" type="qcurve" smooth="yes"/>
      <point x="290.5251141552511" y="1456.0" type="line"/>
      <point x="302.5251141552511" y="1456.0" type="line"/>
      <point x="423.84018264840176" y="105.0" type="line" smooth="yes"/>
      <point x="425.2374429223744" y="70.15525114155251"/>
      <point x="430.32420091324195" y="30.0"/>
      <point x="434.94520547945206" y="-3.0" type="qcurve"/>
      <point x="443.94520547945206" y="-3.0" type="line"/>
      <point x="448.41095890410963" y="30.0"/>
      <point x="452.4977168949772" y="69.31050228310502"/>
      <point x="454.58447488584477" y="105.0" type="qcurve" smooth="yes"/>
      <point x="568.0502283105022" y="1456.0" type="line"/>
      <point x="575.0502283105022" y="1456.0" type="line"/>
      <point x="451.634703196347" y="-10.0" type="line"/>
      <point x="431.634703196347" y="-10.0" type="line"/>
      <point x="310.4063926940639" y="1321.0" type="line" smooth="yes"/>
      <point x="309.0091324200913" y="1355.8447488584475"/>
      <point x="303.14611872146116" y="1416.0"/>
      <point x="300.5251141552511" y="1449.0" type="qcurve"/>
      <point x="292.5251141552511" y="1449.0" type="line"/>
      <point x="289.90410958904107" y="1416.0"/>
      <point x="285.04109589041093" y="1355.8447488584475"/>
      <point x="283.64383561643837" y="1321.0" type="qcurve" smooth="yes"/>
      <point x="174.41552511415526" y="-10.0" type="line"/>
    </contour>
  </outline>
</glyph>
<glyph name="X" format="2">
  <advance width="100.72831050228308"/>
  <unicode hex="0058"/>
  <anchor x="52.39840182648402" y="0.0" name="bottom"/>
  <anchor x="52.39840182648402" y="1456.0" name="top"/>
  <anchor x="221.97831050228308" y="0.0" name="cy_descender"/>
  <outline>
    <contour>
      <point x="13.75" y="0.0" type="line"/>
      <point x="67.86415525114154" y="806.0" type="line"/>
      <point x="67.86415525114154" y="806.0" type="line"/>
      <point x="80.09703196347027" y="1456.0" type="line"/>
      <point x="88.09703196347027" y="1456.0" type="line"/>
      <point x="13.86415525114154" y="670.0" type="line"/>
      <point x="13.86415525114154" y="670.0" type="line"/>
      <point x="21.75" y="0.0" type="line"/>
    </contour>
    <contour>
      <point x="11.631278538812786" y="1456.0" type="line"/>
      <point x="19.631278538812786" y="1456.0" type="line"/>
      <point x="31.86415525114154" y="806.0" type="line"/>
      <point x="31.86415525114154" y="806.0" type="line"/>
      <point x="86.97831050228308" y="0.0" type="line"/>
      <point x="78.97831050228308" y="0.0" type="line"/>
      <point x="85.86415525114154" y="670.0" type="line"/>
      <point x="85.86415525114154" y="670.0" type="line"/>
    </contour>
  </outline>
</glyph>
<glyph name="Y" format="2">
  <advance width="149.0068493150685"/>
  <unicode hex="0059"/>
  <anchor x="76.3824200913242" y="0.0" name="bottom"/>
  <anchor x="76.3824200913242" y="1456.0" name="top"/>
  <anchor x="-295.25228310502285" y="1074.0" name="tonos"/>
  <outline>
    <contour>
      <point x="69.84817351598173" y="0.0" type="line"/>
      <point x="69.84817351598173" y="544.0" type="line"/>
      <point x="11.25" y="1456.0" type="line"/>
      <point x="18.25" y="1456.0" type="line"/>
      <point x="123.77511415525112" y="561.0" type="line" smooth="yes"/>
      <point x="107.2591324200913" y="556.62100456621"/>
      <point x="78.14041095890411" y="561.0"/>
      <point x="70.84817351598173" y="551.0" type="qcurve"/>
      <point x="76.84817351598173" y="551.0" type="line"/>
      <point x="68.55593607305934" y="561.0"/>
      <point x="39.43721461187215" y="554.62100456621"/>
      <point x="24.765981735159812" y="561.0" type="qcurve" smooth="yes"/>
      <point x="130.7568493150685" y="1456.0" type="line"/>
      <point x="137.7568493150685" y="1456.0" type="line"/>
      <point x="76.84817351598173" y="544.0" type="line"/>
      <point x="76.84817351598173" y="0.0" type="line"/>
    </contour>
  </outline>
</glyph>
<glyph name="Z" format="2">
  <advance width="58.49429223744289"/>
  <unicode hex="005A"/>
  <anchor x="19.46689497716892" y="0.0" name="bottom"/>
  <anchor x="19.46689497716892" y="1456.0" name="top"/>
  <outline>
    <contour>
      <point x="-71.25" y="0.0" type="line"/>
      <point x="-71.25" y="5.0" type="line"/>
      <point x="140.64497716894982" y="1449.0" type="line"/>
      <point x="141.75" y="1449.0" type="line"/>
      <point x="141.75" y="1456.0" type="line"/>
      <point x="105.47602739726028" y="1456.0" type="line"/>
      <point x="105.47602739726028" y="1449.0" type="line"/>
      <point x="-103.4189497716895" y="7.0" type="line"/>
      <point x="34.49429223744289" y="7.0" type="line"/>
      <point x="34.49429223744289" y="0.0" type="line"/>
    </contour>
  </outline>
</glyph>
<glyph name="backslash" format="2">
  <advance width="215.26940639269407"/>
  <unicode hex="005C"/>
  <outline>
    <contour>
      <point x="84.47488584474885" y="1456.0" type="line"/>
      <point x="92.47488584474885" y="1456.0" type="line"/>
      <point x="315.26940639269407" y="-125.0" type="line"/>
      <point x="307.26940639269407" y="-125.0" type="line"/>
    </contour>
  </outline>
</glyph>
<glyph name="bracketright" format="2">
  <advance width="162.41552511415523"/>
  <unicode hex="005D"/>
  <outline>
    <contour>
      <point x="118.91552511415526" y="-310.0" type="line"/>
      <point x="27.5" y="-310.0" type="line"/>
      <point x="27.5" y="-303.0" type="line"/>
      <point x="111.91552511415526" y="-303.0" type="line"/>
      <point x="111.91552511415526" y="1449.0" type="line"/>
      <point x="27.5" y="1449.0" type="line"/>
      <point x="27.5" y="1456.0" type="line"/>
      <point x="118.91552511415526" y="1456.0" type="line"/>
    </contour>
  </outline>
</glyph>
<glyph name="asciicircum" format="2">
  <advance width="354.69634703196346"/>
  <unicode hex="005E"/>
  <outline>
    <contour>
      <point x="13.75" y="720.0" type="line"/>
      <point x="175.34817351598173" y="1456.0" type="line"/>
      <point x="183.34817351598173" y="1456.0" type="line"/>
      <point x="340.94634703196346" y="720.0" type="line"/>
      <point x="352.9098173515981" y="720.0" type="line"/>
      <point x="179.34817351598173" y="1447.0" type="line"/>
      <point x="0.7865296803652981" y="720.0" type="line"/>
    </contour>
  </outline>
</glyph>
<glyph name="a" format="2">
  <advance width="215.39954337899542"/>
  <unicode hex="0061"/>
  <anchor x="34.14155251141551" y="0.0" name="bottom"/>
  <anchor x="181.89954337899542" y="0.0" name="ogonek"/>
  <anchor x="97.14155251141551" y="916.0" name="top"/>
  <outline>
    <contour>
      <point x="50.79452054794521" y="-1.3333333333333321" type="qcurve" smooth="yes"/>
      <point x="-3.041826484018273" y="-1.3333333333333321"/>
      <point x="30.0" y="133.0"/>
      <point x="30.0" y="276.0" type="qcurve" smooth="yes"/>
      <point x="30.0" y="413.56"/>
      <point x="4.007671232876703" y="573.2"/>
      <point x="130.36073059360731" y="573.2" type="qcurve" smooth="yes"/>
      <point x="139.89954337899542" y="573.2" type="line"/>
      <point x="139.89954337899542" y="566.2" type="line"/>
      <point x="130.36073059360731" y="566.2" type="line" smooth="yes"/>
      <point x="36.53315068493149" y="566.2"/>
      <point x="37.0" y="413.68"/>
      <point x="37.0" y="276.0" type="qcurve" smooth="yes"/>
      <point x="37.0" y="136.96"/>
      <point x="61.59561643835617" y="5.666666666666668"/>
      <point x="80.36073059360731" y="5.666666666666668" type="qcurve" smooth="yes"/>
      <point x="98.92584474885844" y="5.666666666666668"/>
      <point x="136.89954337899542" y="104.4"/>
      <point x="136.89954337899542" y="193.4" type="qcurve"/>
      <point x="136.89954337899542" y="617.7899543378995" type="line" smooth="yes"/>
      <point x="139.4242922374429" y="820.7899543378995"/>
      <point x="118.30593607305934" y="911.0"/>
      <point x="90.3835616438356" y="911.0" type="qcurve" smooth="yes"/>
      <point x="82.14593607305937" y="911.0"/>
      <point x="43.09132420091325" y="880.8849315068494"/>
      <point x="43.09132420091325" y="718.6849315068494" type="qcurve" smooth="yes"/>
      <point x="43.09132420091325" y="663.0" type="line"/>
      <point x="47.073059360730596" y="663.0" type="line"/>
      <point x="47.073059360730596" y="718.6849315068494" type="line" smooth="yes"/>
      <point x="47.073059360730596" y="881.2049315068493"/>
      <point x="64.2794520547945" y="918.0"/>
      <point x="93.07305936073058" y="918.0" type="qcurve" smooth="yes"/>
      <point x="132.66666666666669" y="918.0"/>
      <point x="143.89954337899542" y="856.9771689497717"/>
      <point x="143.89954337899542" y="626.2374429223744" type="qcurve" smooth="yes"/>
      <point x="143.89954337899542" y="240.0" type="line" smooth="yes"/>
      <point x="143.89954337899542" y="152.0"/>
      <point x="160.89954337899542" y="62.0"/>
      <point x="181.89954337899542" y="11.0" type="qcurve"/>
      <point x="181.89954337899542" y="0.0" type="line"/>
      <point x="180.89954337899542" y="0.0" type="line"/>
      <point x="170.27853881278537" y="25.0"/>
      <point x="161.6392694063927" y="56.00456621004566"/>
      <point x="153.26027397260276" y="120.00456621004565" type="qcurve"/>
      <point x="162.91324200913243" y="50.694063926940636"/>
      <point x="73.45662100456622" y="-1.3333333333333321"/>
    </contour>
  </outline>
</glyph>
<glyph name="b" format="2">
  <advance width="199.68835616438355"/>
  <unicode hex="0062"/>
  <anchor x="106.77397260273972" y="0.0" name="bottom"/>
  <anchor x="83.77397260273972" y="1536.0" name="top"/>
  <outline>
    <contour>
      <point x="44.5" y="0.0" type="line"/>
      <point x="44.5" y="1536.0" type="line"/>
      <point x="51.5" y="1536.0" type="line"/>
      <point x="51.5" y="91.31506849315068" type="line"/>
      <point x="51.5" y="91.31506849315068" type="line"/>
      <point x="51.5" y="0.0" type="line"/>
    </contour>
    <contour>
      <point x="117.33105022831049" y="-13.0" type="qcurve" smooth="yes"/>
      <point x="105.33945205479453" y="-13.0"/>
      <point x="163.93835616438355" y="227.72"/>
      <point x="163.93835616438355" y="438.0" type="qcurve" smooth="yes"/>
      <point x="163.93835616438355" y="482.0" type="line" smooth="yes"/>
      <point x="163.93835616438355" y="709.28"/>
      <point x="110.33945205479453" y="929.0"/>
      <point x="115.64155251141551" y="929.0" type="qcurve" smooth="yes"/>
      <point x="65.43917808219177" y="929.0"/>
      <point x="51.5" y="668.72"/>
      <point x="51.5" y="491.0" type="qcurve" smooth="yes"/>
      <point x="51.5" y="453.0" type="line" smooth="yes"/>
      <point x="51.5" y="247.16"/>
      <point x="65.03917808219177" y="-13.0"/>
    </contour>
    <contour>
      <point x="120.24429223744292" y="-20.0" type="qcurve" smooth="yes"/>
      <point x="69.83917808219178" y="-20.0"/>
      <point x="44.5" y="253.04"/>
      <point x="44.5" y="452.0" type="qcurve" smooth="yes"/>
      <point x="44.5" y="486.0" type="line" smooth="yes"/>
      <point x="44.5" y="658.3572602739727"/>
      <point x="81.9429223744292" y="936.0"/>
      <point x="121.24429223744292" y="936.0" type="qcurve" smooth="yes"/>
      <point x="158.32940639269407" y="936.0"/>
      <point x="170.93835616438355" y="709.24"/>
      <point x="170.93835616438355" y="474.0" type="qcurve" smooth="yes"/>
      <point x="170.93835616438355" y="442.0" type="line" smooth="yes"/>
      <point x="170.93835616438355" y="226.76"/>
      <point x="153.32940639269407" y="-20.0"/>
    </contour>
  </outline>
</glyph>
<glyph name="c" format="2">
  <advance width="174.7648401826484"/>
  <unicode hex="0063"/>
  <anchor x="82.3755707762557" y="0.0" name="bottom"/>
  <anchor x="98.3755707762557" y="916.0" name="top"/>
  <outline>
    <contour>
      <point x="28.75" y="391.3150684931507" type="qcurve" smooth="yes"/>
      <point x="28.75" y="524.6849315068494" type="line" smooth="yes"/>
      <point x="28.75" y="780.4423744292237"/>
      <point x="32.85319634703196" y="918.0"/>
      <point x="98.53082191780823" y="918.0" type="qcurve" smooth="yes"/>
      <point x="127.50269406392691" y="918.0"/>
      <point x="150.0148401826484" y="821.619908675799"/>
      <point x="150.0148401826484" y="690.6748858447488" type="qcurve" smooth="yes"/>
      <point x="150.0148401826484" y="601.2" type="line"/>
      <point x="143.0148401826484" y="601.2" type="line"/>
      <point x="143.0148401826484" y="690.6748858447488" type="line" smooth="yes"/>
      <point x="143.0148401826484" y="827.3548858447489"/>
      <point x="112.51146118721462" y="911.0"/>
      <point x="98.53082191780823" y="911.0" type="qcurve" smooth="yes"/>
      <point x="69.01465753424658" y="911.0"/>
      <point x="35.75" y="857.5897716894978"/>
      <point x="35.75" y="474.0" type="qcurve" smooth="yes"/>
      <point x="35.75" y="442.0" type="line" smooth="yes"/>
      <point x="35.75" y="49.96273972602741"/>
      <point x="70.85940639269407" y="5.0"/>
      <point x="98.53082191780823" y="5.0" type="qcurve" smooth="yes"/>
      <point x="111.66671232876709" y="5.0"/>
      <point x="143.0148401826484" y="70.75013698630136"/>
      <point x="143.0148401826484" y="208.43013698630136" type="qcurve" smooth="yes"/>
      <point x="143.0148401826484" y="314.8" type="line"/>
      <point x="150.0148401826484" y="314.8" type="line"/>
      <point x="150.0148401826484" y="225.32511415525113" type="line" smooth="yes"/>
      <point x="150.0148401826484" y="84.93260273972604"/>
      <point x="129.19219178082193" y="-2.0"/>
      <point x="97.53082191780823" y="-2.0" type="qcurve" smooth="yes"/>
      <point x="30.318949771689482" y="-2.0"/>
      <point x="28.75" y="169.34757990867578"/>
    </contour>
  </outline>
</glyph>
<glyph name="d" format="2">
  <advance width="201"/>
  <unicode hex="0064"/>
  <anchor x="106.2203196347032" y="0.0" name="bottom"/>
  <anchor x="235.66324200913243" y="1313.0" name="center"/>
  <anchor x="66.2203196347032" y="1536.0" name="top"/>
  <anchor x="168.05593607305934" y="1052.0" name="topright"/>
  <outline>
    <contour>
      <point x="149" y="1536" type="line"/>
      <point x="156" y="1536" type="line"/>
      <point x="156" y="0" type="line"/>
      <point x="149" y="0" type="line"/>
      <point x="149" y="241" type="line"/>
      <point x="149" y="241" type="line"/>
    </contour>
    <contour>
      <point x="92" y="910" type="qcurve" smooth="yes"/>
      <point x="57" y="910"/>
      <point x="35" y="777"/>
      <point x="35" y="482" type="qcurve" smooth="yes"/>
      <point x="35" y="438" type="line" smooth="yes"/>
      <point x="35" y="116"/>
      <point x="72" y="5"/>
      <point x="93" y="5" type="qcurve" smooth="yes"/>
      <point x="115" y="5"/>
      <point x="149" y="109"/>
      <point x="149" y="353" type="qcurve" smooth="yes"/>
      <point x="149" y="591" type="line" smooth="yes"/>
      <point x="149" y="806"/>
      <point x="113" y="910"/>
    </contour>
    <contour>
      <point x="91" y="918" type="qcurve" smooth="yes"/>
      <point x="121" y="917"/>
      <point x="152" y="813"/>
      <point x="152" y="586" type="qcurve" smooth="yes"/>
      <point x="152" y="352" type="line" smooth="yes"/>
      <point x="152" y="107"/>
      <point x="122" y="-2"/>
      <point x="92" y="-2" type="qcurve"/>
      <point x="69" y="-2"/>
      <point x="28" y="112"/>
      <point x="28" y="357" type="qcurve" smooth="yes"/>
      <point x="28" y="558" type="line" smooth="yes"/>
      <point x="28" y="792"/>
      <point x="55" y="918"/>
    </contour>
  </outline>
</glyph>
<glyph name="e" format="2">
  <advance width="193.3595890410959"/>
  <unicode hex="0065"/>
  <anchor x="86.48059360730593" y="0.0" name="bottom"/>
  <anchor x="122.45319634703196" y="0.0" name="ogonek"/>
  <anchor x="99.82305936073058" y="916.0" name="top"/>
  <outline>
    <contour>
      <point x="27.75" y="357.5251141552511" type="qcurve" smooth="yes"/>
      <point x="27.75" y="558.4748858447489" type="line" smooth="yes"/>
      <point x="27.75" y="781.2451141552511"/>
      <point x="45.30817351598173" y="918.0"/>
      <point x="91.82305936073058" y="918.0" type="qcurve" smooth="yes"/>
      <point x="122.29794520547944" y="918.0"/>
      <point x="148.8595890410959" y="834.126392694064"/>
      <point x="151.8595890410959" y="672.4748858447489" type="qcurve" smooth="yes"/>
      <point x="151.8595890410959" y="485.0" type="line"/>
      <point x="-3.300228310502291" y="485.0" type="line"/>
      <point x="-3.300228310502291" y="492.0" type="line"/>
      <point x="142.3253424657534" y="492.0" type="line"/>
      <point x="142.3253424657534" y="650.427397260274" type="line" smooth="yes"/>
      <point x="142.3253424657534" y="826.8823744292238"/>
      <point x="126.71894977168948" y="911.0"/>
      <point x="82.53082191780823" y="911.0" type="qcurve" smooth="yes"/>
      <point x="62.906164383561645" y="911.0"/>
      <point x="34.75" y="832.894794520548"/>
      <point x="34.75" y="474.0" type="qcurve" smooth="yes"/>
      <point x="34.75" y="442.0" type="line" smooth="yes"/>
      <point x="34.75" y="69.65771689497717"/>
      <point x="65.06817351598173" y="5.0"/>
      <point x="75.63584474885843" y="5.0" type="qcurve" smooth="yes"/>
      <point x="113.60844748858449" y="5.0"/>
      <point x="118.4988584474886" y="110.21004566210047"/>
      <point x="107.48515981735159" y="270.0" type="qcurve"/>
      <point x="148.96461187214612" y="268.0" type="line"/>
      <point x="154.75456621004565" y="137.0"/>
      <point x="132.34817351598173" y="-2.0"/>
      <point x="76.48059360730593" y="-2.0" type="qcurve" smooth="yes"/>
      <point x="65.6024200913242" y="-2.0"/>
      <point x="27.75" y="124.3758904109589"/>
    </contour>
  </outline>
</glyph>
<glyph name="f" format="2">
  <advance width="162"/>
  <unicode hex="0066"/>
  <anchor x="111.56735159817352" y="0.0" name="bottom"/>
  <anchor x="121.5673515981735" y="1536.0" name="top"/>
  <outline>
    <contour>
      <point x="74" y="0" type="line"/>
      <point x="74" y="1317" type="line" smooth="yes"/>
      <point x="74" y="1505"/>
      <point x="95" y="1556"/>
      <point x="119" y="1556" type="qcurve" smooth="yes"/>
      <point x="131" y="1556"/>
      <point x="159" y="1547"/>
      <point x="166" y="1540" type="qcurve"/>
      <point x="163" y="1534" type="line"/>
      <point x="154" y="1542"/>
      <point x="133" y="1549"/>
      <point x="120" y="1549" type="qcurve" smooth="yes"/>
      <point x="102" y="1549"/>
      <point x="81" y="1502"/>
      <point x="81" y="1317" type="qcurve" smooth="yes"/>
      <point x="81" y="915" type="line"/>
      <point x="81" y="913" type="line"/>
      <point x="81" y="0" type="line"/>
    </contour>
    <contour>
      <point x="13" y="909" type="line"/>
      <point x="13" y="916" type="line"/>
      <point x="71" y="916" type="line"/>
      <point x="73" y="916" type="line"/>
      <point x="147" y="916" type="line"/>
      <point x="147" y="909" type="line"/>
    </contour>
  </outline>
</glyph>
<glyph name="g" format="2">
  <advance width="200"/>
  <unicode hex="0067"/>
  <anchor x="88.99657534246575" y="-416.0" name="bottom"/>
  <anchor x="75.99657534246575" y="916.0" name="top"/>
  <outline>
    <contour>
      <point x="96" y="-436" type="qcurve" smooth="yes"/>
      <point x="68" y="-436"/>
      <point x="40" y="-351"/>
      <point x="40" y="-146" type="qcurve"/>
      <point x="46" y="-144" type="line"/>
      <point x="46" y="-349"/>
      <point x="73" y="-429"/>
      <point x="96" y="-429" type="qcurve" smooth="yes"/>
      <point x="121" y="-429"/>
      <point x="148" y="-319"/>
      <point x="148" y="-50" type="qcurve" smooth="yes"/>
      <point x="148" y="779" type="line"/>
      <point x="148" y="779" type="line"/>
      <point x="148" y="916" type="line"/>
      <point x="155" y="916" type="line"/>
      <point x="155" y="-64" type="line" smooth="yes"/>
      <point x="155" y="-321"/>
      <point x="127" y="-436"/>
    </contour>
    <contour>
      <point x="93" y="5" type="qcurve" smooth="yes"/>
      <point x="118" y="5"/>
      <point x="149" y="109"/>
      <point x="149" y="353" type="qcurve" smooth="yes"/>
      <point x="149" y="591" type="line" smooth="yes"/>
      <point x="149" y="806"/>
      <point x="113" y="910"/>
      <point x="92" y="910" type="qcurve" smooth="yes"/>
      <point x="57" y="910"/>
      <point x="35" y="777"/>
      <point x="35" y="482" type="qcurve" smooth="yes"/>
      <point x="35" y="438" type="line" smooth="yes"/>
      <point x="35" y="86"/>
      <point x="66" y="5"/>
    </contour>
    <contour>
      <point x="92" y="-2" type="qcurve"/>
      <point x="63" y="-2"/>
      <point x="28" y="82"/>
      <point x="28" y="357" type="qcurve" smooth="yes"/>
      <point x="28" y="558" type="line" smooth="yes"/>
      <point x="28" y="792"/>
      <point x="55" y="919"/>
      <point x="91" y="918" type="qcurve" smooth="yes"/>
      <point x="119" y="917"/>
      <point x="152" y="813"/>
      <point x="152" y="586" type="qcurve" smooth="yes"/>
      <point x="152" y="352" type="line" smooth="yes"/>
      <point x="152" y="107"/>
      <point x="124" y="-2"/>
    </contour>
  </outline>
</glyph>
<glyph name="h" format="2">
  <advance width="200.36301369863014"/>
  <unicode hex="0068"/>
  <anchor x="100.6552511415525" y="0.0" name="bottom"/>
  <anchor x="-3.184931506849324" y="1327.0" name="center"/>
  <anchor x="49.5" y="1536.0" name="top"/>
  <anchor x="154.36301369863014" y="0.0" name="engtail"/>
  <outline>
    <contour>
      <point x="51.5" y="0.0" type="line"/>
      <point x="44.5" y="0.0" type="line"/>
      <point x="44.5" y="1536.0" type="line"/>
      <point x="49.5" y="1536.0" type="line"/>
    </contour>
    <contour>
      <point x="48.5" y="758.1552511415525" type="line"/>
      <point x="74.24429223744292" y="861.3607305936073"/>
      <point x="131.80593607305937" y="935.1552511415525"/>
      <point x="169.12100456621005" y="936.0" type="qcurve" smooth="yes"/>
      <point x="211.8835616438356" y="936.8447488584475"/>
      <point x="158.36301369863014" y="793.0"/>
      <point x="158.36301369863014" y="570.0" type="qcurve" smooth="yes"/>
      <point x="158.36301369863014" y="0.0" type="line"/>
      <point x="151.36301369863014" y="0.0" type="line"/>
      <point x="151.36301369863014" y="571.0" type="line" smooth="yes"/>
      <point x="151.36301369863014" y="864.027397260274"/>
      <point x="149.90639269406392" y="929.0"/>
      <point x="146.31278538812785" y="929.0" type="qcurve" smooth="yes"/>
      <point x="134.0296803652968" y="929.0"/>
      <point x="62.417808219178085" y="873.1004566210046"/>
      <point x="48.5" y="747.4657534246576" type="qcurve"/>
    </contour>
  </outline>
</glyph>
<glyph name="k" format="2">
  <advance width="320.7260273972603"/>
  <unicode hex="006B"/>
  <anchor x="204.96118721461187" y="0.0" name="bottom"/>
  <anchor x="204.96118721461187" y="1536.0" name="top"/>
  <outline>
    <contour>
      <point x="44.5" y="0.0" type="line"/>
      <point x="44.5" y="1536.0" type="line"/>
      <point x="51.5" y="1536.0" type="line"/>
      <point x="51.5" y="0.0" type="line"/>
    </contour>
    <contour>
      <point x="295.9860273972603" y="0.0" type="line"/>
      <point x="56.315159817351585" y="541.2750684931507" type="line"/>
      <point x="50.036438356164396" y="623.4421917808219" type="line"/>
      <point x="317.2260273972603" y="0.0" type="line"/>
    </contour>
    <contour>
      <point x="49.5" y="471.28" type="line"/>
      <point x="49.5" y="464.64" type="line"/>
      <point x="179.10547945205482" y="916.0" type="line"/>
      <point x="201.70547945205482" y="916.0" type="line"/>
    </contour>
  </outline>
</glyph>
<glyph name="l" format="2">
  <advance width="100.0"/>
  <unicode hex="006C"/>
  <anchor x="49.5" y="0.0" name="bottom"/>
  <anchor x="49.5" y="791.0" name="center"/>
  <anchor x="49.5" y="1536.0" name="top"/>
  <anchor x="183.3675799086758" y="1052.0" name="topright"/>
  <anchor x="49.5" y="471.96" name="yu_dash"/>
  <outline>
    <contour>
      <point x="46.5" y="0.0" type="line"/>
      <point x="46.5" y="1536.0" type="line"/>
      <point x="53.5" y="1536.0" type="line"/>
      <point x="53.5" y="0.0" type="line"/>
    </contour>
  </outline>
</glyph>
<glyph name="m" format="2">
  <advance width="287"/>
  <unicode hex="006D"/>
  <anchor x="153" y="0.0" name="bottom"/>
  <anchor x="153" y="916.0" name="top"/>
  <outline>
    <contour>
      <point x="44" y="0" type="line"/>
      <point x="44" y="916" type="line"/>
      <point x="51" y="916" type="line"/>
      <point x="51" y="851" type="line"/>
      <point x="51" y="0" type="line"/>
    </contour>
    <contour>
      <point x="148" y="854" type="qcurve" smooth="yes"/>
      <point x="148" y="0" type="line"/>
      <point x="141" y="0" type="line"/>
      <point x="141" y="846" type="line" smooth="yes"/>
      <point x="141" y="879"/>
      <point x="122" y="910"/>
      <point x="105" y="910" type="qcurve" smooth="yes"/>
      <point x="85" y="910"/>
      <point x="60" y="880"/>
      <point x="48" y="835" type="qcurve"/>
      <point x="48" y="850" type="line"/>
      <point x="57" y="885"/>
      <point x="82" y="917"/>
      <point x="106" y="917" type="qcurve" smooth="yes"/>
      <point x="125" y="917"/>
      <point x="148" y="883"/>
    </contour>
    <contour>
      <point x="145" y="850" type="line"/>
      <point x="154" y="885"/>
      <point x="179" y="917"/>
      <point x="203" y="917" type="qcurve" smooth="yes"/>
      <point x="222" y="917"/>
      <point x="245" y="883"/>
      <point x="245" y="854" type="qcurve" smooth="yes"/>
      <point x="245" y="0" type="line"/>
      <point x="238" y="0" type="line"/>
      <point x="238" y="846" type="line" smooth="yes"/>
      <point x="238" y="879"/>
      <point x="219" y="910"/>
      <point x="202" y="910" type="qcurve" smooth="yes"/>
      <point x="182" y="910"/>
      <point x="157" y="880"/>
      <point x="145" y="835" type="qcurve"/>
    </contour>
  </outline>
</glyph>
<glyph name="n" format="2">
  <advance width="200"/>
  <unicode hex="006E"/>
  <anchor x="124.87899543378995" y="0.0" name="bottom"/>
  <anchor x="132.87899543378995" y="916.0" name="top"/>
  <anchor x="154.36301369863014" y="0.0" name="engtail"/>
  <outline>
    <contour>
      <point x="44" y="0" type="line"/>
      <point x="44" y="916" type="line"/>
      <point x="51" y="916" type="line"/>
      <point x="51" y="851" type="line"/>
      <point x="51" y="0" type="line"/>
    </contour>
    <contour>
      <point x="48" y="835" type="qcurve"/>
      <point x="48" y="850" type="line"/>
      <point x="57" y="885"/>
      <point x="87" y="917"/>
      <point x="111" y="917" type="qcurve" smooth="yes"/>
      <point x="130" y="917"/>
      <point x="158" y="883"/>
      <point x="158" y="854" type="qcurve" smooth="yes"/>
      <point x="158" y="0" type="line"/>
      <point x="151" y="0" type="line"/>
      <point x="151" y="846" type="line" smooth="yes"/>
      <point x="151" y="879"/>
      <point x="127" y="910"/>
      <point x="110" y="910" type="qcurve" smooth="yes"/>
      <point x="90" y="910"/>
      <point x="60" y="880"/>
    </contour>
  </outline>
</glyph>
<glyph name="o" format="2">
  <advance width="190.16666666666669"/>
  <unicode hex="006F"/>
  <anchor x="95.08333333333334" y="0.0" name="bottom"/>
  <anchor x="95.08333333333334" y="458.0" name="center"/>
  <anchor x="135.74543378995435" y="28.0" name="ogonek"/>
  <anchor x="95.08333333333334" y="916.0" name="top"/>
  <anchor x="139.27968036529683" y="916.0" name="topright"/>
  <anchor x="35.47" y="470.03999999999996" name="yu_dash"/>
  <outline>
    <contour>
      <point x="28.75" y="382.8675799086758" type="qcurve" smooth="yes"/>
      <point x="28.75" y="533.1324200913242" type="line" smooth="yes"/>
      <point x="28.75" y="777.099908675799"/>
      <point x="37.850456621004554" y="918.0"/>
      <point x="95.08333333333334" y="918.0" type="qcurve" smooth="yes"/>
      <point x="152.3162100456621" y="918.0"/>
      <point x="161.41666666666669" y="777.099908675799"/>
      <point x="161.41666666666669" y="533.1324200913242" type="qcurve" smooth="yes"/>
      <point x="161.41666666666669" y="382.8675799086758" type="line" smooth="yes"/>
      <point x="161.41666666666669" y="138.9000913242009"/>
      <point x="151.47146118721463" y="-2.0"/>
      <point x="95.08333333333334" y="-2.0" type="qcurve" smooth="yes"/>
      <point x="38.695205479452056" y="-2.0"/>
      <point x="28.75" y="138.9000913242009"/>
    </contour>
    <contour>
      <point x="34.90525114155251" y="474.0" type="qcurve" smooth="yes"/>
      <point x="34.90525114155251" y="442.0" type="line" smooth="yes"/>
      <point x="34.90525114155251" y="34.41022831050229"/>
      <point x="71.78817351598173" y="5.0"/>
      <point x="95.08333333333334" y="5.0" type="qcurve" smooth="yes"/>
      <point x="118.3784931506849" y="5.0"/>
      <point x="155.26141552511416" y="34.41022831050229"/>
      <point x="155.26141552511416" y="442.0" type="qcurve" smooth="yes"/>
      <point x="155.26141552511416" y="474.0" type="line" smooth="yes"/>
      <point x="155.26141552511416" y="873.1422831050228"/>
      <point x="118.3784931506849" y="911.0"/>
      <point x="95.08333333333334" y="911.0" type="qcurve" smooth="yes"/>
      <point x="71.78817351598173" y="911.0"/>
      <point x="34.90525114155251" y="873.1422831050228"/>
    </contour>
  </outline>
</glyph>
<glyph name="p" format="2">
  <advance width="199.68835616438355"/>
  <unicode hex="0070"/>
  <anchor x="2.385844748858432" y="0.0" name="bottom"/>
  <anchor x="2.385844748858432" y="916.0" name="top"/>
  <outline>
    <contour>
      <point x="44.5" y="-416.0" type="line"/>
      <point x="44.5" y="916.0" type="line"/>
      <point x="51.5" y="916.0" type="line"/>
      <point x="51.5" y="829.6849315068494" type="line"/>
      <point x="51.5" y="829.6849315068494" type="line"/>
      <point x="51.5" y="-416.0" type="line"/>
    </contour>
    <contour>
      <point x="117.33105022831049" y="-13.0" type="qcurve" smooth="yes"/>
      <point x="105.33945205479453" y="-13.0"/>
      <point x="163.93835616438355" y="227.72"/>
      <point x="163.93835616438355" y="438.0" type="qcurve" smooth="yes"/>
      <point x="163.93835616438355" y="482.0" type="line" smooth="yes"/>
      <point x="163.93835616438355" y="702.48"/>
      <point x="110.33945205479453" y="929.0"/>
      <point x="115.64155251141551" y="929.0" type="qcurve" smooth="yes"/>
      <point x="65.43917808219177" y="929.0"/>
      <point x="51.5" y="661.92"/>
      <point x="51.5" y="486.0" type="qcurve" smooth="yes"/>
      <point x="51.5" y="453.0" type="line" smooth="yes"/>
      <point x="51.5" y="247.16"/>
      <point x="65.03917808219177" y="-13.0"/>
    </contour>
    <contour>
      <point x="120.24429223744292" y="-20.0" type="qcurve" smooth="yes"/>
      <point x="69.83917808219178" y="-20.0"/>
      <point x="44.5" y="253.04"/>
      <point x="44.5" y="452.0" type="qcurve" smooth="yes"/>
      <point x="44.5" y="486.0" type="line" smooth="yes"/>
      <point x="44.5" y="665.28"/>
      <point x="74.31917808219177" y="936.0"/>
      <point x="121.24429223744292" y="936.0" type="qcurve" smooth="yes"/>
      <point x="158.32940639269407" y="936.0"/>
      <point x="170.93835616438355" y="702.44"/>
      <point x="170.93835616438355" y="474.0" type="qcurve" smooth="yes"/>
      <point x="170.93835616438355" y="442.0" type="line" smooth="yes"/>
      <point x="170.93835616438355" y="226.76"/>
      <point x="153.32940639269407" y="-20.0"/>
    </contour>
  </outline>
</glyph>
<glyph name="q" format="2">
  <advance width="196.68835616438355"/>
  <unicode hex="0071"/>
  <anchor x="77.99657534246575" y="0.0" name="bottom"/>
  <anchor x="77.99657534246575" y="916.0" name="top"/>
  <outline>
    <contour>
      <point x="148.18835616438355" y="-416.0" type="line"/>
      <point x="148.18835616438355" y="542.6849315068494" type="line"/>
      <point x="148.18835616438355" y="542.6849315068494" type="line"/>
      <point x="148.18835616438355" y="916.0" type="line"/>
      <point x="155.18835616438355" y="916.0" type="line"/>
      <point x="155.18835616438355" y="-416.0" type="line"/>
    </contour>
    <contour>
      <point x="83.35730593607306" y="-13.0" type="qcurve" smooth="yes"/>
      <point x="119.02543378995435" y="-13.0"/>
      <point x="147.18835616438355" y="221.01150684931503"/>
      <point x="147.18835616438355" y="452.20547945205476" type="qcurve" smooth="yes"/>
      <point x="147.18835616438355" y="479.20547945205476" type="line" smooth="yes"/>
      <point x="147.18835616438355" y="640.971506849315"/>
      <point x="143.8729223744292" y="929.0"/>
      <point x="83.04680365296804" y="929.0" type="qcurve" smooth="yes"/>
      <point x="81.54890410958905" y="929.0"/>
      <point x="34.75" y="702.48"/>
      <point x="34.75" y="482.0" type="qcurve" smooth="yes"/>
      <point x="34.75" y="438.0" type="line" smooth="yes"/>
      <point x="34.75" y="234.51999999999998"/>
      <point x="86.54890410958905" y="-13.0"/>
    </contour>
    <contour>
      <point x="78.44406392694063" y="-20.0" type="qcurve" smooth="yes"/>
      <point x="38.558949771689484" y="-20.0"/>
      <point x="27.75" y="233.56"/>
      <point x="27.75" y="442.0" type="qcurve" smooth="yes"/>
      <point x="27.75" y="474.0" type="line" smooth="yes"/>
      <point x="27.75" y="702.44"/>
      <point x="33.558949771689484" y="936.0"/>
      <point x="77.44406392694063" y="936.0" type="qcurve" smooth="yes"/>
      <point x="131.94342465753425" y="936.0"/>
      <point x="154.18835616438355" y="646.34100456621"/>
      <point x="154.18835616438355" y="483.42922374429224" type="qcurve" smooth="yes"/>
      <point x="154.18835616438355" y="447.67123287671234" type="line" smooth="yes"/>
      <point x="154.18835616438355" y="211.4792694063927"/>
      <point x="111.17593607305935" y="-20.0"/>
    </contour>
  </outline>
</glyph>
<glyph name="r" format="2">
  <advance width="183.39954337899542"/>
  <unicode hex="0072"/>
  <anchor x="52.559360730593596" y="0.0" name="bottom"/>
  <anchor x="109.42237442922374" y="916.0" name="top"/>
  <outline>
    <contour>
      <point x="44.5" y="0.0" type="line"/>
      <point x="44.5" y="916.0" type="line"/>
      <point x="51.5" y="916.0" type="line"/>
      <point x="51.5" y="1048.3972602739727" type="line"/>
      <point x="51.5" y="-83.0" type="line"/>
    </contour>
    <contour>
      <point x="47.5" y="774.0" type="qcurve"/>
      <point x="47.5" y="785.0" type="line"/>
      <point x="63.62328767123287" y="864.0"/>
      <point x="96.9429223744292" y="918.0"/>
      <point x="134.0159817351598" y="918.0" type="qcurve" smooth="yes"/>
      <point x="145.87899543378995" y="918.0"/>
      <point x="158.15753424657532" y="911.0"/>
      <point x="168.39954337899542" y="904.0" type="qcurve"/>
      <point x="168.39954337899542" y="897.0" type="line"/>
      <point x="165.7602739726027" y="904.0"/>
      <point x="145.87899543378995" y="911.0"/>
      <point x="140.77397260273972" y="911.0" type="qcurve" smooth="yes"/>
      <point x="102.39041095890411" y="911.0"/>
      <point x="58.9337899543379" y="853.0"/>
    </contour>
  </outline>
</glyph>
<glyph name="s" format="2">
  <advance width="170"/>
  <unicode hex="0073"/>
  <anchor x="89.43150684931507" y="0.0" name="bottom"/>
  <anchor x="78.43150684931507" y="916.0" name="top"/>
  <outline>
    <contour>
      <point x="28" y="297" type="line"/>
      <point x="34" y="297" type="line"/>
      <point x="34" y="199" type="line" smooth="yes"/>
      <point x="34" y="64"/>
      <point x="60" y="5"/>
      <point x="84" y="5" type="qcurve" smooth="yes"/>
      <point x="108" y="5"/>
      <point x="136" y="65"/>
      <point x="136" y="203" type="qcurve" smooth="yes"/>
      <point x="136" y="318"/>
      <point x="98" y="452"/>
      <point x="72" y="516" type="qcurve" smooth="yes"/>
      <point x="46" y="580"/>
      <point x="29" y="651"/>
      <point x="29" y="732" type="qcurve" smooth="yes"/>
      <point x="29" y="857"/>
      <point x="54" y="918"/>
      <point x="78" y="918" type="qcurve" smooth="yes"/>
      <point x="102" y="918"/>
      <point x="128" y="855"/>
      <point x="129" y="742" type="qcurve" smooth="yes"/>
      <point x="129" y="631" type="line"/>
      <point x="122" y="631" type="line"/>
      <point x="122" y="742" type="line" smooth="yes"/>
      <point x="122" y="852"/>
      <point x="99" y="911"/>
      <point x="78" y="911" type="qcurve" smooth="yes"/>
      <point x="57" y="911"/>
      <point x="36" y="854"/>
      <point x="36" y="732" type="qcurve" smooth="yes"/>
      <point x="36" y="645"/>
      <point x="53" y="583"/>
      <point x="79" y="518" type="qcurve" smooth="yes"/>
      <point x="105" y="453"/>
      <point x="143" y="322"/>
      <point x="143" y="201" type="qcurve" smooth="yes"/>
      <point x="143" y="59"/>
      <point x="112" y="-2"/>
      <point x="84" y="-2" type="qcurve" smooth="yes"/>
      <point x="56" y="-2"/>
      <point x="28" y="60"/>
      <point x="28" y="199" type="qcurve" smooth="yes"/>
    </contour>
  </outline>
</glyph>
<glyph name="t" format="2">
  <advance width="187.85159817351598"/>
  <unicode hex="0074"/>
  <anchor x="111.68721461187215" y="0.0" name="bottom"/>
  <anchor x="39.68721461187215" y="551.0" name="center"/>
  <anchor x="39.68721461187215" y="1176.0" name="top"/>
  <anchor x="208.71917808219177" y="916.0" name="topright"/>
  <outline>
    <contour>
      <point x="7.5" y="909.0" type="line"/>
      <point x="7.5" y="916.0" type="line"/>
      <point x="167.85159817351598" y="916.0" type="line"/>
      <point x="167.85159817351598" y="909.0" type="line"/>
    </contour>
    <contour>
      <point x="70.4771689497717" y="260.0" type="qcurve" smooth="yes"/>
      <point x="70.4771689497717" y="913.0" type="line"/>
      <point x="70.4771689497717" y="915.0" type="line"/>
      <point x="70.4771689497717" y="1176.0" type="line"/>
      <point x="77.4771689497717" y="1176.0" type="line"/>
      <point x="77.4771689497717" y="260.0" type="line" smooth="yes"/>
      <point x="77.4771689497717" y="120.0"/>
      <point x="88.92922374429224" y="5.0"/>
      <point x="103.38127853881278" y="5.0" type="qcurve" smooth="yes"/>
      <point x="117.02054794520546" y="5.0"/>
      <point x="146.6095890410959" y="22.0"/>
      <point x="160.2488584474886" y="35.0" type="qcurve"/>
      <point x="160.2488584474886" y="28.0" type="line"/>
      <point x="153.67808219178082" y="16.0"/>
      <point x="131.00228310502283" y="-1.0"/>
      <point x="118.58675799086757" y="-2.0" type="qcurve" smooth="yes"/>
      <point x="72.2579908675799" y="-2.0"/>
      <point x="70.4771689497717" y="110.0"/>
    </contour>
  </outline>
</glyph>
<glyph name="u" format="2">
  <advance width="200"/>
  <unicode hex="0075"/>
  <anchor x="88.70776255707761" y="0.0" name="bottom"/>
  <anchor x="152.86301369863014" y="0.0" name="ogonek"/>
  <anchor x="95.70776255707761" y="916.0" name="top"/>
  <anchor x="145.9497716894977" y="916.0" name="topright"/>
  <anchor x="160.15525114155253" y="0.0" name="cy_descender"/>
  <outline>
    <contour>
      <point x="89" y="0" type="qcurve" smooth="yes"/>
      <point x="70" y="0"/>
      <point x="42" y="34"/>
      <point x="42" y="63" type="qcurve" smooth="yes"/>
      <point x="42" y="917" type="line"/>
      <point x="49" y="917" type="line"/>
      <point x="49" y="71" type="line" smooth="yes"/>
      <point x="49" y="38"/>
      <point x="73" y="7"/>
      <point x="90" y="7" type="qcurve" smooth="yes"/>
      <point x="110" y="7"/>
      <point x="140" y="37"/>
      <point x="152" y="82" type="qcurve"/>
      <point x="152" y="67" type="line"/>
      <point x="143" y="32"/>
      <point x="113" y="0"/>
    </contour>
    <contour>
      <point x="149" y="1" type="line"/>
      <point x="149" y="66" type="line"/>
      <point x="149" y="917" type="line"/>
      <point x="156" y="917" type="line"/>
      <point x="156" y="1" type="line"/>
    </contour>
  </outline>
</glyph>
<glyph name="v" format="2">
  <advance width="380.6255707762557"/>
  <unicode hex="0076"/>
  <anchor x="189.31278538812785" y="0.0" name="bottom"/>
  <anchor x="189.31278538812785" y="916.0" name="top"/>
  <outline>
    <contour>
      <point x="7.5" y="916.0" type="line"/>
      <point x="36.4634703196347" y="916.0" type="line"/>
      <point x="205.87899543378995" y="-27.0" type="line" smooth="yes"/>
      <point x="197.93726027397258" y="-27.329497716894977"/>
      <point x="188.6917808219178" y="-27.0"/>
      <point x="189.31278538812785" y="-27.0" type="qcurve"/>
      <point x="189.31278538812785" y="-27.0" type="line"/>
      <point x="189.9337899543379" y="-27.0"/>
      <point x="179.8435616438356" y="-27.329497716894977"/>
      <point x="171.90182648401827" y="-27.0" type="qcurve" smooth="yes"/>
      <point x="341.62785388127855" y="916.0" type="line"/>
      <point x="373.1255707762557" y="916.0" type="line"/>
      <point x="196.31278538812785" y="0.0" type="line"/>
      <point x="182.31278538812785" y="0.0" type="line"/>
    </contour>
  </outline>
</glyph>
<glyph name="w" format="2">
  <advance width="574.3310502283105"/>
  <unicode hex="0077"/>
  <anchor x="282.32077625570776" y="0.0" name="bottom"/>
  <anchor x="284.85502283105023" y="916.0" name="top"/>
  <outline>
    <contour>
      <point x="13.75" y="916.0" type="line"/>
      <point x="20.75" y="916.0" type="line"/>
      <point x="141.93721461187215" y="113.8" type="line" smooth="yes"/>
      <point x="146.68497716894976" y="74.31525114155251"/>
      <point x="151.3527397260274" y="19.799999999999997"/>
      <point x="156.59474885844747" y="-20.200000000000003" type="qcurve"/>
      <point x="162.59474885844747" y="-20.200000000000003" type="line"/>
      <point x="167.83675799086757" y="19.799999999999997"/>
      <point x="171.65977168949772" y="74.47050228310502"/>
      <point x="175.56278538812785" y="113.8" type="qcurve" smooth="yes"/>
      <point x="272.9417808219178" y="916.0" type="line"/>
      <point x="284.9417808219178" y="916.0" type="line"/>
      <point x="404.0970319634703" y="113.8" type="line" smooth="yes"/>
      <point x="408.155296803653" y="72.62575342465753"/>
      <point x="412.9783105022831" y="19.799999999999997"/>
      <point x="420.06506849315065" y="-20.200000000000003" type="qcurve"/>
      <point x="426.06506849315065" y="-20.200000000000003" type="line"/>
      <point x="430.30707762557074" y="19.799999999999997"/>
      <point x="432.1300913242009" y="73.63525114155252"/>
      <point x="437.72260273972597" y="113.8" type="qcurve" smooth="yes"/>
      <point x="545.1335616438356" y="916.0" type="line"/>
      <point x="560.5810502283105" y="916.0" type="line"/>
      <point x="423.1518264840182" y="0.0" type="line"/>
      <point x="411.1518264840182" y="0.0" type="line"/>
      <point x="303.68607305936075" y="772.2" type="line" smooth="yes"/>
      <point x="298.94780821917806" y="812.529497716895"/>
      <point x="292.4075342465753" y="892.2"/>
      <point x="287.85502283105023" y="932.2" type="qcurve"/>
      <point x="281.85502283105023" y="932.2" type="line"/>
      <point x="278.3025114155251" y="892.2"/>
      <point x="274.7622374429224" y="812.529497716895"/>
      <point x="270.17922374429224" y="772.2" type="qcurve" smooth="yes"/>
      <point x="182.64497716894977" y="0.0" type="line"/>
      <point x="168.64497716894977" y="0.0" type="line"/>
    </contour>
  </outline>
</glyph>
<glyph name="x" format="2">
  <advance width="352.986301369863"/>
  <unicode hex="0078"/>
  <anchor x="174.60502283105023" y="0.0" name="bottom"/>
  <anchor x="174.60502283105023" y="916.0" name="top"/>
  <anchor x="333.6415525114155" y="0.0" name="cy_descender"/>
  <outline>
    <contour>
      <point x="13.5" y="0.0" type="line"/>
      <point x="175.91552511415526" y="474.0" type="line"/>
      <point x="175.91552511415526" y="474.0" type="line"/>
      <point x="332.3812785388128" y="916.0" type="line"/>
      <point x="339.3812785388128" y="916.0" type="line"/>
      <point x="178.91552511415526" y="469.0" type="line"/>
      <point x="178.91552511415526" y="469.0" type="line"/>
      <point x="20.5" y="0.0" type="line"/>
    </contour>
    <contour>
      <point x="18.605022831050228" y="916.0" type="line"/>
      <point x="25.605022831050228" y="916.0" type="line"/>
      <point x="177.91552511415526" y="474.0" type="line"/>
      <point x="177.91552511415526" y="474.0" type="line"/>
      <point x="338.6415525114155" y="0.0" type="line"/>
      <point x="331.6415525114155" y="0.0" type="line"/>
      <point x="174.91552511415526" y="469.0" type="line"/>
      <point x="174.91552511415526" y="469.0" type="line"/>
    </contour>
  </outline>
</glyph>
<glyph name="y" format="2">
  <advance width="298.40410958904107"/>
  <unicode hex="0079"/>
  <anchor x="346.01369863013696" y="0.0" name="bottom"/>
  <anchor x="147.2283105022831" y="916.0" name="top"/>
  <outline>
    <contour>
      <point x="-83.78995433789954" y="-416.0" type="qcurve"/>
      <point x="-83.78995433789954" y="-408.0" type="line"/>
      <point x="-56.150684931506845" y="-421.0"/>
      <point x="-44.78538812785388" y="-428.0"/>
      <point x="-35.68036529680366" y="-428.0" type="qcurve" smooth="yes"/>
      <point x="6.305936073059371" y="-428.0"/>
      <point x="55.86301369863014" y="-293.0"/>
      <point x="146.60730593607306" y="42.0" type="qcurve"/>
      <point x="145.60730593607306" y="41.15525114155251" type="line"/>
      <point x="19.292237442922374" y="916.0" type="line"/>
      <point x="26.292237442922374" y="916.0" type="line"/>
      <point x="171.55251141552512" y="35.80000000000001" type="line" smooth="yes"/>
      <point x="163.29077625570775" y="37.16"/>
      <point x="148.8310502283105" y="31.799999999999997"/>
      <point x="144.07305936073058" y="21.799999999999997" type="qcurve"/>
      <point x="150.91780821917808" y="21.799999999999997" type="line"/>
      <point x="144.31506849315068" y="31.799999999999997"/>
      <point x="128.69059360730594" y="37.16"/>
      <point x="121.59360730593608" y="35.80000000000001" type="qcurve" smooth="yes"/>
      <point x="283.90410958904107" y="916.0" type="line"/>
      <point x="290.90410958904107" y="916.0" type="line"/>
      <point x="173.0365296803653" y="42.0" type="line" smooth="yes"/>
      <point x="80.6379908675799" y="-277.28"/>
      <point x="27.132420091324207" y="-436.0"/>
      <point x="-22.474885844748854" y="-436.0" type="qcurve" smooth="yes"/>
      <point x="-35.49315068493151" y="-436.0"/>
      <point x="-56.616438356164394" y="-428.0"/>
    </contour>
  </outline>
</glyph>
<glyph name="z" format="2">
  <advance width="274.67808219178085"/>
  <unicode hex="007A"/>
  <anchor x="124.52054794520546" y="0.0" name="bottom"/>
  <anchor x="124.52054794520546" y="916.0" name="top"/>
  <outline>
    <contour>
      <point x="-77.0" y="0.0" type="line"/>
      <point x="-77.0" y="7.0" type="line"/>
      <point x="337.54977168949773" y="909.0" type="line"/>
      <point x="-39.0" y="909.0" type="line"/>
      <point x="-39.0" y="916.0" type="line"/>
      <point x="321.17808219178085" y="916.0" type="line"/>
      <point x="321.17808219178085" y="909.0" type="line"/>
      <point x="-83.924200913242" y="7.0" type="line"/>
      <point x="339.17808219178085" y="7.0" type="line"/>
      <point x="339.17808219178085" y="0.0" type="line"/>
    </contour>
  </outline>
</glyph>
<glyph name="braceleft" format="2">
  <advance width="173"/>
  <unicode hex="007B"/>
  <outline>
    <contour>
      <point x="157.90639269406392" y="-312.0" type="line"/>
      <point x="79" y="-307"/>
      <point x="32" y="-145"/>
      <point x="68" y="123" type="qcurve" smooth="yes"/>
      <point x="96" y="334" type="line" smooth="yes"/>
      <point x="114" y="469"/>
      <point x="96" y="569"/>
      <point x="23" y="569" type="qcurve"/>
      <point x="23" y="578" type="line"/>
      <point x="94" y="578"/>
      <point x="110" y="695"/>
      <point x="94" y="814" type="qcurve" smooth="yes"/>
      <point x="65" y="1025" type="line" smooth="yes"/>
      <point x="33" y="1261"/>
      <point x="82" y="1460"/>
      <point x="158" y="1460" type="qcurve"/>
      <point x="158" y="1453" type="line"/>
      <point x="85" y="1453"/>
      <point x="40" y="1257"/>
      <point x="72" y="1025" type="qcurve" smooth="yes"/>
      <point x="101" y="814" type="line" smooth="yes"/>
      <point x="118" y="688"/>
      <point x="97" y="575"/>
      <point x="40" y="573" type="qcurve"/>
      <point x="98" y="571"/>
      <point x="123" y="476"/>
      <point x="104" y="334" type="qcurve" smooth="yes"/>
      <point x="76" y="123" type="line" smooth="yes"/>
      <point x="41" y="-137"/>
      <point x="82" y="-296"/>
      <point x="157.90639269406392" y="-305.0" type="qcurve"/>
    </contour>
  </outline>
</glyph>
<glyph name="braceright" format="2">
  <advance width="172.90639269406392"/>
  <unicode hex="007D"/>
  <outline>
    <contour>
      <point x="15.0" y="-312.0" type="qcurve"/>
      <point x="15.0" y="-305.0" type="line"/>
      <point x="106.21461187214612" y="-305.0"/>
      <point x="146.7579908675799" y="-107.53424657534246"/>
      <point x="103.73972602739727" y="123.0" type="qcurve" smooth="yes"/>
      <point x="73.16894977168948" y="334.0" type="line" smooth="yes"/>
      <point x="59.77168949771689" y="422.689497716895"/>
      <point x="137.6164383561644" y="555.0"/>
      <point x="199.68949771689498" y="574.0" type="qcurve"/>
      <point x="137.6164383561644" y="593.0"/>
      <point x="59.77168949771689" y="725.310502283105"/>
      <point x="73.16894977168948" y="814.0" type="qcurve" smooth="yes"/>
      <point x="103.73972602739727" y="1025.0" type="line" smooth="yes"/>
      <point x="143.7579908675799" y="1243.5342465753424"/>
      <point x="106.21461187214612" y="1453.0"/>
      <point x="15.0" y="1453.0" type="qcurve"/>
      <point x="15.0" y="1460.0" type="line"/>
      <point x="93.47488584474885" y="1460.0"/>
      <point x="137.2420091324201" y="1270.4109589041095"/>
      <point x="98.91324200913243" y="1025.0" type="qcurve" smooth="yes"/>
      <point x="70.87671232876713" y="814.0" type="line" smooth="yes"/>
      <point x="57.85844748858446" y="711.0"/>
      <point x="78.69406392694063" y="577.0"/>
      <point x="149.40639269406392" y="577.0" type="qcurve"/>
      <point x="149.40639269406392" y="570.0" type="line"/>
      <point x="78.69406392694063" y="570.0"/>
      <point x="57.85844748858446" y="437.0"/>
      <point x="70.87671232876713" y="334.0" type="qcurve" smooth="yes"/>
      <point x="98.91324200913243" y="123.0" type="line" smooth="yes"/>
      <point x="142.77625570776254" y="-160.75342465753425"/>
      <point x="92.47488584474885" y="-312.0"/>
    </contour>
  </outline>
</glyph>
<glyph name="asciitilde" format="2">
  <advance width="499"/>
  <unicode hex="007E"/>
  <outline>
    <contour>
      <point x="12" y="632" type="qcurve"/>
      <point x="12" y="645" type="line"/>
      <point x="39" y="700"/>
      <point x="105" y="767"/>
      <point x="146" y="767" type="qcurve" smooth="yes"/>
      <point x="183" y="767"/>
      <point x="232" y="730"/>
      <point x="268" y="692" type="qcurve" smooth="yes"/>
      <point x="295" y="663"/>
      <point x="342" y="624"/>
      <point x="379" y="624" type="qcurve" smooth="yes"/>
      <point x="418" y="624"/>
      <point x="463" y="696"/>
      <point x="487" y="753" type="qcurve"/>
      <point x="487" y="741" type="line"/>
      <point x="467" y="690"/>
      <point x="419" y="617"/>
      <point x="378" y="617" type="qcurve" smooth="yes"/>
      <point x="345" y="617"/>
      <point x="303" y="647"/>
      <point x="263" y="687" type="qcurve" smooth="yes"/>
      <point x="231" y="721"/>
      <point x="185" y="760"/>
      <point x="146" y="760" type="qcurve" smooth="yes"/>
      <point x="105" y="760"/>
      <point x="42" y="692"/>
    </contour>
  </outline>
</glyph>
<glyph name="exclamdown" format="2">
  <advance width="158.0"/>
  <unicode hex="00A1"/>
  <outline>
    <contour>
      <point x="104.0" y="1135.0" type="qcurve" smooth="yes"/>
      <point x="104.0" y="1125.0"/>
      <point x="92.0" y="1111.0"/>
      <point x="79.0" y="1111.0" type="qcurve" smooth="yes"/>
      <point x="66.0" y="1111.0"/>
      <point x="54.0" y="1125.0"/>
      <point x="54.0" y="1135.0" type="qcurve" smooth="yes"/>
      <point x="54.0" y="1145.0"/>
      <point x="66.0" y="1159.0"/>
      <point x="79.0" y="1159.0" type="qcurve" smooth="yes"/>
      <point x="92.0" y="1159.0"/>
      <point x="104.0" y="1145.0"/>
    </contour>
    <contour>
      <point x="82.0" y="740.0" type="line"/>
      <point x="82.0" y="-306.0" type="line"/>
      <point x="75.0" y="-306.0" type="line"/>
      <point x="75.0" y="740.0" type="line"/>
    </contour>
  </outline>
</glyph>
<glyph name="sterling" format="2">
  <advance width="173.0091324200913"/>
  <unicode hex="00A3"/>
  <outline>
    <contour>
      <point x="155.52739726027397" y="0.0" type="line"/>
      <point x="16.5" y="0.0" type="line"/>
      <point x="16.5" y="6.0" type="line"/>
      <point x="37.86529680365297" y="6.0" type="line" smooth="yes"/>
      <point x="44.5958904109589" y="6.0"/>
      <point x="97.13470319634703" y="285.0"/>
      <point x="85.73744292237444" y="489.0" type="qcurve" smooth="yes"/>
      <point x="63.14840182648402" y="1039.0" type="line" smooth="yes"/>
      <point x="55.28538812785388" y="1228.0"/>
      <point x="43.554794520547944" y="1476.0"/>
      <point x="108.86986301369865" y="1476.0" type="qcurve" smooth="yes"/>
      <point x="178.6324200913242" y="1476.0"/>
      <point x="159.98858447488584" y="1298.1552511415525"/>
      <point x="159.98858447488584" y="1103.0" type="qcurve" smooth="yes"/>
      <point x="159.98858447488584" y="1087.0" type="line"/>
      <point x="152.98858447488584" y="1087.0" type="line"/>
      <point x="152.98858447488584" y="1103.0" type="line" smooth="yes"/>
      <point x="152.98858447488584" y="1296.0"/>
      <point x="152.134703196347" y="1469.0"/>
      <point x="107.18036529680364" y="1469.0" type="qcurve" smooth="yes"/>
      <point x="58.91552511415526" y="1469.0"/>
      <point x="61.5958904109589" y="1220.0"/>
      <point x="70.14840182648402" y="1039.0" type="qcurve" smooth="yes"/>
      <point x="92.73744292237444" y="490.0" type="line" smooth="yes"/>
      <point x="102.13470319634703" y="313.0"/>
      <point x="21.066210045662103" y="41.0"/>
      <point x="-40.486301369863014" y="7.0" type="qcurve"/>
      <point x="155.52739726027397" y="7.0" type="line"/>
    </contour>
    <contour>
      <point x="111.1849315068493" y="702.0" type="line"/>
      <point x="32.5" y="702.0" type="line"/>
      <point x="32.5" y="709.0" type="line"/>
      <point x="111.1849315068493" y="709.0" type="line"/>
    </contour>
  </outline>
</glyph>
<glyph name="yen" format="2">
  <advance width="335.0342465753424"/>
  <unicode hex="00A5"/>
  <outline>
    <contour>
      <point x="79.75" y="353.0" type="line"/>
      <point x="79.75" y="360.0" type="line"/>
      <point x="267.2842465753424" y="360.0" type="line"/>
      <point x="267.2842465753424" y="353.0" type="line"/>
    </contour>
    <contour>
      <point x="79.75" y="668.0" type="line"/>
      <point x="79.75" y="675.0" type="line"/>
      <point x="42.36187214611874" y="675.0" type="line"/>
      <point x="97.36187214611874" y="669.0" type="line"/>
      <point x="217.36187214611874" y="669.0" type="line"/>
      <point x="276.36187214611874" y="675.0" type="line"/>
      <point x="267.2842465753424" y="675.0" type="line"/>
      <point x="267.2842465753424" y="668.0" type="line"/>
    </contour>
    <contour>
      <point x="152.36187214611874" y="0.0" type="line"/>
      <point x="152.36187214611874" y="548.0" type="line"/>
      <point x="-1.25" y="1456.0" type="line"/>
      <point x="5.75" y="1456.0" type="line"/>
      <point x="68.20205479452054" y="849.0" type="line" smooth="yes"/>
      <point x="70.3755707762557" y="816.4657534246576"/>
      <point x="139.34360730593608" y="613.0"/>
      <point x="159.27511415525112" y="559.0" type="qcurve"/>
      <point x="152.4486301369863" y="559.0" type="line"/>
      <point x="170.6906392694064" y="612.0"/>
      <point x="246.34817351598173" y="811.4657534246576"/>
      <point x="253.3664383561644" y="849.0" type="qcurve" smooth="yes"/>
      <point x="329.2842465753424" y="1456.0" type="line"/>
      <point x="336.2842465753424" y="1456.0" type="line"/>
      <point x="159.36187214611874" y="548.0" type="line"/>
      <point x="159.36187214611874" y="0.0" type="line"/>
    </contour>
  </outline>
</glyph>
<glyph name="section" format="2">
  <advance width="216.56621004566205"/>
  <unicode hex="00A7"/>
  <guideline y="1658.0" identifier="QzZ5gIiCyn"/>
  <guideline y="578.0" identifier="9Hxjf2sdFw"/>
  <outline>
    <contour>
      <point x="115.46917808219177" y="288.0" type="qcurve"/>
      <point x="115.46917808219177" y="294.0" type="line"/>
      <point x="143.83904109589042" y="294.0"/>
      <point x="171.81621004566205" y="376.0"/>
      <point x="171.81621004566205" y="463.0" type="qcurve"/>
      <point x="171.81621004566205" y="556.0"/>
      <point x="140.28652968036528" y="695.5844748858448"/>
      <point x="76.39611872146116" y="734.0" type="qcurve" smooth="yes"/>
      <point x="28.350456621004554" y="781.3972602739726"/>
      <point x="47.40981735159818" y="961.0"/>
      <point x="47.40981735159818" y="1140.0" type="qcurve" smooth="yes"/>
      <point x="47.40981735159818" y="1305.0"/>
      <point x="50.23173515981736" y="1490.8447488584475"/>
      <point x="107.75684931506851" y="1491.0" type="qcurve" smooth="yes"/>
      <point x="173.1769406392694" y="1491.1552511415525"/>
      <point x="167.39611872146116" y="1294.0"/>
      <point x="166.39611872146116" y="1100.0" type="qcurve"/>
      <point x="159.39611872146116" y="1100.0" type="line"/>
      <point x="160.39611872146116" y="1286.0"/>
      <point x="146.98972602739724" y="1484.0"/>
      <point x="107.75684931506851" y="1484.0" type="qcurve" smooth="yes"/>
      <point x="82.57420091324201" y="1484.0"/>
      <point x="54.40981735159818" y="1308.0"/>
      <point x="54.40981735159818" y="1139.0" type="qcurve" smooth="yes"/>
      <point x="54.40981735159818" y="975.0"/>
      <point x="35.64269406392694" y="781.6392694063927"/>
      <point x="76.39611872146116" y="741.0" type="qcurve" smooth="yes"/>
      <point x="161.02625570776257" y="683.0"/>
      <point x="178.81621004566205" y="560.0"/>
      <point x="178.81621004566205" y="463.0" type="qcurve" smooth="yes"/>
      <point x="178.81621004566205" y="372.0"/>
      <point x="156.1312785388128" y="288.0"/>
    </contour>
    <contour>
      <point x="45.30876712328766" y="761.0" type="qcurve"/>
      <point x="53.10068493150686" y="756.0" type="line"/>
      <point x="67.72488584474885" y="756.0"/>
      <point x="44.25" y="649.0"/>
      <point x="44.25" y="567.0" type="qcurve" smooth="yes"/>
      <point x="44.25" y="487.0"/>
      <point x="79.587899543379" y="357.4337899543379"/>
      <point x="142.7203196347032" y="317.0" type="qcurve" smooth="yes"/>
      <point x="230.8664383561644" y="253.68949771689498"/>
      <point x="162.03538812785388" y="39.0"/>
      <point x="162.03538812785388" y="-136.0" type="qcurve" smooth="yes"/>
      <point x="162.03538812785388" y="-298.0"/>
      <point x="148.6426940639269" y="-509.0"/>
      <point x="98.1175799086758" y="-509.0" type="qcurve" smooth="yes"/>
      <point x="47.59246575342465" y="-509.0"/>
      <point x="31.25" y="-301.0"/>
      <point x="31.25" y="-80.72666666666666" type="qcurve"/>
      <point x="38.25" y="-70.0" type="line"/>
      <point x="38.25" y="-295.0"/>
      <point x="44.213470319634695" y="-502.0"/>
      <point x="98.1175799086758" y="-502.0" type="qcurve" smooth="yes"/>
      <point x="139.72945205479454" y="-502.0"/>
      <point x="155.03538812785388" y="-295.0"/>
      <point x="155.03538812785388" y="-136.0" type="qcurve" smooth="yes"/>
      <point x="155.03538812785388" y="42.0"/>
      <point x="172.18150684931504" y="277.72146118721463"/>
      <point x="140.7203196347032" y="310.0" type="qcurve" smooth="yes"/>
      <point x="52.866438356164394" y="379.0"/>
      <point x="37.25" y="481.0"/>
      <point x="37.25" y="567.0" type="qcurve" smooth="yes"/>
      <point x="37.25" y="652.0"/>
      <point x="54.587899543378995" y="761.0"/>
    </contour>
  </outline>
</glyph>
<glyph name="copyright" format="2">
  <advance width="1331.0"/>
  <unicode hex="00A9"/>
  <guideline y="901.0" identifier="0Pjz0qKr8z"/>
  <guideline y="555.0" identifier="sJo8BlDiJ7"/>
  <outline>
    <contour>
      <point x="463.9086757990868" y="546.0" type="qcurve"/>
      <point x="470.9086757990868" y="546.0" type="line"/>
      <point x="470.9086757990868" y="390.0"/>
      <point x="445.7077625570776" y="205.0"/>
      <point x="271.06337899543377" y="205.0" type="qcurve" smooth="yes"/>
      <point x="249.07762557077626" y="205.0"/>
      <point x="181.5159817351598" y="437.0"/>
      <point x="181.5159817351598" y="664.0" type="qcurve" smooth="yes"/>
      <point x="181.5159817351598" y="703.0" type="line" smooth="yes"/>
      <point x="181.5159817351598" y="931.0"/>
      <point x="234.71689497716892" y="1170.0"/>
      <point x="329.24004566210044" y="1170.0" type="qcurve" smooth="yes"/>
      <point x="430.34703196347033" y="1170.0"/>
      <point x="471.9086757990868" y="983.0"/>
      <point x="471.9086757990868" y="829.0" type="qcurve"/>
      <point x="464.9086757990868" y="829.0" type="line"/>
      <point x="464.9086757990868" y="981.0"/>
      <point x="403.69406392694066" y="1164.0"/>
      <point x="325.0319634703196" y="1164.0" type="qcurve" smooth="yes"/>
      <point x="268.8173515981735" y="1164.0"/>
      <point x="188.5159817351598" y="927.0"/>
      <point x="188.5159817351598" y="889.1556164383562" type="qcurve" smooth="yes"/>
      <point x="188.5159817351598" y="483.0524657534246" type="line" smooth="yes"/>
      <point x="188.5159817351598" y="439.0"/>
      <point x="262.2146118721461" y="212.0"/>
      <point x="355.1467123287671" y="212.0" type="qcurve" smooth="yes"/>
      <point x="398.24657534246575" y="212.0"/>
      <point x="463.9086757990868" y="393.0"/>
    </contour>
    <contour>
      <point x="24.0" y="687.0" type="qcurve" smooth="yes"/>
      <point x="24.0" y="279.3333333333333"/>
      <point x="117.14155251141551" y="-140.0"/>
      <point x="323.8767123287671" y="-140.0" type="qcurve" smooth="yes"/>
      <point x="524.2328767123288" y="-140.0"/>
      <point x="615.9954337899543" y="279.3333333333333"/>
      <point x="615.9954337899543" y="687.0" type="qcurve" smooth="yes"/>
      <point x="615.9954337899543" y="1095.9771689497718"/>
      <point x="524.2328767123288" y="1512.0"/>
      <point x="323.8767123287671" y="1512.0" type="qcurve" smooth="yes"/>
      <point x="117.14155251141551" y="1512.0"/>
      <point x="24.0" y="1094.9771689497718"/>
    </contour>
    <contour>
      <point x="17.0" y="687.0" type="qcurve" smooth="yes"/>
      <point x="17.0" y="1112.4931506849316"/>
      <point x="101.6255707762557" y="1519.0"/>
      <point x="322.8767123287671" y="1519.0" type="qcurve" smooth="yes"/>
      <point x="540.5936073059361" y="1519.0"/>
      <point x="622.9954337899543" y="1112.4931506849316"/>
      <point x="622.9954337899543" y="687.0" type="qcurve" smooth="yes"/>
      <point x="622.9954337899543" y="260.972602739726"/>
      <point x="540.5936073059361" y="-147.0"/>
      <point x="322.8767123287671" y="-147.0" type="qcurve" smooth="yes"/>
      <point x="101.6255707762557" y="-147.0"/>
      <point x="17.0" y="260.972602739726"/>
    </contour>
  </outline>
</glyph>
<glyph name="ordfeminine" format="2">
  <advance width="196.40981735159818"/>
  <unicode hex="00AA"/>
  <guideline y="1681.0" identifier="3CJlALCfkl"/>
  <guideline y="909.0" identifier="Zdl6NZVQAy"/>
  <outline>
    <contour>
      <point x="122.90981735159818" y="870.0" type="line"/>
      <point x="122.90981735159818" y="821.0"/>
      <point x="133.90981735159818" y="748.0"/>
      <point x="148.90981735159818" y="706.0" type="qcurve"/>
      <point x="155.90981735159818" y="706.0" type="line"/>
      <point x="141.90981735159818" y="749.0"/>
      <point x="129.90981735159818" y="826.0"/>
      <point x="129.90981735159818" y="870.0" type="qcurve" smooth="yes"/>
      <point x="129.90981735159818" y="1201.0" type="line" smooth="yes"/>
      <point x="129.90981735159818" y="1348.0"/>
      <point x="115.57648401826484" y="1477.0"/>
      <point x="93.26141552511416" y="1477.0" type="qcurve" smooth="yes"/>
      <point x="70.94634703196346" y="1477.0"/>
      <point x="58.21575342465752" y="1366.0"/>
      <point x="58.83675799086757" y="1261.0" type="qcurve" smooth="yes"/>
      <point x="58.83675799086757" y="1234.0" type="line"/>
      <point x="65.83675799086757" y="1234.0" type="line"/>
      <point x="65.83675799086757" y="1275.0" type="line" smooth="yes"/>
      <point x="65.83675799086757" y="1373.0"/>
      <point x="81.17009132420091" y="1470.0"/>
      <point x="93.26141552511416" y="1470.0" type="qcurve" smooth="yes"/>
      <point x="115.26598173515981" y="1470.0"/>
      <point x="122.90981735159818" y="1344.0"/>
      <point x="122.90981735159818" y="1202.0" type="qcurve" smooth="yes"/>
    </contour>
    <contour>
      <point x="124.90981735159818" y="1149.0" type="line"/>
      <point x="104.79566210045664" y="1149.0" type="line" smooth="yes"/>
      <point x="48.58561643835617" y="1149.0"/>
      <point x="42.75" y="1028.0"/>
      <point x="42.75" y="920.0" type="qcurve" smooth="yes"/>
      <point x="42.75" y="816.0"/>
      <point x="51.23858447488584" y="692.0"/>
      <point x="78.7591324200913" y="692.0" type="qcurve" smooth="yes"/>
      <point x="89.67694063926942" y="692.0"/>
      <point x="151.1472602739726" y="761.0"/>
      <point x="130.90981735159818" y="792.0" type="qcurve"/>
      <point x="126.90981735159818" y="796.0" type="line"/>
      <point x="136.1472602739726" y="758.0"/>
      <point x="87.05593607305937" y="699.0"/>
      <point x="82.29337899543378" y="699.0" type="qcurve" smooth="yes"/>
      <point x="66.90981735159818" y="699.0"/>
      <point x="49.75" y="821.0"/>
      <point x="49.75" y="920.0" type="qcurve" smooth="yes"/>
      <point x="49.75" y="1028.0"/>
      <point x="75.39383561643837" y="1142.0"/>
      <point x="108.79566210045664" y="1142.0" type="qcurve" smooth="yes"/>
      <point x="124.90981735159818" y="1142.0" type="line"/>
    </contour>
  </outline>
</glyph>
<glyph name="twosuperior" format="2">
  <advance width="152.23173515981736"/>
  <unicode hex="00B2"/>
  <outline>
    <contour>
      <point x="38.75" y="697.0" type="line"/>
      <point x="38.75" y="704.0" type="line"/>
      <point x="73.0376712328767" y="1005.0" type="line" smooth="yes"/>
      <point x="80.76369863013699" y="1078.8949771689497"/>
      <point x="92.73173515981736" y="1176.0"/>
      <point x="92.73173515981736" y="1249.0" type="qcurve" smooth="yes"/>
      <point x="92.73173515981736" y="1361.0"/>
      <point x="74.43493150684932" y="1481.0"/>
      <point x="62.82762557077625" y="1481.0" type="qcurve" smooth="yes"/>
      <point x="49.28881278538813" y="1481.0"/>
      <point x="30.75" y="1340.0"/>
      <point x="30.75" y="1208.0" type="qcurve" smooth="yes"/>
      <point x="30.75" y="1198.0" type="line"/>
      <point x="23.75" y="1198.0" type="line"/>
      <point x="23.75" y="1208.0" type="line" smooth="yes"/>
      <point x="23.75" y="1342.0"/>
      <point x="49.51255707762557" y="1487.0"/>
      <point x="63.82762557077625" y="1487.0" type="qcurve" smooth="yes"/>
      <point x="69.14269406392694" y="1487.0"/>
      <point x="99.73173515981736" y="1364.0"/>
      <point x="99.73173515981736" y="1249.0" type="qcurve" smooth="yes"/>
      <point x="99.73173515981736" y="1173.0"/>
      <point x="109.26141552511416" y="1053.1552511415525"/>
      <point x="123.8093607305936" y="1002.0" type="qcurve" smooth="yes"/>
      <point x="30.69977168949771" y="704.0" type="line"/>
      <point x="127.73173515981736" y="704.0" type="line"/>
      <point x="127.73173515981736" y="697.0" type="line"/>
    </contour>
  </outline>
</glyph>
<glyph name="paragraph" format="2">
  <advance width="331.38812785388126"/>
  <unicode hex="00B6"/>
  <guideline y="901.0" identifier="27539Lsr1A"/>
  <guideline y="555.0" identifier="e34wUdCmXR"/>
  <outline>
    <contour>
      <point x="219.5" y="-146.0" type="line"/>
      <point x="212.5" y="-146.0" type="line"/>
      <point x="212.5" y="1160.0" type="line"/>
      <point x="178.5" y="1160.0" type="line" smooth="yes"/>
      <point x="102.5" y="1160.0"/>
      <point x="21.5" y="1244.0"/>
      <point x="21.5" y="1308.0" type="qcurve" smooth="yes"/>
      <point x="21.5" y="1371.0"/>
      <point x="102.5" y="1456.0"/>
      <point x="178.5" y="1456.0" type="qcurve" smooth="yes"/>
      <point x="219.5" y="1456.0" type="line"/>
    </contour>
    <contour>
      <point x="266.88812785388126" y="1459.0" type="line"/>
      <point x="273.88812785388126" y="1459.0" type="line"/>
      <point x="273.88812785388126" y="-146.0" type="line"/>
      <point x="266.88812785388126" y="-146.0" type="line"/>
    </contour>
  </outline>
</glyph>
<glyph name="periodcentered" format="2">
  <advance width="351.0"/>
  <unicode hex="00B7"/>
  <outline>
    <contour>
      <point x="150.5" y="749.0" type="qcurve" smooth="yes"/>
      <point x="150.5" y="759.0"/>
      <point x="163.5" y="773.0"/>
      <point x="175.5" y="773.0" type="qcurve" smooth="yes"/>
      <point x="187.5" y="773.0"/>
      <point x="200.5" y="759.0"/>
      <point x="200.5" y="749.0" type="qcurve" smooth="yes"/>
      <point x="200.5" y="739.0"/>
      <point x="187.5" y="725.0"/>
      <point x="175.5" y="725.0" type="qcurve" smooth="yes"/>
      <point x="163.5" y="725.0"/>
      <point x="150.5" y="739.0"/>
    </contour>
  </outline>
</glyph>
<glyph name="ordmasculine" format="2">
  <advance width="172.07762557077626"/>
  <unicode hex="00BA"/>
  <guideline y="1975.0" identifier="Jnt0R9CyOf"/>
  <outline>
    <contour>
      <point x="38.5" y="1043.0" type="qcurve"/>
      <point x="38.5" y="1124.0" type="line"/>
      <point x="38.5" y="1294.0"/>
      <point x="44.956621004566216" y="1477.0"/>
      <point x="84.27168949771689" y="1477.0" type="qcurve" smooth="yes"/>
      <point x="123.58675799086757" y="1477.0"/>
      <point x="133.57762557077626" y="1294.0"/>
      <point x="133.57762557077626" y="1124.0" type="qcurve"/>
      <point x="133.57762557077626" y="1043.0" type="line"/>
      <point x="133.57762557077626" y="873.0"/>
      <point x="124.58675799086757" y="691.0"/>
      <point x="86.27168949771689" y="691.0" type="qcurve" smooth="yes"/>
      <point x="45.956621004566216" y="691.0"/>
      <point x="38.5" y="873.0"/>
    </contour>
    <contour>
      <point x="45.5" y="1124.0" type="qcurve"/>
      <point x="45.5" y="1043.0" type="line"/>
      <point x="45.5" y="877.0"/>
      <point x="68.54109589041096" y="698.0"/>
      <point x="86.27168949771689" y="698.0" type="qcurve" smooth="yes"/>
      <point x="105.5365296803653" y="698.0"/>
      <point x="126.57762557077626" y="877.0"/>
      <point x="126.57762557077626" y="1043.0" type="qcurve"/>
      <point x="126.57762557077626" y="1124.0" type="line"/>
      <point x="126.57762557077626" y="1291.0"/>
      <point x="104.5365296803653" y="1470.0"/>
      <point x="84.27168949771689" y="1470.0" type="qcurve" smooth="yes"/>
      <point x="67.54109589041096" y="1470.0"/>
      <point x="45.5" y="1291.0"/>
    </contour>
  </outline>
</glyph>
<glyph name="guillemotright" format="2">
  <advance width="502.9646118721462"/>
  <unicode hex="00BB"/>
  <guideline y="98.0" identifier="MTEldNnfdj"/>
  <guideline y="443.0" identifier="G9bQni2n1K"/>
  <outline>
    <contour>
      <point x="29.25" y="153.0" type="line"/>
      <point x="173.20890410958904" y="551.0" type="line"/>
      <point x="29.25" y="949.0" type="line"/>
      <point x="36.25" y="949.0" type="line"/>
      <point x="182.20890410958904" y="554.0" type="line"/>
      <point x="182.20890410958904" y="548.0" type="line"/>
      <point x="36.25" y="153.0" type="line"/>
    </contour>
    <contour>
      <point x="315.5057077625571" y="153.0" type="line"/>
      <point x="459.4646118721462" y="551.0" type="line"/>
      <point x="315.5057077625571" y="949.0" type="line"/>
      <point x="322.5057077625571" y="949.0" type="line"/>
      <point x="468.4646118721462" y="554.0" type="line"/>
      <point x="468.4646118721462" y="548.0" type="line"/>
      <point x="322.5057077625571" y="153.0" type="line"/>
    </contour>
  </outline>
</glyph>
<glyph name="questiondown" format="2">
  <advance width="159.6187214611872"/>
  <unicode hex="00BF"/>
  <guideline y="-181.0" identifier="apukwP5ffL"/>
  <guideline y="921.0" identifier="5ZPZZL8Rim"/>
  <outline>
    <contour>
      <point x="163.013698630137" y="1133.0" type="qcurve" smooth="yes"/>
      <point x="163.013698630137" y="1123.0"/>
      <point x="150.013698630137" y="1109.0"/>
      <point x="138.013698630137" y="1109.0" type="qcurve" smooth="yes"/>
      <point x="126.01369863013699" y="1109.0"/>
      <point x="113.01369863013699" y="1123.0"/>
      <point x="113.01369863013699" y="1133.0" type="qcurve" smooth="yes"/>
      <point x="113.01369863013699" y="1143.0"/>
      <point x="126.01369863013699" y="1157.0"/>
      <point x="138.013698630137" y="1157.0" type="qcurve" smooth="yes"/>
      <point x="150.013698630137" y="1157.0"/>
      <point x="163.013698630137" y="1143.0"/>
    </contour>
    <contour>
      <point x="137.1187214611872" y="53.0" type="line"/>
      <point x="137.1187214611872" y="33.0" type="line" smooth="yes"/>
      <point x="137.1187214611872" y="-128.0"/>
      <point x="134.3835616438356" y="-328.0"/>
      <point x="84.51598173515981" y="-328.0" type="qcurve" smooth="yes"/>
      <point x="29.114155251141554" y="-328.0"/>
      <point x="31.0" y="-122.0"/>
      <point x="31.0" y="48.0" type="qcurve" smooth="yes"/>
      <point x="31.0" y="180.0"/>
      <point x="9.835616438356169" y="312.0"/>
      <point x="65.49315068493149" y="393.0" type="qcurve" smooth="yes"/>
      <point x="115.90867579908675" y="478.0502283105023"/>
      <point x="132.25570776255708" y="572.1552511415525"/>
      <point x="132.25570776255708" y="668.0" type="qcurve" smooth="yes"/>
      <point x="132.25570776255708" y="738.0" type="line"/>
      <point x="139.25570776255708" y="738.0" type="line"/>
      <point x="139.25570776255708" y="668.0" type="line" smooth="yes"/>
      <point x="139.25570776255708" y="573.0"/>
      <point x="123.21917808219177" y="479.2054794520548"/>
      <point x="71.49315068493149" y="389.0" type="qcurve" smooth="yes"/>
      <point x="13.835616438356169" y="306.0"/>
      <point x="38.0" y="179.0"/>
      <point x="38.0" y="48.0" type="qcurve" smooth="yes"/>
      <point x="38.0" y="-118.0"/>
      <point x="59.99086757990868" y="-321.0"/>
      <point x="82.51598173515981" y="-321.0" type="qcurve" smooth="yes"/>
      <point x="108.04109589041096" y="-321.0"/>
      <point x="130.1187214611872" y="-122.0"/>
      <point x="130.1187214611872" y="33.0" type="qcurve" smooth="yes"/>
      <point x="130.1187214611872" y="53.0" type="line"/>
    </contour>
  </outline>
</glyph>
<glyph name="multiply" format="2">
  <advance width="592"/>
  <unicode hex="00D7"/>
  <outline>
    <contour>
      <point x="566" y="411" type="line"/>
      <point x="36" y="951" type="line"/>
      <point x="28" y="943" type="line"/>
      <point x="558" y="402" type="line"/>
    </contour>
    <contour>
      <point x="32" y="408" type="line"/>
      <point x="24" y="415" type="line"/>
      <point x="551" y="952" type="line"/>
      <point x="559" y="944" type="line"/>
    </contour>
  </outline>
</glyph>
<glyph name="divide" format="2">
  <advance width="542.9520547945206"/>
  <unicode hex="00F7"/>
  <outline>
    <contour>
      <point x="247.32077625570776" y="969.0" type="qcurve" smooth="yes"/>
      <point x="247.32077625570776" y="980.0"/>
      <point x="259.32077625570776" y="994.0"/>
      <point x="272.32077625570776" y="994.0" type="qcurve" smooth="yes"/>
      <point x="284.32077625570776" y="994.0"/>
      <point x="297.32077625570776" y="980.0"/>
      <point x="297.32077625570776" y="969.0" type="qcurve" smooth="yes"/>
      <point x="297.32077625570776" y="959.0"/>
      <point x="284.32077625570776" y="945.0"/>
      <point x="272.32077625570776" y="945.0" type="qcurve" smooth="yes"/>
      <point x="259.32077625570776" y="945.0"/>
      <point x="247.32077625570776" y="959.0"/>
    </contour>
    <contour>
      <point x="247.32077625570776" y="386.0" type="qcurve" smooth="yes"/>
      <point x="247.32077625570776" y="397.0"/>
      <point x="259.32077625570776" y="411.0"/>
      <point x="272.32077625570776" y="411.0" type="qcurve" smooth="yes"/>
      <point x="284.32077625570776" y="411.0"/>
      <point x="297.32077625570776" y="397.0"/>
      <point x="297.32077625570776" y="386.0" type="qcurve" smooth="yes"/>
      <point x="297.32077625570776" y="376.0"/>
      <point x="284.32077625570776" y="362.0"/>
      <point x="272.32077625570776" y="362.0" type="qcurve" smooth="yes"/>
      <point x="259.32077625570776" y="362.0"/>
      <point x="247.32077625570776" y="376.0"/>
    </contour>
    <contour>
      <point x="21.75" y="670.0" type="line"/>
      <point x="21.75" y="677.0" type="line"/>
      <point x="521.2020547945206" y="677.0" type="line"/>
      <point x="521.2020547945206" y="670.0" type="line"/>
    </contour>
  </outline>
</glyph>
<glyph name="idotless" format="2">
  <advance width="101"/>
  <unicode hex="0131"/>
  <anchor x="49.75" y="916.0" name="top"/>
  <anchor x="49.75" y="0.0" name="bottom"/>
  <anchor x="50.75" y="0.0" name="ogonek"/>
  <anchor x="48.39" y="471.96" name="yu_dash"/>
  <outline>
    <contour>
      <point x="46" y="0" type="line"/>
      <point x="46" y="916" type="line"/>
      <point x="53" y="916" type="line"/>
      <point x="53" y="0" type="line"/>
    </contour>
  </outline>
</glyph>
<glyph name="oe" format="2">
  <advance width="308.87100456621"/>
  <unicode hex="0153"/>
  <outline>
    <contour>
      <point x="140.825799086758" y="-30.0" type="qcurve" smooth="yes"/>
      <point x="28.558219178082197" y="-30.0"/>
      <point x="28.75" y="206.48"/>
      <point x="28.75" y="442.0" type="qcurve" smooth="yes"/>
      <point x="28.75" y="474.0" type="line" smooth="yes"/>
      <point x="28.75" y="709.52"/>
      <point x="30.08296803652967" y="947.5247488584474"/>
      <point x="113.3803196347032" y="947.5247488584474" type="qcurve" smooth="yes"/>
      <point x="86.13374429223742" y="947.5247488584474"/>
      <point x="125.5509132420091" y="885.2153424657535"/>
      <point x="166.8851598173516" y="684.0920547945205" type="qcurve"/>
      <point x="204.16990867579906" y="861.231598173516"/>
      <point x="203.28534246575347" y="951.2080821917807"/>
      <point x="176.64150684931505" y="951.2080821917807" type="qcurve" smooth="yes"/>
      <point x="270.08333333333337" y="951.2080821917807"/>
      <point x="279.37100456621" y="754.72"/>
      <point x="279.37100456621" y="588.0" type="qcurve" smooth="yes"/>
      <point x="279.37100456621" y="485.0" type="line"/>
      <point x="159.26141552511416" y="485.0" type="line"/>
      <point x="159.26141552511416" y="492.0" type="line"/>
      <point x="271.36150684931505" y="492.0" type="line"/>
      <point x="275.0448401826484" y="574.4" type="line" smooth="yes"/>
      <point x="271.36150684931505" y="748.96"/>
      <point x="249.9198630136986" y="944.2080821917807"/>
      <point x="211.7317351598174" y="944.2080821917807" type="qcurve" smooth="yes"/>
      <point x="194.4175799086758" y="944.2080821917807"/>
      <point x="162.26141552511416" y="683.3152511415525"/>
      <point x="162.26141552511416" y="474.0" type="qcurve" smooth="yes"/>
      <point x="162.26141552511416" y="442.0" type="line" smooth="yes"/>
      <point x="162.26141552511416" y="225.68474885844748"/>
      <point x="211.82707762557075" y="-22.0"/>
      <point x="218.39474885844749" y="-22.0" type="qcurve" smooth="yes"/>
      <point x="247.6778538812785" y="-22.0"/>
      <point x="239.0102739726027" y="129.0"/>
      <point x="234.9965753424657" y="270.0" type="qcurve"/>
      <point x="276.4760273972603" y="268.0" type="line"/>
      <point x="282.2659817351598" y="137.0"/>
      <point x="259.8595890410959" y="-30.0"/>
      <point x="171.9722831050228" y="-30.0" type="qcurve" smooth="yes"/>
      <point x="224.10634703196345" y="-30.0"/>
      <point x="192.82817351598172" y="71.44438356164383"/>
      <point x="162.9909132420091" y="228.6726940639269" type="qcurve"/>
      <point x="132.82415525114155" y="58.39488584474885"/>
      <point x="97.81648401826486" y="-30.0"/>
    </contour>
    <contour>
      <point x="95.08333333333334" y="-22.0" type="qcurve" smooth="yes"/>
      <point x="117.3784931506849" y="-22.0"/>
      <point x="155.26141552511416" y="204.88474885844747"/>
      <point x="155.26141552511416" y="442.0" type="qcurve" smooth="yes"/>
      <point x="155.26141552511416" y="474.0" type="line" smooth="yes"/>
      <point x="155.26141552511416" y="710.1152511415526"/>
      <point x="119.3784931506849" y="938.0"/>
      <point x="94.08333333333334" y="938.0" type="qcurve" smooth="yes"/>
      <point x="71.78817351598173" y="938.0"/>
      <point x="34.90525114155251" y="711.64"/>
      <point x="34.90525114155251" y="474.0" type="qcurve" smooth="yes"/>
      <point x="34.90525114155251" y="442.0" type="line" smooth="yes"/>
      <point x="34.90525114155251" y="204.36"/>
      <point x="71.78817351598173" y="-22.0"/>
    </contour>
  </outline>
</glyph>
<glyph name="Schwa" format="2">
  <advance width="238.0034246575342"/>
  <unicode hex="018F"/>
  <outline>
    <contour>
      <point x="135.30593607305934" y="-2.0" type="qcurve" smooth="yes"/>
      <point x="22.780821917808225" y="-2.0"/>
      <point x="33.0" y="339.0"/>
      <point x="33.0" y="567.0" type="qcurve" smooth="yes"/>
      <point x="33.0" y="731.0" type="line"/>
      <point x="190.84018264840176" y="731.0" type="line"/>
      <point x="188.84018264840176" y="724.0" type="line"/>
      <point x="113.7579908675799" y="724.0" type="line"/>
      <point x="28.173515981735164" y="724.0" type="line"/>
      <point x="28.173515981735164" y="567.0" type="line" smooth="yes"/>
      <point x="28.173515981735164" y="344.0"/>
      <point x="62.94977168949771" y="5.0"/>
      <point x="144.47287671232877" y="5.0" type="qcurve" smooth="yes"/>
      <point x="159.28767123287673" y="5.0"/>
      <point x="188.84018264840176" y="413.0"/>
      <point x="188.84018264840176" y="749.0" type="qcurve" smooth="yes"/>
      <point x="188.84018264840176" y="1094.2"/>
      <point x="167.09589041095887" y="1451.2"/>
      <point x="112.23744292237444" y="1451.2" type="qcurve" smooth="yes"/>
      <point x="81.31050228310502" y="1451.2"/>
      <point x="37.455707762557076" y="1176.9561643835616"/>
      <point x="43.55251141552512" y="955.2" type="qcurve" smooth="yes"/>
      <point x="45.08675799086758" y="937.2" type="line"/>
      <point x="44.0" y="937.2" type="line"/>
      <point x="43.31050228310502" y="951.2" type="line" smooth="yes"/>
      <point x="31.433789954337897" y="1183.7342465753425"/>
      <point x="32.849315068493155" y="1458.2"/>
      <point x="105.51077625570778" y="1458.2" type="qcurve" smooth="yes"/>
      <point x="208.1095890410959" y="1458.2"/>
      <point x="201.7534246575342" y="1097.2"/>
      <point x="201.7534246575342" y="749.0" type="qcurve" smooth="yes"/>
      <point x="201.7534246575342" y="412.0"/>
      <point x="203.14611872146116" y="-2.0"/>
    </contour>
  </outline>
</glyph>
<glyph name="primemod" format="2">
  <advance width="345.75"/>
  <unicode hex="02B9"/>
  <outline>
    <contour>
      <point x="195.5" y="1502.0" type="line"/>
      <point x="202.5" y="1502.0" type="line"/>
      <point x="107.5" y="994.0" type="line"/>
      <point x="103.5" y="995.0" type="line"/>
    </contour>
  </outline>
</glyph>
<glyph name="gravecomb" format="2">
  <unicode hex="0300"/>
  <anchor x="0.0" y="1052.0" name="_top"/>
  <anchor x="0.0" y="1601.5342465753424" name="top"/>
  <outline>
    <contour>
      <point x="-21.853881278538807" y="1216.689497716895" type="line"/>
      <point x="-100.88584474885845" y="1620.337899543379" type="line"/>
      <point x="-63.94063926940639" y="1549.1552511415525" type="line"/>
      <point x="3.1095890410958873" y="1162.2465753424658" type="line"/>
    </contour>
  </outline>
</glyph>
<glyph name="acutecomb" format="2">
  <unicode hex="0301"/>
  <anchor x="0.0" y="1052.0" name="_top"/>
  <anchor x="0.0" y="1601.689497716895" name="top"/>
  <outline>
    <contour>
      <point x="-13.109589041095887" y="1156.3333333333333" type="line"/>
      <point x="56.56164383561644" y="1542.3972602739725" type="line"/>
      <point x="96.88584474885845" y="1626.2511415525114" type="line"/>
      <point x="20.301369863013704" y="1216.689497716895" type="line"/>
    </contour>
  </outline>
</glyph>
<glyph name="circumflexcomb" format="2">
  <unicode hex="0302"/>
  <anchor x="0.0" y="1052.0" name="_top"/>
  <anchor x="0.0" y="1533.0" name="top"/>
  <outline>
    <contour>
      <point x="2.0" y="1533.0" type="line"/>
      <point x="188.95890410958904" y="1220.0" type="line"/>
      <point x="181.95890410958904" y="1220.0" type="line"/>
      <point x="0.0" y="1526.0" type="line"/>
      <point x="-181.95890410958904" y="1220.0" type="line"/>
      <point x="-188.95890410958904" y="1220.0" type="line"/>
      <point x="-2.0" y="1533.0" type="line"/>
    </contour>
  </outline>
</glyph>
<glyph name="brevecomb" format="2">
  <unicode hex="0306"/>
  <anchor x="0.0" y="1052.0" name="_top"/>
  <anchor x="0.0" y="1518.0" name="top"/>
  <outline>
    <contour>
      <point x="168.27397260273972" y="1465.0" type="qcurve"/>
      <point x="171.42922374429224" y="1464.689497716895" type="line"/>
      <point x="150.78995433789953" y="1353.0182648401826"/>
      <point x="59.2648401826484" y="1197.0"/>
      <point x="0.0" y="1197.0" type="qcurve" smooth="yes"/>
      <point x="-57.24657534246575" y="1197.0"/>
      <point x="-149.54794520547944" y="1351.0"/>
      <point x="-171.27397260273972" y="1465.0" type="qcurve"/>
      <point x="-167.27397260273972" y="1467.0" type="line"/>
      <point x="-152.54794520547944" y="1367.0"/>
      <point x="-57.55707762557078" y="1204.0"/>
      <point x="0.0" y="1204.0" type="qcurve" smooth="yes"/>
      <point x="59.333333333333336" y="1204.0"/>
      <point x="150.39269406392694" y="1366.37899543379"/>
    </contour>
  </outline>
</glyph>
<glyph name="dotaccentcomb" format="2">
  <unicode hex="0307"/>
  <anchor x="0.0" y="1052.0" name="_top"/>
  <anchor x="0.0" y="1458.0" name="top"/>
  <outline>
    <contour>
      <point x="-7.260273972602739" y="1355.5844748858447" type="qcurve" smooth="yes"/>
      <point x="-7.260273972602739" y="1360.8264840182649"/>
      <point x="-4.397260273972603" y="1362.0"/>
      <point x="0.0" y="1362.0" type="qcurve" smooth="yes"/>
      <point x="1.8630136986301373" y="1362.0"/>
      <point x="5.570776255707763" y="1360.8264840182649"/>
      <point x="5.570776255707763" y="1355.5844748858447" type="qcurve" smooth="yes"/>
      <point x="5.570776255707763" y="1351.1872146118722"/>
      <point x="1.8630136986301373" y="1349.1689497716895"/>
      <point x="0.0" y="1349.1689497716895" type="qcurve" smooth="yes"/>
      <point x="-4.397260273972603" y="1349.1689497716895"/>
      <point x="-7.260273972602739" y="1351.1872146118722"/>
    </contour>
  </outline>
</glyph>
<glyph name="dieresiscomb" format="2">
  <unicode hex="0308"/>
  <anchor x="0.0" y="1052.0" name="_GRK_top"/>
  <anchor x="0.0" y="1052.0" name="_top"/>
  <anchor x="0.0" y="1431.0" name="top"/>
  <outline>
    <contour>
      <point x="-132.87214611872145" y="1260.2739726027398" type="qcurve" smooth="yes"/>
      <point x="-132.87214611872145" y="1260.9817351598174"/>
      <point x="-129.16438356164383" y="1265.0"/>
      <point x="-125.61187214611871" y="1265.0" type="qcurve" smooth="yes"/>
      <point x="-121.9041095890411" y="1265.0"/>
      <point x="-117.35159817351598" y="1260.9817351598174"/>
      <point x="-117.35159817351598" y="1260.2739726027398" type="qcurve" smooth="yes"/>
      <point x="-117.35159817351598" y="1256.1872146118722"/>
      <point x="-121.9041095890411" y="1252.324200913242"/>
      <point x="-125.61187214611871" y="1252.324200913242" type="qcurve" smooth="yes"/>
      <point x="-129.16438356164383" y="1252.324200913242"/>
      <point x="-132.87214611872145" y="1256.1872146118722"/>
    </contour>
    <contour>
      <point x="117.5068493150685" y="1260.2739726027398" type="qcurve" smooth="yes"/>
      <point x="117.5068493150685" y="1260.9817351598174"/>
      <point x="121.05936073059361" y="1264.0"/>
      <point x="124.76712328767123" y="1264.0" type="qcurve" smooth="yes"/>
      <point x="128.31963470319636" y="1264.0"/>
      <point x="132.02739726027397" y="1260.9817351598174"/>
      <point x="132.02739726027397" y="1260.2739726027398" type="qcurve" smooth="yes"/>
      <point x="132.02739726027397" y="1256.1872146118722"/>
      <point x="128.31963470319636" y="1252.324200913242"/>
      <point x="124.76712328767123" y="1252.324200913242" type="qcurve" smooth="yes"/>
      <point x="121.05936073059361" y="1252.324200913242"/>
      <point x="117.5068493150685" y="1256.1872146118722"/>
    </contour>
  </outline>
</glyph>
<glyph name="ringcomb" format="2">
  <unicode hex="030A"/>
  <anchor x="0.0" y="1052.0" name="_top"/>
  <anchor x="0.0" y="1618.2785388127854" name="top"/>
  <outline>
    <contour>
      <point x="-186.29680365296804" y="1429.0" type="qcurve"/>
      <point x="-186.29680365296804" y="1503.7945205479452"/>
      <point x="-79.10502283105023" y="1608.986301369863"/>
      <point x="0.0" y="1608.986301369863" type="qcurve" smooth="yes"/>
      <point x="80.10502283105023" y="1608.986301369863"/>
      <point x="186.29680365296804" y="1503.7945205479452"/>
      <point x="186.29680365296804" y="1429.0" type="qcurve" smooth="yes"/>
      <point x="186.29680365296804" y="1354.0502283105022"/>
      <point x="80.10502283105023" y="1253.013698630137"/>
      <point x="0.0" y="1253.013698630137" type="qcurve" smooth="yes"/>
      <point x="-80.10502283105023" y="1253.013698630137"/>
      <point x="-186.29680365296804" y="1354.0502283105022"/>
    </contour>
    <contour>
      <point x="-198.72602739726028" y="1429.0" type="qcurve"/>
      <point x="-198.72602739726028" y="1349.447488584475"/>
      <point x="-86.70776255707763" y="1242.2739726027398"/>
      <point x="0.0" y="1242.2739726027398" type="qcurve" smooth="yes"/>
      <point x="84.70776255707763" y="1242.2739726027398"/>
      <point x="198.72602739726028" y="1349.447488584475"/>
      <point x="198.72602739726028" y="1429.0" type="qcurve" smooth="yes"/>
      <point x="198.72602739726028" y="1505.3972602739725"/>
      <point x="85.70776255707763" y="1619.7260273972602"/>
      <point x="0.0" y="1619.7260273972602" type="qcurve" smooth="yes"/>
      <point x="-86.70776255707763" y="1619.7260273972602"/>
      <point x="-198.72602739726028" y="1505.3972602739725"/>
    </contour>
  </outline>
</glyph>
<glyph name="commaaccentturnedcomb" format="2">
  <unicode hex="0312"/>
  <anchor x="0.0" y="1052.0" name="_top"/>
  <outline>
    <contour>
      <point x="76.57077625570776" y="1664.5342465753424" type="line"/>
      <point x="-18.534246575342465" y="1301.1552511415525" type="line"/>
      <point x="-11.173515981735159" y="1302.1552511415525" type="line"/>
      <point x="96.22374429223744" y="1662.1552511415525" type="line"/>
    </contour>
  </outline>
</glyph>
<glyph name="horncomb" format="2">
  <unicode hex="031B"/>
  <anchor x="0.0" y="1052.0" name="_topright"/>
  <anchor x="0.0" y="1293.0" name="topright"/>
  <outline>
    <contour>
      <point x="0.0" y="1052.0" type="line"/>
      <point x="25.71232876712329" y="1052.0" type="line" smooth="yes"/>
      <point x="41.61187214611871" y="1052.0"/>
      <point x="57.013698630136986" y="1086.0"/>
      <point x="57.013698630136986" y="1126.0" type="qcurve" smooth="yes"/>
      <point x="57.013698630136986" y="1176.0"/>
      <point x="44.013698630136986" y="1257.0"/>
      <point x="34.013698630136986" y="1293.0" type="qcurve"/>
      <point x="41.013698630136986" y="1293.0" type="line"/>
      <point x="51.013698630136986" y="1258.0"/>
      <point x="64.01369863013699" y="1175.0"/>
      <point x="64.01369863013699" y="1126.0" type="qcurve" smooth="yes"/>
      <point x="64.01369863013699" y="1080.0"/>
      <point x="29.251141552511413" y="1045.0"/>
      <point x="2.12785388127854" y="1045.0" type="qcurve" smooth="yes"/>
      <point x="6.694063926940636" y="1045.0"/>
      <point x="-13.429223744292237" y="1047.0"/>
      <point x="0.0" y="1049.0" type="qcurve"/>
    </contour>
  </outline>
</glyph>
<glyph name="dieresisbelowcomb" format="2">
  <unicode hex="0324"/>
  <anchor x="0.0" y="0.0" name="_bottom"/>
  <anchor x="0.0" y="-421.0" name="bottom"/>
  <outline>
    <contour>
      <point x="-127.1324200913242" y="-190.81278538812785" type="qcurve" smooth="yes"/>
      <point x="-127.1324200913242" y="-197.55251141552512"/>
      <point x="-127.80365296803653" y="-194.0"/>
      <point x="-127.78538812785388" y="-194.0" type="qcurve" smooth="yes"/>
      <point x="-125.23287671232876" y="-194.0"/>
      <point x="-127.59360730593608" y="-195.17351598173516"/>
      <point x="-127.59360730593608" y="-190.81278538812785" type="qcurve" smooth="yes"/>
      <point x="-127.59360730593608" y="-186.60730593607306"/>
      <point x="-128.6118721461187" y="-189.15981735159818"/>
      <point x="-127.78538812785388" y="-189.15981735159818" type="qcurve" smooth="yes"/>
      <point x="-130.337899543379" y="-189.15981735159818"/>
      <point x="-127.1324200913242" y="-188.1415525114155"/>
    </contour>
    <contour>
      <point x="126.74885844748859" y="-190.81278538812785" type="qcurve" smooth="yes"/>
      <point x="126.74885844748859" y="-197.55251141552512"/>
      <point x="126.07762557077625" y="-194.0"/>
      <point x="126.0958904109589" y="-194.0" type="qcurve" smooth="yes"/>
      <point x="128.64840182648402" y="-194.0"/>
      <point x="126.2876712328767" y="-195.17351598173516"/>
      <point x="126.2876712328767" y="-190.81278538812785" type="qcurve" smooth="yes"/>
      <point x="126.2876712328767" y="-186.60730593607306"/>
      <point x="125.26940639269407" y="-189.15981735159818"/>
      <point x="126.0958904109589" y="-189.15981735159818" type="qcurve" smooth="yes"/>
      <point x="123.54337899543378" y="-189.15981735159818"/>
      <point x="126.74885844748859" y="-188.1415525114155"/>
    </contour>
  </outline>
</glyph>
<glyph name="commaaccentcomb" format="2">
  <unicode hex="0326"/>
  <anchor x="0.0" y="0.0" name="_bottom"/>
  <anchor x="0.0" y="-600.0" name="bottom"/>
  <outline>
    <contour>
      <point x="-85.0" y="-599.0" type="line"/>
      <point x="16.0" y="-224.0" type="line"/>
      <point x="23.0" y="-224.0" type="line"/>
      <point x="-81.0" y="-600.0" type="line"/>
    </contour>
  </outline>
</glyph>
<glyph name="ogonekcomb" format="2">
  <unicode hex="0328"/>
  <anchor x="88.0" y="0.0" name="_ogonek"/>
  <anchor x="21.0" y="-434.0" name="bottom"/>
  <outline>
    <contour>
      <point x="84.0" y="3.0" type="qcurve"/>
      <point x="88.0" y="0.0" type="line"/>
      <point x="65.70319634703196" y="-42.0"/>
      <point x="41.38812785388129" y="-137.0"/>
      <point x="41.38812785388129" y="-203.0" type="qcurve" smooth="yes"/>
      <point x="41.38812785388129" y="-252.0"/>
      <point x="69.66666666666666" y="-294.1552511415525"/>
      <point x="85.54794520547945" y="-295.0" type="qcurve" smooth="yes"/>
      <point x="95.73972602739727" y="-295.8447488584475"/>
      <point x="131.91324200913243" y="-276.0"/>
      <point x="140.0" y="-268.0" type="qcurve"/>
      <point x="142.0" y="-274.0" type="line"/>
      <point x="125.0" y="-284.0"/>
      <point x="77.0" y="-302.0"/>
      <point x="58.44748858447488" y="-302.0" type="qcurve" smooth="yes"/>
      <point x="36.789954337899545" y="-302.0"/>
      <point x="34.38812785388129" y="-253.0"/>
      <point x="34.38812785388129" y="-203.0" type="qcurve" smooth="yes"/>
      <point x="34.38812785388129" y="-137.0"/>
      <point x="72.68493150684932" y="-36.0"/>
    </contour>
  </outline>
</glyph>
<glyph name="brevebelowcomb" format="2">
  <unicode hex="032E"/>
  <anchor x="0.0" y="0.0" name="_bottom"/>
  <anchor x="0.0" y="-463.0" name="bottom"/>
  <outline>
    <contour>
      <point x="402.2527397260274" y="-141.18666666666667" type="qcurve"/>
      <point x="330.3506392694064" y="-197.0" type="line"/>
      <point x="298.7922831050228" y="-296.0"/>
      <point x="124.87333333333333" y="-463.0"/>
      <point x="0.0" y="-463.0" type="qcurve" smooth="yes"/>
      <point x="-107.69657534246575" y="-463.0"/>
      <point x="-321.07794520547947" y="-265.2766666666667"/>
      <point x="-332.7139726027397" y="-201.7266666666667" type="qcurve"/>
      <point x="-401.2527397260274" y="-139.18666666666667" type="line"/>
      <point x="-356.2410502283105" y="-259.3666666666667"/>
      <point x="-129.95488584474884" y="-439.18333333333334"/>
      <point x="0.0" y="-439.18333333333334" type="qcurve" smooth="yes"/>
      <point x="140.99205479452053" y="-439.18333333333334"/>
      <point x="357.4491324200913" y="-266.73"/>
    </contour>
  </outline>
</glyph>
<glyph name="macronbelowcomb" format="2">
  <unicode hex="0331"/>
  <anchor x="0.0" y="0.0" name="_bottom"/>
  <anchor x="0.0" y="-259.0" name="bottom"/>
  <outline>
    <contour>
      <point x="-154.08219178082192" y="-106.62100456621005" type="line"/>
      <point x="-154.08219178082192" y="-103.0" type="line"/>
      <point x="154.08219178082192" y="-103.0" type="line"/>
      <point x="154.08219178082192" y="-106.62100456621005" type="line"/>
    </contour>
  </outline>
</glyph>
<glyph name="Theta" format="2">
  <advance width="242.56392694063925"/>
  <unicode hex="0398"/>
  <outline>
    <contour>
      <point x="121.28196347031962" y="-2.0" type="qcurve" smooth="yes"/>
      <point x="23.20433789954339" y="-2.0"/>
      <point x="36.25" y="374.0"/>
      <point x="36.25" y="710.0" type="qcurve" smooth="yes"/>
      <point x="36.25" y="746.0" type="line" smooth="yes"/>
      <point x="36.25" y="1082.0"/>
      <point x="23.20433789954339" y="1458.0"/>
      <point x="121.28196347031962" y="1458.0" type="qcurve" smooth="yes"/>
      <point x="219.3595890410959" y="1458.0"/>
      <point x="206.31392694063925" y="1082.0"/>
      <point x="206.31392694063925" y="746.0" type="qcurve" smooth="yes"/>
      <point x="206.31392694063925" y="710.0" type="line" smooth="yes"/>
      <point x="206.31392694063925" y="374.0"/>
      <point x="219.3595890410959" y="-2.0"/>
    </contour>
    <contour>
      <point x="121.28196347031962" y="5.0" type="qcurve" smooth="yes"/>
      <point x="156.53767123287673" y="5.0"/>
      <point x="199.31392694063925" y="380.0"/>
      <point x="199.31392694063925" y="710.0" type="qcurve" smooth="yes"/>
      <point x="199.31392694063925" y="746.0" type="line" smooth="yes"/>
      <point x="199.31392694063925" y="1078.0"/>
      <point x="156.53767123287673" y="1451.0"/>
      <point x="121.28196347031962" y="1451.0" type="qcurve" smooth="yes"/>
      <point x="85.18150684931507" y="1451.0"/>
      <point x="43.25" y="1078.0"/>
      <point x="43.25" y="746.0" type="qcurve" smooth="yes"/>
      <point x="43.25" y="710.0" type="line" smooth="yes"/>
      <point x="43.25" y="380.0"/>
      <point x="85.18150684931507" y="5.0"/>
    </contour>
    <contour>
      <point x="73.00342465753425" y="742.0" type="line"/>
      <point x="73.00342465753425" y="749.0" type="line"/>
      <point x="169.56050228310505" y="749.0" type="line"/>
      <point x="169.56050228310505" y="742.0" type="line"/>
    </contour>
  </outline>
</glyph>
<glyph name="Xi" format="2">
  <advance width="477.7260273972603"/>
  <unicode hex="039E"/>
  <outline>
    <contour>
      <point x="24.5" y="0.0" type="line"/>
      <point x="24.5" y="7.0" type="line"/>
      <point x="453.2260273972603" y="7.0" type="line"/>
      <point x="453.2260273972603" y="0.0" type="line"/>
    </contour>
    <contour>
      <point x="126.5" y="745.0" type="line"/>
      <point x="126.5" y="752.0" type="line"/>
      <point x="351.2260273972603" y="752.0" type="line"/>
      <point x="351.2260273972603" y="745.0" type="line"/>
    </contour>
    <contour>
      <point x="24.5" y="1449.0" type="line"/>
      <point x="24.5" y="1456.0" type="line"/>
      <point x="453.2260273972603" y="1456.0" type="line"/>
      <point x="453.2260273972603" y="1449.0" type="line"/>
    </contour>
  </outline>
</glyph>
<glyph name="Pi" format="2">
  <advance width="206.19178082191775"/>
  <unicode hex="03A0"/>
  <outline>
    <contour>
      <point x="28.0" y="0.0" type="line"/>
      <point x="28.0" y="1456.0" type="line"/>
      <point x="178.19178082191775" y="1456.0" type="line"/>
      <point x="178.19178082191775" y="0.0" type="line"/>
      <point x="171.19178082191775" y="0.0" type="line"/>
      <point x="171.19178082191775" y="1449.0" type="line"/>
      <point x="35.0" y="1449.0" type="line"/>
      <point x="35.0" y="0.0" type="line"/>
    </contour>
  </outline>
</glyph>
<glyph name="Psi" format="2">
  <advance width="324.21232876712327"/>
  <unicode hex="03A8"/>
  <outline>
    <contour>
      <point x="158.60616438356163" y="0.0" type="line"/>
      <point x="158.60616438356163" y="1456.0" type="line"/>
      <point x="165.60616438356163" y="1456.0" type="line"/>
      <point x="165.60616438356163" y="0.0" type="line"/>
    </contour>
    <contour>
      <point x="160.60616438356163" y="361.0" type="line" smooth="yes"/>
      <point x="56.87100456621005" y="361.0"/>
      <point x="47.25" y="635.0"/>
      <point x="46.25" y="928.0" type="qcurve" smooth="yes"/>
      <point x="46.25" y="1456.0" type="line"/>
      <point x="53.25" y="1456.0" type="line"/>
      <point x="53.25" y="926.0" type="line" smooth="yes"/>
      <point x="53.25" y="639.0"/>
      <point x="96.19520547945206" y="368.0"/>
      <point x="160.60616438356163" y="368.0" type="qcurve" smooth="yes"/>
      <point x="160.60616438356163" y="368.0" type="line" smooth="yes"/>
      <point x="224.32762557077626" y="368.0"/>
      <point x="274.3413242009133" y="639.0"/>
      <point x="270.96232876712327" y="926.0" type="qcurve" smooth="yes"/>
      <point x="270.96232876712327" y="1456.0" type="line"/>
      <point x="277.96232876712327" y="1456.0" type="line"/>
      <point x="277.96232876712327" y="928.0" type="line" smooth="yes"/>
      <point x="277.96232876712327" y="635.0"/>
      <point x="264.3413242009132" y="361.0"/>
      <point x="163.60616438356163" y="361.0" type="qcurve" smooth="yes"/>
    </contour>
  </outline>
</glyph>
<glyph name="Omega" format="2">
  <advance width="266.04794520547944"/>
  <unicode hex="03A9"/>
  <anchor x="-74.1472602739726" y="1074.0" name="tonos"/>
  <outline>
    <contour>
      <point x="36.25" y="0.0" type="line"/>
      <point x="36.25" y="7.0" type="line"/>
      <point x="106.04908675799086" y="7.0" type="line"/>
      <point x="106.04908675799086" y="309.0" type="line"/>
      <point x="56.79794520547944" y="377.0"/>
      <point x="47.09474885844749" y="661.0"/>
      <point x="47.09474885844749" y="857.0" type="qcurve"/>
      <point x="47.09474885844749" y="842.0" type="line"/>
      <point x="47.09474885844749" y="1139.0"/>
      <point x="25.720319634703202" y="1458.0"/>
      <point x="123.52397260273972" y="1458.0" type="qcurve"/>
      <point x="217.10388127853884" y="1458.0"/>
      <point x="219.95319634703196" y="1138.0"/>
      <point x="219.95319634703196" y="841.0" type="qcurve"/>
      <point x="219.95319634703196" y="858.0" type="line"/>
      <point x="219.95319634703196" y="657.0"/>
      <point x="189.95776255707767" y="373.0"/>
      <point x="158.9988584474886" y="309.0" type="qcurve"/>
      <point x="158.9988584474886" y="7.0" type="line"/>
      <point x="229.79794520547944" y="7.0" type="line"/>
      <point x="229.79794520547944" y="0.0" type="line"/>
      <point x="155.37785388127855" y="0.0" type="line"/>
      <point x="155.37785388127855" y="313.0" type="line"/>
      <point x="174.28652968036533" y="379.0"/>
      <point x="212.95319634703196" y="660.0"/>
      <point x="212.95319634703196" y="858.0" type="qcurve"/>
      <point x="212.95319634703196" y="841.0" type="line"/>
      <point x="212.95319634703196" y="1138.0"/>
      <point x="165.79794520547944" y="1451.0"/>
      <point x="122.67922374429224" y="1451.0" type="qcurve"/>
      <point x="78.71575342465752" y="1451.0"/>
      <point x="54.0947488584475" y="1139.0"/>
      <point x="54.0947488584475" y="842.0" type="qcurve"/>
      <point x="54.0947488584475" y="857.0" type="line"/>
      <point x="54.0947488584475" y="659.0"/>
      <point x="84.5376712328767" y="378.0"/>
      <point x="109.67009132420091" y="313.0" type="qcurve"/>
      <point x="109.67009132420091" y="0.0" type="line"/>
    </contour>
  </outline>
</glyph>
<glyph name="beta" format="2">
  <advance width="202.9486301369863"/>
  <unicode hex="03B2"/>
  <outline>
    <contour>
      <point x="44.5" y="-416.0" type="line"/>
      <point x="44.5" y="1058.0" type="line" smooth="yes"/>
      <point x="44.5" y="1311.0"/>
      <point x="64.01141552511416" y="1556.0"/>
      <point x="105.5365296803653" y="1556.0" type="qcurve" smooth="yes"/>
      <point x="142.06164383561645" y="1556.0"/>
      <point x="162.2442922374429" y="1351.0"/>
      <point x="162.2442922374429" y="1156.0" type="qcurve"/>
      <point x="162.2442922374429" y="1002.0"/>
      <point x="98.3082191780822" y="809.92"/>
      <point x="-12.796803652968038" y="794.92" type="qcurve"/>
      <point x="-12.796803652968038" y="800.92" type="line"/>
      <point x="109.41324200913243" y="791.92"/>
      <point x="174.1986301369863" y="597.92"/>
      <point x="174.1986301369863" y="423.92" type="qcurve" smooth="yes"/>
      <point x="174.1986301369863" y="204.92"/>
      <point x="201.7511415525114" y="-21.0"/>
      <point x="143.53652968036533" y="-21.0" type="qcurve" smooth="yes"/>
      <point x="95.49543378995435" y="-21.0"/>
      <point x="39.26255707762556" y="108.0"/>
      <point x="49.5" y="174.0" type="qcurve"/>
      <point x="49.5" y="185.0" type="line"/>
      <point x="48.26255707762556" y="105.0"/>
      <point x="101.49543378995435" y="-14.0"/>
      <point x="111.43607305936072" y="-14.0" type="qcurve" smooth="yes"/>
      <point x="142.84246575342468" y="-14.0"/>
      <point x="167.1986301369863" y="205.92"/>
      <point x="167.1986301369863" y="423.92" type="qcurve" smooth="yes"/>
      <point x="167.1986301369863" y="602.92"/>
      <point x="113.22146118721463" y="796.28"/>
      <point x="100.81050228310502" y="794.92" type="qcurve" smooth="yes"/>
      <point x="81.37214611872145" y="794.92" type="line"/>
      <point x="81.37214611872145" y="801.92" type="line"/>
      <point x="101.81050228310502" y="801.92" type="line" smooth="yes"/>
      <point x="115.45890410958901" y="801.92"/>
      <point x="155.2442922374429" y="987.0"/>
      <point x="155.2442922374429" y="1156.0" type="qcurve" smooth="yes"/>
      <point x="155.2442922374429" y="1348.0"/>
      <point x="117.9429223744292" y="1549.0"/>
      <point x="105.5365296803653" y="1549.0" type="qcurve" smooth="yes"/>
      <point x="83.5958904109589" y="1549.0"/>
      <point x="51.5" y="1304.0"/>
      <point x="51.5" y="1065.0" type="qcurve" smooth="yes"/>
      <point x="51.5" y="-416.0" type="line"/>
    </contour>
  </outline>
</glyph>
<glyph name="gamma" format="2">
  <advance width="329.351598173516"/>
  <unicode hex="03B3"/>
  <outline>
    <contour>
      <point x="153.3310502283105" y="-366.0" type="line"/>
      <point x="153.3310502283105" y="51.2" type="line"/>
      <point x="7.5" y="916.0" type="line"/>
      <point x="15.5" y="916.0" type="line"/>
      <point x="135.8972602739726" y="162.2" type="line" smooth="yes"/>
      <point x="141.95552511415525" y="123.56"/>
      <point x="148.71004566210044" y="57.199999999999996"/>
      <point x="154.3310502283105" y="32.199999999999996" type="qcurve"/>
      <point x="159.3310502283105" y="32.199999999999996" type="line"/>
      <point x="166.95205479452054" y="59.199999999999996"/>
      <point x="172.86182648401828" y="122.87050228310503"/>
      <point x="179.7648401826484" y="162.2" type="qcurve" smooth="yes"/>
      <point x="313.851598173516" y="916.0" type="line"/>
      <point x="321.851598173516" y="916.0" type="line"/>
      <point x="160.3310502283105" y="51.2" type="line"/>
      <point x="160.3310502283105" y="-366.0" type="line"/>
    </contour>
  </outline>
</glyph>
<glyph name="delta" format="2">
  <advance width="189.06164383561645"/>
  <unicode hex="03B4"/>
  <outline>
    <contour>
      <point x="91.44406392694063" y="-30.0" type="qcurve" smooth="yes"/>
      <point x="50.798949771689486" y="-30.0"/>
      <point x="28.75" y="209.0"/>
      <point x="28.75" y="441.0" type="qcurve" smooth="yes"/>
      <point x="28.75" y="448.0" type="line" smooth="yes"/>
      <point x="28.75" y="631.4"/>
      <point x="-3.3970319634703277" y="842.5627397260274"/>
      <point x="169.24406392694064" y="895.6" type="qcurve"/>
      <point x="175.24406392694067" y="881.4" type="line"/>
      <point x="19.202968036529672" y="822.9247488584475"/>
      <point x="35.75" y="631.96"/>
      <point x="35.75" y="449.0" type="qcurve" smooth="yes"/>
      <point x="35.75" y="439.0" type="line" smooth="yes"/>
      <point x="35.75" y="218.44"/>
      <point x="88.61940639269406" y="-14.273333333333333"/>
      <point x="96.65214611872148" y="-23.0" type="qcurve" smooth="yes"/>
      <point x="105.66196347031962" y="-27.363333333333333"/>
      <point x="153.31164383561645" y="212.04"/>
      <point x="153.31164383561645" y="441.0" type="qcurve" smooth="yes"/>
      <point x="153.31164383561645" y="448.0" type="line" smooth="yes"/>
      <point x="153.31164383561645" y="640.0"/>
      <point x="118.88552511415523" y="859.2204566210046"/>
      <point x="119.65410958904107" y="898.0" type="qcurve" smooth="yes"/>
      <point x="111.05246575342464" y="932.5612785388128"/>
      <point x="-15.633561643835606" y="1131.04"/>
      <point x="-15.633561643835606" y="1280.6" type="qcurve" smooth="yes"/>
      <point x="-15.633561643835606" y="1394.6"/>
      <point x="24.15255707762556" y="1556.0"/>
      <point x="61.03767123287673" y="1556.0" type="qcurve" smooth="yes"/>
      <point x="79.8184931506849" y="1556.0"/>
      <point x="135.23858447488584" y="1518.0"/>
      <point x="149.4486301369863" y="1487.0" type="qcurve"/>
      <point x="147.4486301369863" y="1480.0" type="line"/>
      <point x="175.75456621004565" y="1497.0"/>
      <point x="118.3162100456621" y="1549.0"/>
      <point x="69.48515981735159" y="1549.0" type="qcurve" smooth="yes"/>
      <point x="32.25155251141551" y="1549.0"/>
      <point x="-8.633561643835606" y="1387.2"/>
      <point x="-8.633561643835606" y="1277.2" type="qcurve" smooth="yes"/>
      <point x="-8.633561643835606" y="1126.64"/>
      <point x="141.28022831050228" y="929.592511415525"/>
      <point x="140.54908675799086" y="903.0" type="qcurve" smooth="yes"/>
      <point x="118.2997716894977" y="869.3119634703196"/>
      <point x="160.31164383561645" y="645.72"/>
      <point x="160.31164383561645" y="447.0" type="qcurve" smooth="yes"/>
      <point x="160.31164383561645" y="442.0" type="line" smooth="yes"/>
      <point x="160.31164383561645" y="218.56"/>
      <point x="143.68917808219177" y="-30.0"/>
    </contour>
  </outline>
</glyph>
<glyph name="theta" format="2">
  <advance width="190.4908675799087"/>
  <unicode hex="03B8"/>
  <outline>
    <contour>
      <point x="95.32305936073058" y="-30.0" type="qcurve" smooth="yes"/>
      <point x="46.61479169192225" y="-30.0"/>
      <point x="31.25" y="284.0"/>
      <point x="31.25" y="654.0" type="qcurve"/>
      <point x="31.25" y="882.0" type="line"/>
      <point x="31.25" y="1242.0"/>
      <point x="45.61479169192225" y="1556.0"/>
      <point x="95.32305936073058" y="1556.0" type="qcurve" smooth="yes"/>
      <point x="144.50976886087204" y="1556.0"/>
      <point x="159.05771406635154" y="1242.0"/>
      <point x="159.05771406635154" y="882.0" type="qcurve"/>
      <point x="159.05771406635154" y="654.0" type="line"/>
      <point x="159.05771406635154" y="284.0"/>
      <point x="145.50976886087204" y="-30.0"/>
    </contour>
    <contour>
      <point x="94.6335616438356" y="-23.0" type="qcurve" smooth="yes"/>
      <point x="120.03995433789953" y="-23.0"/>
      <point x="152.05771406635154" y="293.0"/>
      <point x="152.05771406635154" y="654.0" type="qcurve"/>
      <point x="152.05771406635154" y="882.0" type="line" smooth="yes"/>
      <point x="152.05771406635154" y="1237.0"/>
      <point x="121.57420091324201" y="1549.0"/>
      <point x="94.32305936073058" y="1549.0" type="qcurve" smooth="yes"/>
      <point x="66.3824200913242" y="1549.0"/>
      <point x="38.25" y="1237.0"/>
      <point x="38.25" y="882.0" type="qcurve" smooth="yes"/>
      <point x="38.25" y="654.0" type="line" smooth="yes"/>
      <point x="38.25" y="293.0"/>
      <point x="65.6929223744292" y="-23.0"/>
    </contour>
    <contour>
      <point x="36.25" y="683.0" type="line"/>
      <point x="36.25" y="690.0" type="line"/>
      <point x="154.05771406635154" y="690.0" type="line"/>
      <point x="154.05771406635154" y="683.0" type="line"/>
    </contour>
  </outline>
</glyph>
<glyph name="kappa" format="2">
  <advance width="385.59703196347033"/>
  <unicode hex="03BA"/>
  <outline>
    <contour>
      <point x="274.84703196347033" y="0.0" type="line"/>
      <point x="184.6855707762557" y="475.0" type="line"/>
      <point x="176.9303196347032" y="480.0" type="line"/>
      <point x="284.84703196347033" y="0.0" type="line"/>
    </contour>
    <contour>
      <point x="48.5" y="480.0" type="line"/>
      <point x="179.08283105022832" y="480.0" type="line"/>
      <point x="265.9657534246575" y="916.0" type="line"/>
      <point x="275.9657534246575" y="916.0" type="line"/>
      <point x="164.79333333333332" y="473.0" type="line"/>
      <point x="48.5" y="473.0" type="line"/>
    </contour>
    <contour>
      <point x="51.5" y="916.0" type="line"/>
      <point x="51.5" y="0.0" type="line"/>
      <point x="45.5" y="0.0" type="line"/>
      <point x="45.5" y="916.0" type="line"/>
    </contour>
  </outline>
</glyph>
<glyph name="lambda" format="2">
  <advance width="331.43835616438355"/>
  <unicode hex="03BB"/>
  <outline>
    <contour>
      <point x="7.5" y="0.0" type="line"/>
      <point x="185.4435616438356" y="1008.36" type="line"/>
      <point x="112.02054794520546" y="1251.0" type="line" smooth="yes"/>
      <point x="77.68301369863013" y="1421.9227397260274"/>
      <point x="67.04794520547944" y="1549.0"/>
      <point x="53.57762557077625" y="1549.0" type="qcurve" smooth="yes"/>
      <point x="42.47260273972603" y="1549.0"/>
      <point x="45.62328767123287" y="1540.0"/>
      <point x="38.20776255707763" y="1530.0" type="qcurve"/>
      <point x="38.20776255707763" y="1535.0" type="line"/>
      <point x="39.15753424657534" y="1545.0"/>
      <point x="62.98858447488584" y="1556.0"/>
      <point x="68.09360730593608" y="1556.0" type="qcurve" smooth="yes"/>
      <point x="82.71917808219177" y="1556.0"/>
      <point x="78.91552511415526" y="1420.75799086758"/>
      <point x="107.8835616438356" y="1252.0" type="qcurve" smooth="yes"/>
      <point x="323.93835616438355" y="0.0" type="line"/>
      <point x="316.93835616438355" y="0.0" type="line"/>
      <point x="203.86986301369865" y="825.6" type="line" smooth="yes"/>
      <point x="200.9200913242009" y="884.97899543379"/>
      <point x="188.59132420091325" y="951.6"/>
      <point x="180.8835616438356" y="1000.6" type="qcurve"/>
      <point x="172.8835616438356" y="1000.6" type="line"/>
      <point x="161.486301369863" y="951.6"/>
      <point x="146.22602739726028" y="868.1342465753424"/>
      <point x="143.8972602739726" y="825.6" type="qcurve" smooth="yes"/>
      <point x="14.5" y="0.0" type="line"/>
    </contour>
  </outline>
</glyph>
<glyph name="xi" format="2">
  <advance width="346.93150684931504"/>
  <unicode hex="03BE"/>
  <outline>
    <contour>
      <point x="219.6267123287671" y="-348.0" type="line"/>
      <point x="229.95547945205482" y="-295.0"/>
      <point x="240.68150684931504" y="-207.0"/>
      <point x="240.68150684931504" y="-155.0" type="qcurve"/>
      <point x="240.68150684931504" y="-74.0"/>
      <point x="204.98744292237444" y="52.32420091324201"/>
      <point x="110.65410958904107" y="74.8082191780822" type="qcurve" smooth="yes"/>
      <point x="104.30707762557077" y="76.73972602739727" type="line" smooth="yes"/>
      <point x="80.31164383561645" y="85.32876712328768"/>
      <point x="28.75" y="262.1552511415525"/>
      <point x="28.75" y="390.0" type="qcurve"/>
      <point x="28.75" y="548.0"/>
      <point x="132.4486301369863" y="755.0"/>
      <point x="243.64497716894977" y="767.0" type="qcurve"/>
      <point x="243.64497716894977" y="763.0" type="line"/>
      <point x="122.55365296803654" y="772.0"/>
      <point x="52.9417808219178" y="945.0"/>
      <point x="54.9417808219178" y="1082.0" type="qcurve"/>
      <point x="54.9417808219178" y="1258.0"/>
      <point x="173.3299086757991" y="1520.0"/>
      <point x="376.4942922374429" y="1532.0" type="qcurve"/>
      <point x="376.4942922374429" y="1529.0" type="line"/>
      <point x="39.81849315068493" y="1529.0" type="line"/>
      <point x="39.81849315068493" y="1536.0" type="line"/>
      <point x="243.99657534246575" y="1536.0" type="line"/>
      <point x="243.99657534246575" y="1529.0" type="line"/>
      <point x="141.73173515981736" y="1529.0"/>
      <point x="61.9417808219178" y="1267.0"/>
      <point x="61.9417808219178" y="1082.0" type="qcurve" smooth="yes"/>
      <point x="61.9417808219178" y="937.0"/>
      <point x="123.43493150684932" y="768.0"/>
      <point x="175.1700913242009" y="768.0" type="qcurve" smooth="yes"/>
      <point x="219.16552511415523" y="768.0" type="line"/>
      <point x="219.16552511415523" y="761.0" type="line"/>
      <point x="175.1700913242009" y="761.0" type="line" smooth="yes"/>
      <point x="117.59018264840182" y="761.0"/>
      <point x="35.75" y="554.0"/>
      <point x="35.75" y="390.0" type="qcurve"/>
      <point x="35.75" y="266.0"/>
      <point x="81.39840182648402" y="89.17351598173516"/>
      <point x="125.73630136986301" y="78.51598173515981" type="qcurve" smooth="yes"/>
      <point x="112.65410958904107" y="81.65296803652969" type="line" smooth="yes"/>
      <point x="209.83219178082192" y="60.70319634703196"/>
      <point x="247.68150684931504" y="-73.0"/>
      <point x="247.68150684931504" y="-155.0" type="qcurve"/>
      <point x="247.68150684931504" y="-209.0"/>
      <point x="228.2659817351598" y="-313.0"/>
      <point x="224.6267123287671" y="-348.0" type="qcurve"/>
    </contour>
  </outline>
</glyph>
<glyph name="pi" format="2">
  <advance width="236.43150684931504"/>
  <unicode hex="03C0"/>
  <outline>
    <contour>
      <point x="7.5" y="909.0" type="line"/>
      <point x="7.5" y="916.0" type="line"/>
      <point x="208.82876712328766" y="916.0" type="line"/>
      <point x="208.82876712328766" y="909.0" type="line"/>
    </contour>
    <contour>
      <point x="55.614155251141554" y="0.0" type="line"/>
      <point x="55.614155251141554" y="912.0" type="line"/>
      <point x="62.614155251141554" y="912.0" type="line"/>
      <point x="62.614155251141554" y="0.0" type="line"/>
    </contour>
    <contour>
      <point x="191.66894977168954" y="-30.0" type="qcurve" smooth="yes"/>
      <point x="165.01141552511416" y="-30.0"/>
      <point x="153.5593607305936" y="57.15525114155251"/>
      <point x="153.5593607305936" y="240.0" type="qcurve"/>
      <point x="153.5593607305936" y="980.4246575342465" type="line"/>
      <point x="160.5593607305936" y="980.4246575342465" type="line"/>
      <point x="160.5593607305936" y="240.0" type="line"/>
      <point x="160.5593607305936" y="78.0"/>
      <point x="173.9931506849315" y="-23.0"/>
      <point x="192.51369863013701" y="-23.0" type="qcurve"/>
      <point x="199.7557077625571" y="-23.0"/>
      <point x="216.72374429223748" y="-6.0"/>
      <point x="218.96575342465758" y="-1.0" type="qcurve"/>
      <point x="218.96575342465758" y="-8.0" type="line"/>
      <point x="213.10273972602738" y="-17.0"/>
      <point x="197.53196347031962" y="-30.0"/>
    </contour>
  </outline>
</glyph>
<glyph name="rho" format="2">
  <advance width="199.68835616438355"/>
  <unicode hex="03C1"/>
  <outline>
    <contour>
      <point x="44.5" y="-416.0" type="line"/>
      <point x="44.5" y="473.0" type="line" smooth="yes"/>
      <point x="44.5" y="682.6"/>
      <point x="61.31168949771689" y="942.8"/>
      <point x="106.79680365296804" y="942.8" type="qcurve" smooth="yes"/>
      <point x="134.4269406392694" y="942.8"/>
      <point x="170.93835616438355" y="685.44"/>
      <point x="170.93835616438355" y="484.0" type="qcurve" smooth="yes"/>
      <point x="170.93835616438355" y="452.0" type="line" smooth="yes"/>
      <point x="170.93835616438355" y="247.84"/>
      <point x="154.38968036529684" y="-20.0"/>
      <point x="101.86529680365297" y="-20.0" type="qcurve" smooth="yes"/>
      <point x="103.58219178082192" y="-20.0"/>
      <point x="41.36757990867579" y="62.0"/>
      <point x="49.5" y="123.0" type="qcurve"/>
      <point x="49.5" y="132.0" type="line"/>
      <point x="71.71004566210047" y="66.0"/>
      <point x="128.3904109589041" y="-13.0"/>
      <point x="102.02054794520546" y="-13.0" type="qcurve" smooth="yes"/>
      <point x="123.13945205479453" y="-13.0"/>
      <point x="163.93835616438355" y="242.12"/>
      <point x="163.93835616438355" y="452.0" type="qcurve" smooth="yes"/>
      <point x="163.93835616438355" y="484.0" type="line" smooth="yes"/>
      <point x="163.93835616438355" y="683.48"/>
      <point x="119.29196347031963" y="935.8"/>
      <point x="107.79680365296804" y="935.8" type="qcurve" smooth="yes"/>
      <point x="59.87917808219177" y="935.8"/>
      <point x="51.5" y="660.6"/>
      <point x="51.5" y="478.0" type="qcurve" smooth="yes"/>
      <point x="51.5" y="-416.0" type="line"/>
    </contour>
  </outline>
</glyph>
<glyph name="upsilon" format="2">
  <advance width="376.8630136986301"/>
  <unicode hex="03C5"/>
  <anchor x="188.08675799086757" y="916.0" name="top"/>
  <outline>
    <contour>
      <point x="188.2420091324201" y="-20.0" type="qcurve" smooth="yes"/>
      <point x="141.6118721461187" y="-20.0"/>
      <point x="131.0" y="201.0"/>
      <point x="131.0" y="403.0" type="qcurve" smooth="yes"/>
      <point x="131.0" y="916.0" type="line"/>
      <point x="138.0" y="916.0" type="line"/>
      <point x="138.0" y="401.0" type="line" smooth="yes"/>
      <point x="138.0" y="202.0"/>
      <point x="142.2328767123288" y="-13.0"/>
      <point x="188.2420091324201" y="-13.0" type="qcurve" smooth="yes"/>
      <point x="239.63013698630135" y="-13.0"/>
      <point x="235.86301369863014" y="202.0"/>
      <point x="237.86301369863014" y="401.0" type="qcurve" smooth="yes"/>
      <point x="237.86301369863014" y="916.0" type="line"/>
      <point x="244.86301369863014" y="916.0" type="line"/>
      <point x="244.86301369863014" y="403.0" type="line" smooth="yes"/>
      <point x="244.86301369863014" y="201.0"/>
      <point x="235.87214611872145" y="-20.0"/>
    </contour>
  </outline>
</glyph>
